<svg version="1.1" viewBox="0.0 0.0 811.0 402.0" fill="none" stroke="none" stroke-linecap="square" stroke-miterlimit="10" width="811" height="402" xmlns:xlink="http://www.w3.org/1999/xlink" xmlns="http://www.w3.org/2000/svg"><path fill="#ffffff" d="M0 0L811.0 0L811.0 402.0L0 402.0L0 0Z" fill-rule="nonzero"/><path stroke="#333333" stroke-width="1.0" stroke-linecap="butt" d="M128.5 26.5L128.5 367.5" fill-rule="nonzero"/><path stroke="#999999" stroke-width="1.0" stroke-linecap="butt" d="M323.5 26.5L323.5 367.5" fill-rule="nonzero"/><path stroke="#999999" stroke-width="1.0" stroke-linecap="butt" d="M518.5 26.5L518.5 367.5" fill-rule="nonzero"/><path stroke="#999999" stroke-width="1.0" stroke-linecap="butt" d="M713.5 26.5L713.5 367.5" fill-rule="nonzero"/><path stroke="#cccccc" stroke-width="1.0" stroke-linecap="butt" d="M167.5 26.5L167.5 367.5" fill-rule="nonzero"/><path stroke="#cccccc" stroke-width="1.0" stroke-linecap="butt" d="M206.5 26.5L206.5 367.5" fill-rule="nonzero"/><path stroke="#cccccc" stroke-width="1.0" stroke-linecap="butt" d="M245.5 26.5L245.5 367.5" fill-rule="nonzero"/><path stroke="#cccccc" stroke-width="1.0" stroke-linecap="butt" d="M284.5 26.5L284.5 367.5" fill-rule="nonzero"/><path stroke="#cccccc" stroke-width="1.0" stroke-linecap="butt" d="M362.5 26.5L362.5 367.5" fill-rule="nonzero"/><path stroke="#cccccc" stroke-width="1.0" stroke-linecap="butt" d="M401.5 26.5L401.5 367.5" fill-rule="nonzero"/><path stroke="#cccccc" stroke-width="1.0" stroke-linecap="butt" d="M440.5 26.5L440.5 367.5" fill-rule="nonzero"/><path stroke="#cccccc" stroke-width="1.0" stroke-linecap="butt" d="M479.5 26.5L479.5 367.5" fill-rule="nonzero"/><path stroke="#cccccc" stroke-width="1.0" stroke-linecap="butt" d="M557.5 26.5L557.5 367.5" fill-rule="nonzero"/><path stroke="#cccccc" stroke-width="1.0" stroke-linecap="butt" d="M596.5 26.5L596.5 367.5" fill-rule="nonzero"/><path stroke="#cccccc" stroke-width="1.0" stroke-linecap="butt" d="M635.5 26.5L635.5 367.5" fill-rule="nonzero"/><path stroke="#cccccc" stroke-width="1.0" stroke-linecap="butt" d="M674.5 26.5L674.5 367.5" fill-rule="nonzero"/><path stroke="#cccccc" stroke-width="1.0" stroke-linecap="butt" d="M752.5 26.5L752.5 367.5" fill-rule="nonzero"/><clipPath id="id_0"><path d="M128.5 26.5L791.5 26.5L791.5 367.48566L128.5 367.48566L128.5 26.5Z" clip-rule="nonzero"/></clipPath><path stroke="#000000" stroke-width="2.0" stroke-linecap="butt" stroke-opacity="0.0" clip-path="url(#id_0)" d="M128.0 49.0L128.0 42.0L226.0 42.0C227.10457 42.0 228.0 42.89543 228.0 44.0L228.0 47.0C228.0 48.10457 227.10457 49.0 226.0 49.0Z" fill-rule="nonzero"/><path fill="#6d9eeb" clip-path="url(#id_0)" d="M128.0 49.0L128.0 42.0L226.0 42.0C227.10457 42.0 228.0 42.89543 228.0 44.0L228.0 47.0C228.0 48.10457 227.10457 49.0 226.0 49.0Z" fill-rule="nonzero"/><path stroke="#000000" stroke-width="2.0" stroke-linecap="butt" stroke-opacity="0.0" clip-path="url(#id_0)" d="M128.0 90.0L128.0 83.0L140.0 83.0C141.10457 83.0 142.0 83.89543 142.0 85.0L142.0 88.0C142.0 89.10457 141.10457 90.0 140.0 90.0Z" fill-rule="nonzero"/><path fill="#6d9eeb" clip-path="url(#id_0)" d="M128.0 90.0L128.0 83.0L140.0 83.0C141.10457 83.0 142.0 83.89543 142.0 85.0L142.0 88.0C142.0 89.10457 141.10457 90.0 140.0 90.0Z" fill-rule="nonzero"/><path stroke="#000000" stroke-width="2.0" stroke-linecap="butt" stroke-opacity="0.0" clip-path="url(#id_0)" d="M128.0 131.0L128.0 124.0L142.0 124.0C143.10457 124.0 144.0 124.89543 144.0 126.0L144.0 129.0C144.0 130.10457 143.10457 131.0 142.0 131.0Z" fill-rule="nonzero"/><path fill="#6d9eeb" clip-path="url(#id_0)" d="M128.0 131.0L128.0 124.0L142.0 124.0C143.10457 124.0 144.0 124.89543 144.0 126.0L144.0 129.0C144.0 130.10457 143.10457 131.0 142.0 131.0Z" fill-rule="nonzero"/><path stroke="#000000" stroke-width="2.0" stroke-linecap="butt" stroke-opacity="0.0" clip-path="url(#id_0)" d="M128.0 172.0L128.0 165.0L452.0 165.0C453.10458 165.0 454.0 165.89543 454.0 167.0L454.0 170.0C454.0 171.10457 453.10458 172.0 452.0 172.0Z" fill-rule="nonzero"/><path fill="#6d9eeb" clip-path="url(#id_0)" d="M128.0 172.0L128.0 165.0L452.0 165.0C453.10458 165.0 454.0 165.89543 454.0 167.0L454.0 170.0C454.0 171.10457 453.10458 172.0 452.0 172.0Z" fill-rule="nonzero"/><path stroke="#000000" stroke-width="2.0" stroke-linecap="butt" stroke-opacity="0.0" clip-path="url(#id_0)" d="M128.0 212.0L128.0 205.0L175.0 205.0C176.10457 205.0 177.0 205.89543 177.0 207.0L177.0 210.0C177.0 211.10457 176.10457 212.0 175.0 212.0Z" fill-rule="nonzero"/><path fill="#6d9eeb" clip-path="url(#id_0)" d="M128.0 212.0L128.0 205.0L175.0 205.0C176.10457 205.0 177.0 205.89543 177.0 207.0L177.0 210.0C177.0 211.10457 176.10457 212.0 175.0 212.0Z" fill-rule="nonzero"/><path stroke="#000000" stroke-width="2.0" stroke-linecap="butt" stroke-opacity="0.0" clip-path="url(#id_0)" d="M128.0 253.0L128.0 246.0L490.0 246.0C491.10458 246.0 492.0 246.89543 492.0 248.0L492.0 251.0C492.0 252.10457 491.10458 253.0 490.0 253.0Z" fill-rule="nonzero"/><path fill="#6d9eeb" clip-path="url(#id_0)" d="M128.0 253.0L128.0 246.0L490.0 246.0C491.10458 246.0 492.0 246.89543 492.0 248.0L492.0 251.0C492.0 252.10457 491.10458 253.0 490.0 253.0Z" fill-rule="nonzero"/><path stroke="#000000" stroke-width="2.0" stroke-linecap="butt" stroke-opacity="0.0" clip-path="url(#id_0)" d="M128.0 294.0L128.0 287.0L176.0 287.0C177.10457 287.0 178.0 287.89542 178.0 289.0L178.0 292.0C178.0 293.10458 177.10457 294.0 176.0 294.0Z" fill-rule="nonzero"/><path fill="#6d9eeb" clip-path="url(#id_0)" d="M128.0 294.0L128.0 287.0L176.0 287.0C177.10457 287.0 178.0 287.89542 178.0 289.0L178.0 292.0C178.0 293.10458 177.10457 294.0 176.0 294.0Z" fill-rule="nonzero"/><path stroke="#000000" stroke-width="2.0" stroke-linecap="butt" stroke-opacity="0.0" clip-path="url(#id_0)" d="M128.0 335.0L128.0 328.0L141.0 328.0C142.10457 328.0 143.0 328.89542 143.0 330.0L143.0 333.0C143.0 334.10458 142.10457 335.0 141.0 335.0Z" fill-rule="nonzero"/><path fill="#6d9eeb" clip-path="url(#id_0)" d="M128.0 335.0L128.0 328.0L141.0 328.0C142.10457 328.0 143.0 328.89542 143.0 330.0L143.0 333.0C143.0 334.10458 142.10457 335.0 141.0 335.0Z" fill-rule="nonzero"/><path stroke="#000000" stroke-width="2.0" stroke-linecap="butt" stroke-opacity="0.0" clip-path="url(#id_0)" d="M128.0 58.0L128.0 51.0L362.0 51.0C363.10458 51.0 364.0 51.89543 364.0 53.0L364.0 56.0C364.0 57.10457 363.10458 58.0 362.0 58.0Z" fill-rule="nonzero"/><path fill="#e06666" clip-path="url(#id_0)" d="M128.0 58.0L128.0 51.0L362.0 51.0C363.10458 51.0 364.0 51.89543 364.0 53.0L364.0 56.0C364.0 57.10457 363.10458 58.0 362.0 58.0Z" fill-rule="nonzero"/><path stroke="#000000" stroke-width="2.0" stroke-linecap="butt" stroke-opacity="0.0" clip-path="url(#id_0)" d="M128.0 99.0L128.0 92.0L148.0 92.0C149.10457 92.0 150.0 92.89543 150.0 94.0L150.0 97.0C150.0 98.10457 149.10457 99.0 148.0 99.0Z" fill-rule="nonzero"/><path fill="#e06666" clip-path="url(#id_0)" d="M128.0 99.0L128.0 92.0L148.0 92.0C149.10457 92.0 150.0 92.89543 150.0 94.0L150.0 97.0C150.0 98.10457 149.10457 99.0 148.0 99.0Z" fill-rule="nonzero"/><path stroke="#000000" stroke-width="2.0" stroke-linecap="butt" stroke-opacity="0.0" clip-path="url(#id_0)" d="M128.0 140.0L128.0 133.0L181.0 133.0C182.10457 133.0 183.0 133.89543 183.0 135.0L183.0 138.0C183.0 139.10457 182.10457 140.0 181.0 140.0Z" fill-rule="nonzero"/><path fill="#e06666" clip-path="url(#id_0)" d="M128.0 140.0L128.0 133.0L181.0 133.0C182.10457 133.0 183.0 133.89543 183.0 135.0L183.0 138.0C183.0 139.10457 182.10457 140.0 181.0 140.0Z" fill-rule="nonzero"/><path stroke="#000000" stroke-width="2.0" stroke-linecap="butt" stroke-opacity="0.0" clip-path="url(#id_0)" d="M128.0 181.0L128.0 174.0L512.0 174.0C513.10455 174.0 514.0 174.89543 514.0 176.0L514.0 179.0C514.0 180.10457 513.10455 181.0 512.0 181.0Z" fill-rule="nonzero"/><path fill="#e06666" clip-path="url(#id_0)" d="M128.0 181.0L128.0 174.0L512.0 174.0C513.10455 174.0 514.0 174.89543 514.0 176.0L514.0 179.0C514.0 180.10457 513.10455 181.0 512.0 181.0Z" fill-rule="nonzero"/><path stroke="#000000" stroke-width="2.0" stroke-linecap="butt" stroke-opacity="0.0" clip-path="url(#id_0)" d="M128.0 221.0L128.0 214.0L273.0 214.0C274.10458 214.0 275.0 214.89543 275.0 216.0L275.0 219.0C275.0 220.10457 274.10458 221.0 273.0 221.0Z" fill-rule="nonzero"/><path fill="#e06666" clip-path="url(#id_0)" d="M128.0 221.0L128.0 214.0L273.0 214.0C274.10458 214.0 275.0 214.89543 275.0 216.0L275.0 219.0C275.0 220.10457 274.10458 221.0 273.0 221.0Z" fill-rule="nonzero"/><path stroke="#000000" stroke-width="2.0" stroke-linecap="butt" stroke-opacity="0.0" clip-path="url(#id_0)" d="M128.0 262.0L128.0 255.0L505.0 255.0C506.10458 255.0 507.0 255.89543 507.0 257.0L507.0 260.0C507.0 261.10458 506.10458 262.0 505.0 262.0Z" fill-rule="nonzero"/><path fill="#e06666" clip-path="url(#id_0)" d="M128.0 262.0L128.0 255.0L505.0 255.0C506.10458 255.0 507.0 255.89543 507.0 257.0L507.0 260.0C507.0 261.10458 506.10458 262.0 505.0 262.0Z" fill-rule="nonzero"/><path stroke="#000000" stroke-width="2.0" stroke-linecap="butt" stroke-opacity="0.0" clip-path="url(#id_0)" d="M128.0 303.0L128.0 296.0L656.0 296.0C657.10455 296.0 658.0 296.89542 658.0 298.0L658.0 301.0C658.0 302.10458 657.10455 303.0 656.0 303.0Z" fill-rule="nonzero"/><path fill="#e06666" clip-path="url(#id_0)" d="M128.0 303.0L128.0 296.0L656.0 296.0C657.10455 296.0 658.0 296.89542 658.0 298.0L658.0 301.0C658.0 302.10458 657.10455 303.0 656.0 303.0Z" fill-rule="nonzero"/><path stroke="#000000" stroke-width="2.0" stroke-linecap="butt" stroke-opacity="0.0" clip-path="url(#id_0)" d="M128.0 344.0L128.0 337.0L287.0 337.0C288.10458 337.0 289.0 337.89542 289.0 339.0L289.0 342.0C289.0 343.10458 288.10458 344.0 287.0 344.0Z" fill-rule="nonzero"/><path fill="#e06666" clip-path="url(#id_0)" d="M128.0 344.0L128.0 337.0L287.0 337.0C288.10458 337.0 289.0 337.89542 289.0 339.0L289.0 342.0C289.0 343.10458 288.10458 344.0 287.0 344.0Z" fill-rule="nonzero"/><path stroke="#000000" stroke-width="2.0" stroke-linecap="butt" stroke-opacity="0.0" clip-path="url(#id_0)" d="M128.0 67.0L128.0 60.0L287.0 60.0C288.10458 60.0 289.0 60.89543 289.0 62.0L289.0 65.0C289.0 66.10457 288.10458 67.0 287.0 67.0Z" fill-rule="nonzero"/><path fill="#ffd966" clip-path="url(#id_0)" d="M128.0 67.0L128.0 60.0L287.0 60.0C288.10458 60.0 289.0 60.89543 289.0 62.0L289.0 65.0C289.0 66.10457 288.10458 67.0 287.0 67.0Z" fill-rule="nonzero"/><path stroke="#000000" stroke-width="2.0" stroke-linecap="butt" stroke-opacity="0.0" clip-path="url(#id_0)" d="M128.0 108.0L128.0 101.0L149.0 101.0C150.10457 101.0 151.0 101.89543 151.0 103.0L151.0 106.0C151.0 107.10457 150.10457 108.0 149.0 108.0Z" fill-rule="nonzero"/><path fill="#ffd966" clip-path="url(#id_0)" d="M128.0 108.0L128.0 101.0L149.0 101.0C150.10457 101.0 151.0 101.89543 151.0 103.0L151.0 106.0C151.0 107.10457 150.10457 108.0 149.0 108.0Z" fill-rule="nonzero"/><path stroke="#000000" stroke-width="2.0" stroke-linecap="butt" stroke-opacity="0.0" clip-path="url(#id_0)" d="M128.0 149.0L128.0 142.0L143.0 142.0C144.10457 142.0 145.0 142.89543 145.0 144.0L145.0 147.0C145.0 148.10457 144.10457 149.0 143.0 149.0Z" fill-rule="nonzero"/><path fill="#ffd966" clip-path="url(#id_0)" d="M128.0 149.0L128.0 142.0L143.0 142.0C144.10457 142.0 145.0 142.89543 145.0 144.0L145.0 147.0C145.0 148.10457 144.10457 149.0 143.0 149.0Z" fill-rule="nonzero"/><path stroke="#000000" stroke-width="2.0" stroke-linecap="butt" stroke-opacity="0.0" clip-path="url(#id_0)" d="M128.0 190.0L128.0 183.0L488.0 183.0C489.10458 183.0 490.0 183.89543 490.0 185.0L490.0 188.0C490.0 189.10457 489.10458 190.0 488.0 190.0Z" fill-rule="nonzero"/><path fill="#ffd966" clip-path="url(#id_0)" d="M128.0 190.0L128.0 183.0L488.0 183.0C489.10458 183.0 490.0 183.89543 490.0 185.0L490.0 188.0C490.0 189.10457 489.10458 190.0 488.0 190.0Z" fill-rule="nonzero"/><path stroke="#000000" stroke-width="2.0" stroke-linecap="butt" stroke-opacity="0.0" clip-path="url(#id_0)" d="M128.0 230.0L128.0 223.0L173.0 223.0C174.10457 223.0 175.0 223.89543 175.0 225.0L175.0 228.0C175.0 229.10457 174.10457 230.0 173.0 230.0Z" fill-rule="nonzero"/><path fill="#ffd966" clip-path="url(#id_0)" d="M128.0 230.0L128.0 223.0L173.0 223.0C174.10457 223.0 175.0 223.89543 175.0 225.0L175.0 228.0C175.0 229.10457 174.10457 230.0 173.0 230.0Z" fill-rule="nonzero"/><path stroke="#000000" stroke-width="2.0" stroke-linecap="butt" stroke-opacity="0.0" clip-path="url(#id_0)" d="M128.0 271.0L128.0 264.0L573.0 264.0C574.10455 264.0 575.0 264.89542 575.0 266.0L575.0 269.0C575.0 270.10458 574.10455 271.0 573.0 271.0Z" fill-rule="nonzero"/><path fill="#ffd966" clip-path="url(#id_0)" d="M128.0 271.0L128.0 264.0L573.0 264.0C574.10455 264.0 575.0 264.89542 575.0 266.0L575.0 269.0C575.0 270.10458 574.10455 271.0 573.0 271.0Z" fill-rule="nonzero"/><path stroke="#000000" stroke-width="2.0" stroke-linecap="butt" stroke-opacity="0.0" clip-path="url(#id_0)" d="M128.0 312.0L128.0 305.0L197.0 305.0C198.10457 305.0 199.0 305.89542 199.0 307.0L199.0 310.0C199.0 311.10458 198.10457 312.0 197.0 312.0Z" fill-rule="nonzero"/><path fill="#ffd966" clip-path="url(#id_0)" d="M128.0 312.0L128.0 305.0L197.0 305.0C198.10457 305.0 199.0 305.89542 199.0 307.0L199.0 310.0C199.0 311.10458 198.10457 312.0 197.0 312.0Z" fill-rule="nonzero"/><path stroke="#000000" stroke-width="2.0" stroke-linecap="butt" stroke-opacity="0.0" clip-path="url(#id_0)" d="M128.0 353.0L128.0 346.0L142.0 346.0C143.10457 346.0 144.0 346.89542 144.0 348.0L144.0 351.0C144.0 352.10458 143.10457 353.0 142.0 353.0Z" fill-rule="nonzero"/><path fill="#ffd966" clip-path="url(#id_0)" d="M128.0 353.0L128.0 346.0L142.0 346.0C143.10457 346.0 144.0 346.89542 144.0 348.0L144.0 351.0C144.0 352.10458 143.10457 353.0 142.0 353.0Z" fill-rule="nonzero"/><path fill="#000000" d="M49.78125 59.56471L49.78125 48.111584L51.296875 48.111584L51.296875 52.81471L57.25 52.81471L57.25 48.111584L58.765625 48.111584L58.765625 59.56471L57.25 59.56471L57.25 54.15846L51.296875 54.15846L51.296875 59.56471L49.78125 59.56471ZM65.96875 58.53346Q65.1875 59.205334 64.46875 59.486584Q63.75 59.75221 62.921875 59.75221Q61.546875 59.75221 60.8125 59.080334Q60.078125 58.40846 60.078125 57.37721Q60.078125 56.767834 60.359375 56.267834Q60.640625 55.75221 61.078125 55.455334Q61.53125 55.142834 62.09375 54.986584Q62.515625 54.87721 63.34375 54.78346Q65.046875 54.580334 65.859375 54.299084Q65.859375 54.00221 65.859375 53.924084Q65.859375 53.06471 65.46875 52.72096Q64.921875 52.236584 63.859375 52.236584Q62.875 52.236584 62.390625 52.59596Q61.921875 52.93971 61.703125 53.81471L60.328125 53.62721Q60.515625 52.75221 60.9375 52.205334Q61.375 51.65846 62.1875 51.37721Q63.0 51.080334 64.0625 51.080334Q65.125 51.080334 65.78125 51.330334Q66.453125 51.580334 66.765625 51.955334Q67.078125 52.330334 67.203125 52.90846Q67.28125 53.267834 67.28125 54.205334L67.28125 56.080334Q67.28125 58.049084 67.359375 58.56471Q67.453125 59.080334 67.71875 59.56471L66.25 59.56471Q66.03125 59.12721 65.96875 58.53346ZM65.859375 55.392834Q65.09375 55.705334 63.5625 55.924084Q62.6875 56.049084 62.328125 56.205334Q61.96875 56.361584 61.765625 56.674084Q61.578125 56.97096 61.578125 57.330334Q61.578125 57.892834 62.0 58.267834Q62.4375 58.642834 63.25 58.642834Q64.0625 58.642834 64.6875 58.299084Q65.328125 57.93971 65.625 57.31471Q65.859375 56.84596 65.859375 55.90846L65.859375 55.392834ZM69.0 57.080334L70.390625 56.861584Q70.5 57.705334 71.03125 58.15846Q71.578125 58.59596 72.53125 58.59596Q73.5 58.59596 73.96875 58.205334Q74.4375 57.799084 74.4375 57.267834Q74.4375 56.799084 74.03125 56.517834Q73.734375 56.330334 72.59375 56.049084Q71.046875 55.65846 70.4375 55.37721Q69.84375 55.080334 69.53125 54.580334Q69.234375 54.080334 69.234375 53.47096Q69.234375 52.90846 69.484375 52.43971Q69.734375 51.97096 70.171875 51.65846Q70.5 51.40846 71.0625 51.25221Q71.640625 51.080334 72.28125 51.080334Q73.265625 51.080334 74.0 51.361584Q74.734375 51.642834 75.078125 52.12721Q75.4375 52.59596 75.578125 53.40846L74.203125 53.59596Q74.109375 52.955334 73.65625 52.59596Q73.203125 52.236584 72.390625 52.236584Q71.421875 52.236584 71.0 52.56471Q70.59375 52.87721 70.59375 53.299084Q70.59375 53.580334 70.765625 53.799084Q70.9375 54.017834 71.296875 54.174084Q71.515625 54.25221 72.546875 54.53346Q74.03125 54.924084 74.625 55.18971Q75.21875 55.43971 75.546875 55.924084Q75.890625 56.40846 75.890625 57.12721Q75.890625 57.830334 75.46875 58.455334Q75.0625 59.06471 74.28125 59.40846Q73.515625 59.75221 72.546875 59.75221Q70.921875 59.75221 70.078125 59.080334Q69.234375 58.40846 69.0 57.080334ZM77.5625 59.56471L77.5625 48.111584L78.96875 48.111584L78.96875 52.22096Q79.953125 51.080334 81.453125 51.080334Q82.375 51.080334 83.046875 51.43971Q83.734375 51.799084 84.015625 52.43971Q84.3125 53.080334 84.3125 54.299084L84.3125 59.56471L82.90625 59.56471L82.90625 54.299084Q82.90625 53.25221 82.453125 52.767834Q82.0 52.28346 81.15625 52.28346Q80.53125 52.28346 79.984375 52.611584Q79.4375 52.93971 79.203125 53.50221Q78.96875 54.049084 78.96875 55.017834L78.96875 59.56471L77.5625 59.56471ZM85.734375 59.56471L85.734375 48.111584L89.6875 48.111584Q91.015625 48.111584 91.71875 48.267834Q92.703125 48.50221 93.40625 49.09596Q94.3125 49.861584 94.75 51.049084Q95.203125 52.236584 95.203125 53.767834Q95.203125 55.080334 94.890625 56.09596Q94.59375 57.09596 94.109375 57.75221Q93.640625 58.40846 93.078125 58.799084Q92.515625 59.174084 91.703125 59.37721Q90.90625 59.56471 89.875 59.56471L85.734375 59.56471ZM87.25 58.205334L89.703125 58.205334Q90.828125 58.205334 91.46875 58.00221Q92.125 57.78346 92.5 57.40846Q93.046875 56.861584 93.34375 55.955334Q93.640625 55.049084 93.640625 53.75221Q93.640625 51.955334 93.046875 50.986584Q92.46875 50.017834 91.625 49.68971Q91.015625 49.455334 89.65625 49.455334L87.25 49.455334L87.25 58.205334ZM97.671875 59.56471L97.671875 48.111584L101.96875 48.111584Q103.28125 48.111584 104.078125 48.455334Q104.875 48.799084 105.3125 49.53346Q105.765625 50.25221 105.765625 51.03346Q105.765625 51.767834 105.359375 52.424084Q104.96875 53.06471 104.171875 53.47096Q105.203125 53.767834 105.765625 54.50221Q106.328125 55.236584 106.328125 56.236584Q106.328125 57.049084 105.984375 57.736584Q105.640625 58.424084 105.140625 58.799084Q104.640625 59.174084 103.890625 59.37721Q103.140625 59.56471 102.046875 59.56471L97.671875 59.56471ZM99.1875 52.924084L101.671875 52.924084Q102.671875 52.924084 103.109375 52.78346Q103.6875 52.611584 103.984375 52.22096Q104.28125 51.81471 104.28125 51.22096Q104.28125 50.642834 104.0 50.22096Q103.734375 49.78346 103.21875 49.62721Q102.71875 49.455334 101.484375 49.455334L99.1875 49.455334L99.1875 52.924084ZM99.1875 58.205334L102.046875 58.205334Q102.78125 58.205334 103.078125 58.15846Q103.59375 58.06471 103.9375 57.84596Q104.296875 57.62721 104.515625 57.205334Q104.75 56.78346 104.75 56.236584Q104.75 55.59596 104.421875 55.12721Q104.09375 54.65846 103.515625 54.47096Q102.9375 54.267834 101.84375 54.267834L99.1875 54.267834L99.1875 58.205334ZM108.6875 59.56471L108.6875 48.111584L110.96875 48.111584L113.6875 56.22096Q114.0625 57.34596 114.234375 57.90846Q114.421875 57.28346 114.84375 56.080334L117.578125 48.111584L119.625 48.111584L119.625 59.56471L118.15625 59.56471L118.15625 49.97096L114.828125 59.56471L113.46875 59.56471L110.15625 49.81471L110.15625 59.56471L108.6875 59.56471Z" fill-rule="nonzero"/><path fill="#000000" d="M56.65625 100.40131L56.65625 90.29194L52.875 90.29194L52.875 88.94819L61.953125 88.94819L61.953125 90.29194L58.171875 90.29194L58.171875 100.40131L56.65625 100.40131ZM62.546875 100.40131L62.546875 92.10444L63.8125 92.10444L63.8125 93.35444Q64.296875 92.47944 64.703125 92.19819Q65.109375 91.91694 65.609375 91.91694Q66.3125 91.91694 67.046875 92.37006L66.5625 93.66694Q66.046875 93.37006 65.53125 93.37006Q65.078125 93.37006 64.703125 93.65131Q64.34375 93.91694 64.1875 94.41694Q63.953125 95.16694 63.953125 96.05756L63.953125 100.40131L62.546875 100.40131ZM73.234375 97.72944L74.6875 97.90131Q74.34375 99.18256 73.40625 99.88569Q72.484375 100.58881 71.046875 100.58881Q69.21875 100.58881 68.15625 99.46381Q67.09375 98.33881 67.09375 96.32319Q67.09375 94.22944 68.171875 93.07319Q69.25 91.91694 70.96875 91.91694Q72.625 91.91694 73.671875 93.05756Q74.734375 94.18256 74.734375 96.22944Q74.734375 96.35444 74.734375 96.60444L68.546875 96.60444Q68.625 97.97944 69.3125 98.71381Q70.015625 99.43256 71.046875 99.43256Q71.828125 99.43256 72.375 99.02631Q72.921875 98.62006 73.234375 97.72944ZM68.625 95.44819L73.25 95.44819Q73.15625 94.40131 72.71875 93.88569Q72.046875 93.07319 70.984375 93.07319Q70.015625 93.07319 69.34375 93.72944Q68.6875 94.37006 68.625 95.44819ZM82.234375 97.72944L83.6875 97.90131Q83.34375 99.18256 82.40625 99.88569Q81.484375 100.58881 80.046875 100.58881Q78.21875 100.58881 77.15625 99.46381Q76.09375 98.33881 76.09375 96.32319Q76.09375 94.22944 77.171875 93.07319Q78.25 91.91694 79.96875 91.91694Q81.625 91.91694 82.671875 93.05756Q83.734375 94.18256 83.734375 96.22944Q83.734375 96.35444 83.734375 96.60444L77.546875 96.60444Q77.625 97.97944 78.3125 98.71381Q79.015625 99.43256 80.046875 99.43256Q80.828125 99.43256 81.375 99.02631Q81.921875 98.62006 82.234375 97.72944ZM77.625 95.44819L82.25 95.44819Q82.15625 94.40131 81.71875 93.88569Q81.046875 93.07319 79.984375 93.07319Q79.015625 93.07319 78.34375 93.72944Q77.6875 94.37006 77.625 95.44819ZM85.734375 100.40131L85.734375 88.94819L89.6875 88.94819Q91.015625 88.94819 91.71875 89.10444Q92.703125 89.33881 93.40625 89.93256Q94.3125 90.69819 94.75 91.88569Q95.203125 93.07319 95.203125 94.60444Q95.203125 95.91694 94.890625 96.93256Q94.59375 97.93256 94.109375 98.58881Q93.640625 99.24506 93.078125 99.63569Q92.515625 100.01069 91.703125 100.21381Q90.90625 100.40131 89.875 100.40131L85.734375 100.40131ZM87.25 99.04194L89.703125 99.04194Q90.828125 99.04194 91.46875 98.83881Q92.125 98.62006 92.5 98.24506Q93.046875 97.69819 93.34375 96.79194Q93.640625 95.88569 93.640625 94.58881Q93.640625 92.79194 93.046875 91.82319Q92.46875 90.85444 91.625 90.52631Q91.015625 90.29194 89.65625 90.29194L87.25 90.29194L87.25 99.04194ZM97.671875 100.40131L97.671875 88.94819L101.96875 88.94819Q103.28125 88.94819 104.078125 89.29194Q104.875 89.63569 105.3125 90.37006Q105.765625 91.08881 105.765625 91.87006Q105.765625 92.60444 105.359375 93.26069Q104.96875 93.90131 104.171875 94.30756Q105.203125 94.60444 105.765625 95.33881Q106.328125 96.07319 106.328125 97.07319Q106.328125 97.88569 105.984375 98.57319Q105.640625 99.26069 105.140625 99.63569Q104.640625 100.01069 103.890625 100.21381Q103.140625 100.40131 102.046875 100.40131L97.671875 100.40131ZM99.1875 93.76069L101.671875 93.76069Q102.671875 93.76069 103.109375 93.62006Q103.6875 93.44819 103.984375 93.05756Q104.28125 92.65131 104.28125 92.05756Q104.28125 91.47944 104.0 91.05756Q103.734375 90.62006 103.21875 90.46381Q102.71875 90.29194 101.484375 90.29194L99.1875 90.29194L99.1875 93.76069ZM99.1875 99.04194L102.046875 99.04194Q102.78125 99.04194 103.078125 98.99506Q103.59375 98.90131 103.9375 98.68256Q104.296875 98.46381 104.515625 98.04194Q104.75 97.62006 104.75 97.07319Q104.75 96.43256 104.421875 95.96381Q104.09375 95.49506 103.515625 95.30756Q102.9375 95.10444 101.84375 95.10444L99.1875 95.10444L99.1875 99.04194ZM108.6875 100.40131L108.6875 88.94819L110.96875 88.94819L113.6875 97.05756Q114.0625 98.18256 114.234375 98.74506Q114.421875 98.12006 114.84375 96.91694L117.578125 88.94819L119.625 88.94819L119.625 100.40131L118.15625 100.40131L118.15625 90.80756L114.828125 100.40131L113.46875 100.40131L110.15625 90.65131L110.15625 100.40131L108.6875 100.40131Z" fill-rule="nonzero"/><path fill="#000000" d="M53.21875 137.55042L54.65625 137.42542Q54.75 138.28479 55.125 138.84729Q55.5 139.39417 56.28125 139.73792Q57.0625 140.06604 58.03125 140.06604Q58.90625 140.06604 59.5625 139.81604Q60.234375 139.55042 60.546875 139.11292Q60.875 138.65979 60.875 138.12854Q60.875 137.58167 60.5625 137.19104Q60.25 136.78479 59.53125 136.50354Q59.078125 136.33167 57.5 135.95667Q55.921875 135.56604 55.28125 135.23792Q54.46875 134.80042 54.0625 134.17542Q53.65625 133.53479 53.65625 132.73792Q53.65625 131.87854 54.140625 131.12854Q54.640625 130.36292 55.578125 129.97229Q56.53125 129.58167 57.6875 129.58167Q58.96875 129.58167 59.9375 130.00354Q60.90625 130.40979 61.421875 131.20667Q61.953125 132.00354 62.0 133.00354L60.546875 133.11292Q60.421875 132.03479 59.75 131.48792Q59.078125 130.92542 57.75 130.92542Q56.375 130.92542 55.75 131.42542Q55.125 131.92542 55.125 132.64417Q55.125 133.25354 55.5625 133.65979Q56.0 134.05042 57.84375 134.47229Q59.703125 134.89417 60.390625 135.20667Q61.390625 135.65979 61.859375 136.37854Q62.34375 137.08167 62.34375 138.00354Q62.34375 138.90979 61.8125 139.72229Q61.296875 140.53479 60.3125 140.98792Q59.328125 141.44104 58.109375 141.44104Q56.546875 141.44104 55.5 140.98792Q54.453125 140.51917 53.84375 139.61292Q53.25 138.70667 53.21875 137.55042ZM64.5625 141.23792L64.5625 129.78479L65.96875 129.78479L65.96875 136.31604L69.296875 132.94104L71.125 132.94104L67.953125 136.01917L71.4375 141.23792L69.703125 141.23792L66.96875 136.98792L65.96875 137.94104L65.96875 141.23792L64.5625 141.23792ZM72.5625 131.39417L72.5625 129.78479L73.96875 129.78479L73.96875 131.39417L72.5625 131.39417ZM72.5625 141.23792L72.5625 132.94104L73.96875 132.94104L73.96875 141.23792L72.5625 141.23792ZM76.5625 144.42542L76.5625 132.94104L77.84375 132.94104L77.84375 134.01917Q78.296875 133.37854 78.859375 133.06604Q79.4375 132.75354 80.25 132.75354Q81.3125 132.75354 82.125 133.30042Q82.9375 133.84729 83.34375 134.84729Q83.765625 135.83167 83.765625 137.01917Q83.765625 138.30042 83.296875 139.31604Q82.84375 140.33167 81.96875 140.87854Q81.109375 141.42542 80.140625 141.42542Q79.4375 141.42542 78.875 141.12854Q78.328125 140.83167 77.96875 140.37854L77.96875 144.42542L76.5625 144.42542ZM77.828125 137.12854Q77.828125 138.73792 78.46875 139.50354Q79.125 140.26917 80.046875 140.26917Q80.984375 140.26917 81.65625 139.47229Q82.328125 138.67542 82.328125 137.01917Q82.328125 135.42542 81.671875 134.64417Q81.015625 133.84729 80.109375 133.84729Q79.21875 133.84729 78.515625 134.69104Q77.828125 135.53479 77.828125 137.12854ZM85.734375 141.23792L85.734375 129.78479L89.6875 129.78479Q91.015625 129.78479 91.71875 129.94104Q92.703125 130.17542 93.40625 130.76917Q94.3125 131.53479 94.75 132.72229Q95.203125 133.90979 95.203125 135.44104Q95.203125 136.75354 94.890625 137.76917Q94.59375 138.76917 94.109375 139.42542Q93.640625 140.08167 93.078125 140.47229Q92.515625 140.84729 91.703125 141.05042Q90.90625 141.23792 89.875 141.23792L85.734375 141.23792ZM87.25 139.87854L89.703125 139.87854Q90.828125 139.87854 91.46875 139.67542Q92.125 139.45667 92.5 139.08167Q93.046875 138.53479 93.34375 137.62854Q93.640625 136.72229 93.640625 135.42542Q93.640625 133.62854 93.046875 132.65979Q92.46875 131.69104 91.625 131.36292Q91.015625 131.12854 89.65625 131.12854L87.25 131.12854L87.25 139.87854ZM97.671875 141.23792L97.671875 129.78479L101.96875 129.78479Q103.28125 129.78479 104.078125 130.12854Q104.875 130.47229 105.3125 131.20667Q105.765625 131.92542 105.765625 132.70667Q105.765625 133.44104 105.359375 134.09729Q104.96875 134.73792 104.171875 135.14417Q105.203125 135.44104 105.765625 136.17542Q106.328125 136.90979 106.328125 137.90979Q106.328125 138.72229 105.984375 139.40979Q105.640625 140.09729 105.140625 140.47229Q104.640625 140.84729 103.890625 141.05042Q103.140625 141.23792 102.046875 141.23792L97.671875 141.23792ZM99.1875 134.59729L101.671875 134.59729Q102.671875 134.59729 103.109375 134.45667Q103.6875 134.28479 103.984375 133.89417Q104.28125 133.48792 104.28125 132.89417Q104.28125 132.31604 104.0 131.89417Q103.734375 131.45667 103.21875 131.30042Q102.71875 131.12854 101.484375 131.12854L99.1875 131.12854L99.1875 134.59729ZM99.1875 139.87854L102.046875 139.87854Q102.78125 139.87854 103.078125 139.83167Q103.59375 139.73792 103.9375 139.51917Q104.296875 139.30042 104.515625 138.87854Q104.75 138.45667 104.75 137.90979Q104.75 137.26917 104.421875 136.80042Q104.09375 136.33167 103.515625 136.14417Q102.9375 135.94104 101.84375 135.94104L99.1875 135.94104L99.1875 139.87854ZM108.6875 141.23792L108.6875 129.78479L110.96875 129.78479L113.6875 137.89417Q114.0625 139.01917 114.234375 139.58167Q114.421875 138.95667 114.84375 137.75354L117.578125 129.78479L119.625 129.78479L119.625 141.23792L118.15625 141.23792L118.15625 131.64417L114.828125 141.23792L113.46875 141.23792L110.15625 131.48792L110.15625 141.23792L108.6875 141.23792Z" fill-rule="nonzero"/><path fill="#000000" d="M60.65625 182.07452L60.65625 171.96515L56.875 171.96515L56.875 170.6214L65.953125 170.6214L65.953125 171.96515L62.171875 171.96515L62.171875 182.07452L60.65625 182.07452ZM66.5625 172.23077L66.5625 170.6214L67.96875 170.6214L67.96875 172.23077L66.5625 172.23077ZM66.5625 182.07452L66.5625 173.77765L67.96875 173.77765L67.96875 182.07452L66.5625 182.07452ZM70.5625 182.07452L70.5625 173.77765L71.828125 173.77765L71.828125 174.94952Q72.734375 173.59015 74.46875 173.59015Q75.21875 173.59015 75.84375 173.85577Q76.46875 174.1214 76.78125 174.5589Q77.09375 174.9964 77.21875 175.60577Q77.296875 175.9964 77.296875 176.96515L77.296875 182.07452L75.890625 182.07452L75.890625 177.02765Q75.890625 176.16827 75.71875 175.7464Q75.5625 175.3089 75.140625 175.0589Q74.734375 174.8089 74.171875 174.8089Q73.265625 174.8089 72.609375 175.38702Q71.96875 175.94952 71.96875 177.54327L71.96875 182.07452L70.5625 182.07452ZM78.5 185.27765L78.34375 183.94952Q78.796875 184.07452 79.140625 184.07452Q79.609375 184.07452 79.890625 183.91827Q80.171875 183.76202 80.359375 183.48077Q80.484375 183.27765 80.78125 182.4339Q80.828125 182.32452 80.90625 182.09015L77.765625 173.77765L79.28125 173.77765L81.0 178.57452Q81.34375 179.4964 81.609375 180.4964Q81.84375 179.52765 82.1875 178.60577L83.953125 173.77765L85.359375 173.77765L82.203125 182.21515Q81.703125 183.59015 81.421875 184.10577Q81.046875 184.79327 80.5625 185.1214Q80.078125 185.44952 79.40625 185.44952Q79.0 185.44952 78.5 185.27765ZM85.734375 182.07452L85.734375 170.6214L89.6875 170.6214Q91.015625 170.6214 91.71875 170.77765Q92.703125 171.01202 93.40625 171.60577Q94.3125 172.3714 94.75 173.5589Q95.203125 174.7464 95.203125 176.27765Q95.203125 177.59015 94.890625 178.60577Q94.59375 179.60577 94.109375 180.26202Q93.640625 180.91827 93.078125 181.3089Q92.515625 181.6839 91.703125 181.88702Q90.90625 182.07452 89.875 182.07452L85.734375 182.07452ZM87.25 180.71515L89.703125 180.71515Q90.828125 180.71515 91.46875 180.51202Q92.125 180.29327 92.5 179.91827Q93.046875 179.3714 93.34375 178.46515Q93.640625 177.5589 93.640625 176.26202Q93.640625 174.46515 93.046875 173.4964Q92.46875 172.52765 91.625 172.19952Q91.015625 171.96515 89.65625 171.96515L87.25 171.96515L87.25 180.71515ZM97.671875 182.07452L97.671875 170.6214L101.96875 170.6214Q103.28125 170.6214 104.078125 170.96515Q104.875 171.3089 105.3125 172.04327Q105.765625 172.76202 105.765625 173.54327Q105.765625 174.27765 105.359375 174.9339Q104.96875 175.57452 104.171875 175.98077Q105.203125 176.27765 105.765625 177.01202Q106.328125 177.7464 106.328125 178.7464Q106.328125 179.5589 105.984375 180.2464Q105.640625 180.9339 105.140625 181.3089Q104.640625 181.6839 103.890625 181.88702Q103.140625 182.07452 102.046875 182.07452L97.671875 182.07452ZM99.1875 175.4339L101.671875 175.4339Q102.671875 175.4339 103.109375 175.29327Q103.6875 175.1214 103.984375 174.73077Q104.28125 174.32452 104.28125 173.73077Q104.28125 173.15265 104.0 172.73077Q103.734375 172.29327 103.21875 172.13702Q102.71875 171.96515 101.484375 171.96515L99.1875 171.96515L99.1875 175.4339ZM99.1875 180.71515L102.046875 180.71515Q102.78125 180.71515 103.078125 180.66827Q103.59375 180.57452 103.9375 180.35577Q104.296875 180.13702 104.515625 179.71515Q104.75 179.29327 104.75 178.7464Q104.75 178.10577 104.421875 177.63702Q104.09375 177.16827 103.515625 176.98077Q102.9375 176.77765 101.84375 176.77765L99.1875 176.77765L99.1875 180.71515ZM108.6875 182.07452L108.6875 170.6214L110.96875 170.6214L113.6875 178.73077Q114.0625 179.85577 114.234375 180.41827Q114.421875 179.79327 114.84375 178.59015L117.578125 170.6214L119.625 170.6214L119.625 182.07452L118.15625 182.07452L118.15625 172.48077L114.828125 182.07452L113.46875 182.07452L110.15625 172.32452L110.15625 182.07452L108.6875 182.07452Z" fill-rule="nonzero"/><path fill="#000000" d="M49.671875 222.91113L49.671875 211.45801L53.96875 211.45801Q55.28125 211.45801 56.078125 211.80176Q56.875 212.14551 57.3125 212.87988Q57.765625 213.59863 57.765625 214.37988Q57.765625 215.11426 57.359375 215.77051Q56.96875 216.41113 56.171875 216.81738Q57.203125 217.11426 57.765625 217.84863Q58.328125 218.58301 58.328125 219.58301Q58.328125 220.39551 57.984375 221.08301Q57.640625 221.77051 57.140625 222.14551Q56.640625 222.52051 55.890625 222.72363Q55.140625 222.91113 54.046875 222.91113L49.671875 222.91113ZM51.1875 216.27051L53.671875 216.27051Q54.671875 216.27051 55.109375 216.12988Q55.6875 215.95801 55.984375 215.56738Q56.28125 215.16113 56.28125 214.56738Q56.28125 213.98926 56.0 213.56738Q55.734375 213.12988 55.21875 212.97363Q54.71875 212.80176 53.484375 212.80176L51.1875 212.80176L51.1875 216.27051ZM51.1875 221.55176L54.046875 221.55176Q54.78125 221.55176 55.078125 221.50488Q55.59375 221.41113 55.9375 221.19238Q56.296875 220.97363 56.515625 220.55176Q56.75 220.12988 56.75 219.58301Q56.75 218.94238 56.421875 218.47363Q56.09375 218.00488 55.515625 217.81738Q54.9375 217.61426 53.84375 217.61426L51.1875 217.61426L51.1875 221.55176ZM65.96875 221.87988Q65.1875 222.55176 64.46875 222.83301Q63.75 223.09863 62.921875 223.09863Q61.546875 223.09863 60.8125 222.42676Q60.078125 221.75488 60.078125 220.72363Q60.078125 220.11426 60.359375 219.61426Q60.640625 219.09863 61.078125 218.80176Q61.53125 218.48926 62.09375 218.33301Q62.515625 218.22363 63.34375 218.12988Q65.046875 217.92676 65.859375 217.64551Q65.859375 217.34863 65.859375 217.27051Q65.859375 216.41113 65.46875 216.06738Q64.921875 215.58301 63.859375 215.58301Q62.875 215.58301 62.390625 215.94238Q61.921875 216.28613 61.703125 217.16113L60.328125 216.97363Q60.515625 216.09863 60.9375 215.55176Q61.375 215.00488 62.1875 214.72363Q63.0 214.42676 64.0625 214.42676Q65.125 214.42676 65.78125 214.67676Q66.453125 214.92676 66.765625 215.30176Q67.078125 215.67676 67.203125 216.25488Q67.28125 216.61426 67.28125 217.55176L67.28125 219.42676Q67.28125 221.39551 67.359375 221.91113Q67.453125 222.42676 67.71875 222.91113L66.25 222.91113Q66.03125 222.47363 65.96875 221.87988ZM65.859375 218.73926Q65.09375 219.05176 63.5625 219.27051Q62.6875 219.39551 62.328125 219.55176Q61.96875 219.70801 61.765625 220.02051Q61.578125 220.31738 61.578125 220.67676Q61.578125 221.23926 62.0 221.61426Q62.4375 221.98926 63.25 221.98926Q64.0625 221.98926 64.6875 221.64551Q65.328125 221.28613 65.625 220.66113Q65.859375 220.19238 65.859375 219.25488L65.859375 218.73926ZM70.859375 222.91113L69.546875 222.91113L69.546875 211.45801L70.953125 211.45801L70.953125 215.53613Q71.84375 214.42676 73.234375 214.42676Q74.0 214.42676 74.671875 214.73926Q75.359375 215.03613 75.796875 215.59863Q76.25 216.16113 76.5 216.95801Q76.75 217.73926 76.75 218.62988Q76.75 220.77051 75.6875 221.94238Q74.640625 223.09863 73.15625 223.09863Q71.6875 223.09863 70.859375 221.86426L70.859375 222.91113ZM70.84375 218.69238Q70.84375 220.19238 71.25 220.84863Q71.90625 221.94238 73.046875 221.94238Q73.96875 221.94238 74.640625 221.14551Q75.3125 220.33301 75.3125 218.75488Q75.3125 217.12988 74.65625 216.36426Q74.015625 215.58301 73.109375 215.58301Q72.1875 215.58301 71.515625 216.37988Q70.84375 217.17676 70.84375 218.69238ZM78.5 226.11426L78.34375 224.78613Q78.796875 224.91113 79.140625 224.91113Q79.609375 224.91113 79.890625 224.75488Q80.171875 224.59863 80.359375 224.31738Q80.484375 224.11426 80.78125 223.27051Q80.828125 223.16113 80.90625 222.92676L77.765625 214.61426L79.28125 214.61426L81.0 219.41113Q81.34375 220.33301 81.609375 221.33301Q81.84375 220.36426 82.1875 219.44238L83.953125 214.61426L85.359375 214.61426L82.203125 223.05176Q81.703125 224.42676 81.421875 224.94238Q81.046875 225.62988 80.5625 225.95801Q80.078125 226.28613 79.40625 226.28613Q79.0 226.28613 78.5 226.11426ZM85.734375 222.91113L85.734375 211.45801L89.6875 211.45801Q91.015625 211.45801 91.71875 211.61426Q92.703125 211.84863 93.40625 212.44238Q94.3125 213.20801 94.75 214.39551Q95.203125 215.58301 95.203125 217.11426Q95.203125 218.42676 94.890625 219.44238Q94.59375 220.44238 94.109375 221.09863Q93.640625 221.75488 93.078125 222.14551Q92.515625 222.52051 91.703125 222.72363Q90.90625 222.91113 89.875 222.91113L85.734375 222.91113ZM87.25 221.55176L89.703125 221.55176Q90.828125 221.55176 91.46875 221.34863Q92.125 221.12988 92.5 220.75488Q93.046875 220.20801 93.34375 219.30176Q93.640625 218.39551 93.640625 217.09863Q93.640625 215.30176 93.046875 214.33301Q92.46875 213.36426 91.625 213.03613Q91.015625 212.80176 89.65625 212.80176L87.25 212.80176L87.25 221.55176ZM97.671875 222.91113L97.671875 211.45801L101.96875 211.45801Q103.28125 211.45801 104.078125 211.80176Q104.875 212.14551 105.3125 212.87988Q105.765625 213.59863 105.765625 214.37988Q105.765625 215.11426 105.359375 215.77051Q104.96875 216.41113 104.171875 216.81738Q105.203125 217.11426 105.765625 217.84863Q106.328125 218.58301 106.328125 219.58301Q106.328125 220.39551 105.984375 221.08301Q105.640625 221.77051 105.140625 222.14551Q104.640625 222.52051 103.890625 222.72363Q103.140625 222.91113 102.046875 222.91113L97.671875 222.91113ZM99.1875 216.27051L101.671875 216.27051Q102.671875 216.27051 103.109375 216.12988Q103.6875 215.95801 103.984375 215.56738Q104.28125 215.16113 104.28125 214.56738Q104.28125 213.98926 104.0 213.56738Q103.734375 213.12988 103.21875 212.97363Q102.71875 212.80176 101.484375 212.80176L99.1875 212.80176L99.1875 216.27051ZM99.1875 221.55176L102.046875 221.55176Q102.78125 221.55176 103.078125 221.50488Q103.59375 221.41113 103.9375 221.19238Q104.296875 220.97363 104.515625 220.55176Q104.75 220.12988 104.75 219.58301Q104.75 218.94238 104.421875 218.47363Q104.09375 218.00488 103.515625 217.81738Q102.9375 217.61426 101.84375 217.61426L99.1875 217.61426L99.1875 221.55176ZM108.6875 222.91113L108.6875 211.45801L110.96875 211.45801L113.6875 219.56738Q114.0625 220.69238 114.234375 221.25488Q114.421875 220.62988 114.84375 219.42676L117.578125 211.45801L119.625 211.45801L119.625 222.91113L118.15625 222.91113L118.15625 213.31738L114.828125 222.91113L113.46875 222.91113L110.15625 213.16113L110.15625 222.91113L108.6875 222.91113Z" fill-rule="nonzero"/><path fill="#000000" d="M47.90625 259.73212L49.421875 260.10712Q48.953125 261.98212 47.703125 262.9665Q46.46875 263.95087 44.6875 263.95087Q42.828125 263.95087 41.671875 263.20087Q40.515625 262.43524 39.90625 261.01337Q39.296875 259.57587 39.296875 257.93524Q39.296875 256.13837 39.984375 254.81024Q40.671875 253.48212 41.921875 252.79462Q43.1875 252.09149 44.703125 252.09149Q46.421875 252.09149 47.59375 252.96649Q48.765625 253.84149 49.234375 255.43524L47.734375 255.77899Q47.34375 254.52899 46.578125 253.96649Q45.828125 253.38837 44.671875 253.38837Q43.359375 253.38837 42.46875 254.02899Q41.578125 254.65399 41.21875 255.73212Q40.859375 256.79462 40.859375 257.91962Q40.859375 259.38837 41.28125 260.48212Q41.71875 261.56024 42.609375 262.10712Q43.515625 262.63837 44.5625 262.63837Q45.828125 262.63837 46.703125 261.904Q47.59375 261.16962 47.90625 259.73212ZM56.96875 262.7165Q56.1875 263.38837 55.46875 263.66962Q54.75 263.93524 53.921875 263.93524Q52.546875 263.93524 51.8125 263.26337Q51.078125 262.5915 51.078125 261.56024Q51.078125 260.95087 51.359375 260.45087Q51.640625 259.93524 52.078125 259.63837Q52.53125 259.32587 53.09375 259.16962Q53.515625 259.06024 54.34375 258.9665Q56.046875 258.76337 56.859375 258.48212Q56.859375 258.18524 56.859375 258.10712Q56.859375 257.24774 56.46875 256.904Q55.921875 256.41962 54.859375 256.41962Q53.875 256.41962 53.390625 256.779Q52.921875 257.12274 52.703125 257.99774L51.328125 257.81024Q51.515625 256.93524 51.9375 256.38837Q52.375 255.84149 53.1875 255.56024Q54.0 255.26337 55.0625 255.26337Q56.125 255.26337 56.78125 255.51337Q57.453125 255.76337 57.765625 256.13837Q58.078125 256.51337 58.203125 257.0915Q58.28125 257.45087 58.28125 258.38837L58.28125 260.26337Q58.28125 262.23212 58.359375 262.74774Q58.453125 263.26337 58.71875 263.74774L57.25 263.74774Q57.03125 263.31024 56.96875 262.7165ZM56.859375 259.57587Q56.09375 259.88837 54.5625 260.10712Q53.6875 260.23212 53.328125 260.38837Q52.96875 260.54462 52.765625 260.85712Q52.578125 261.154 52.578125 261.51337Q52.578125 262.07587 53.0 262.45087Q53.4375 262.82587 54.25 262.82587Q55.0625 262.82587 55.6875 262.48212Q56.328125 262.12274 56.625 261.49774Q56.859375 261.029 56.859375 260.0915L56.859375 259.57587ZM65.96875 260.70087L67.359375 260.88837Q67.125 262.31024 66.1875 263.12274Q65.265625 263.93524 63.90625 263.93524Q62.203125 263.93524 61.15625 262.82587Q60.125 261.70087 60.125 259.62274Q60.125 258.279 60.5625 257.279Q61.015625 256.26337 61.921875 255.76337Q62.84375 255.26337 63.90625 255.26337Q65.265625 255.26337 66.125 255.95087Q66.984375 256.62274 67.21875 257.88837L65.859375 258.0915Q65.65625 257.26337 65.15625 256.8415Q64.671875 256.41962 63.96875 256.41962Q62.90625 256.41962 62.234375 257.18524Q61.578125 257.93524 61.578125 259.5915Q61.578125 261.26337 62.21875 262.029Q62.859375 262.779 63.890625 262.779Q64.71875 262.779 65.265625 262.279Q65.828125 261.76337 65.96875 260.70087ZM68.5625 263.74774L68.5625 252.29462L69.96875 252.29462L69.96875 256.404Q70.953125 255.26337 72.453125 255.26337Q73.375 255.26337 74.046875 255.62274Q74.734375 255.98212 75.015625 256.62274Q75.3125 257.26337 75.3125 258.48212L75.3125 263.74774L73.90625 263.74774L73.90625 258.48212Q73.90625 257.43524 73.453125 256.95087Q73.0 256.4665 72.15625 256.4665Q71.53125 256.4665 70.984375 256.79462Q70.4375 257.12274 70.203125 257.68524Q69.96875 258.23212 69.96875 259.20087L69.96875 263.74774L68.5625 263.74774ZM82.234375 261.07587L83.6875 261.24774Q83.34375 262.529 82.40625 263.23212Q81.484375 263.93524 80.046875 263.93524Q78.21875 263.93524 77.15625 262.81024Q76.09375 261.68524 76.09375 259.66962Q76.09375 257.57587 77.171875 256.41962Q78.25 255.26337 79.96875 255.26337Q81.625 255.26337 82.671875 256.404Q83.734375 257.529 83.734375 259.57587Q83.734375 259.70087 83.734375 259.95087L77.546875 259.95087Q77.625 261.32587 78.3125 262.06024Q79.015625 262.779 80.046875 262.779Q80.828125 262.779 81.375 262.37274Q81.921875 261.9665 82.234375 261.07587ZM77.625 258.79462L82.25 258.79462Q82.15625 257.74774 81.71875 257.23212Q81.046875 256.41962 79.984375 256.41962Q79.015625 256.41962 78.34375 257.07587Q77.6875 257.7165 77.625 258.79462ZM85.734375 263.74774L85.734375 252.29462L89.6875 252.29462Q91.015625 252.29462 91.71875 252.45087Q92.703125 252.68524 93.40625 253.27899Q94.3125 254.04462 94.75 255.23212Q95.203125 256.41962 95.203125 257.95087Q95.203125 259.26337 94.890625 260.279Q94.59375 261.279 94.109375 261.93524Q93.640625 262.5915 93.078125 262.98212Q92.515625 263.35712 91.703125 263.56024Q90.90625 263.74774 89.875 263.74774L85.734375 263.74774ZM87.25 262.38837L89.703125 262.38837Q90.828125 262.38837 91.46875 262.18524Q92.125 261.9665 92.5 261.5915Q93.046875 261.04462 93.34375 260.13837Q93.640625 259.23212 93.640625 257.93524Q93.640625 256.13837 93.046875 255.16962Q92.46875 254.20087 91.625 253.87274Q91.015625 253.63837 89.65625 253.63837L87.25 253.63837L87.25 262.38837ZM97.671875 263.74774L97.671875 252.29462L101.96875 252.29462Q103.28125 252.29462 104.078125 252.63837Q104.875 252.98212 105.3125 253.71649Q105.765625 254.43524 105.765625 255.21649Q105.765625 255.95087 105.359375 256.60712Q104.96875 257.24774 104.171875 257.654Q105.203125 257.95087 105.765625 258.68524Q106.328125 259.41962 106.328125 260.41962Q106.328125 261.23212 105.984375 261.91962Q105.640625 262.60712 105.140625 262.98212Q104.640625 263.35712 103.890625 263.56024Q103.140625 263.74774 102.046875 263.74774L97.671875 263.74774ZM99.1875 257.10712L101.671875 257.10712Q102.671875 257.10712 103.109375 256.9665Q103.6875 256.79462 103.984375 256.404Q104.28125 255.99774 104.28125 255.40399Q104.28125 254.82587 104.0 254.40399Q103.734375 253.96649 103.21875 253.81024Q102.71875 253.63837 101.484375 253.63837L99.1875 253.63837L99.1875 257.10712ZM99.1875 262.38837L102.046875 262.38837Q102.78125 262.38837 103.078125 262.3415Q103.59375 262.24774 103.9375 262.029Q104.296875 261.81024 104.515625 261.38837Q104.75 260.9665 104.75 260.41962Q104.75 259.779 104.421875 259.31024Q104.09375 258.8415 103.515625 258.654Q102.9375 258.45087 101.84375 258.45087L99.1875 258.45087L99.1875 262.38837ZM108.6875 263.74774L108.6875 252.29462L110.96875 252.29462L113.6875 260.404Q114.0625 261.529 114.234375 262.0915Q114.421875 261.4665 114.84375 260.26337L117.578125 252.29462L119.625 252.29462L119.625 263.74774L118.15625 263.74774L118.15625 254.15399L114.828125 263.74774L113.46875 263.74774L110.15625 253.99774L110.15625 263.74774L108.6875 263.74774Z" fill-rule="nonzero"/><path fill="#000000" d="M25.21875 300.89685L26.65625 300.77185Q26.75 301.63123 27.125 302.19373Q27.5 302.7406 28.28125 303.08435Q29.0625 303.41248 30.03125 303.41248Q30.90625 303.41248 31.5625 303.16248Q32.234375 302.89685 32.546875 302.45935Q32.875 302.00623 32.875 301.47498Q32.875 300.9281 32.5625 300.53748Q32.25 300.13123 31.53125 299.84998Q31.078125 299.6781 29.5 299.3031Q27.921875 298.91248 27.28125 298.58435Q26.46875 298.14685 26.0625 297.52185Q25.65625 296.88123 25.65625 296.08435Q25.65625 295.22498 26.140625 294.47498Q26.640625 293.70935 27.578125 293.31873Q28.53125 292.9281 29.6875 292.9281Q30.96875 292.9281 31.9375 293.34998Q32.90625 293.75623 33.421875 294.5531Q33.953125 295.34998 34.0 296.34998L32.546875 296.45935Q32.421875 295.38123 31.75 294.83435Q31.078125 294.27185 29.75 294.27185Q28.375 294.27185 27.75 294.77185Q27.125 295.27185 27.125 295.9906Q27.125 296.59998 27.5625 297.00623Q28.0 297.39685 29.84375 297.81873Q31.703125 298.2406 32.390625 298.5531Q33.390625 299.00623 33.859375 299.72498Q34.34375 300.4281 34.34375 301.34998Q34.34375 302.25623 33.8125 303.06873Q33.296875 303.88123 32.3125 304.33435Q31.328125 304.78748 30.109375 304.78748Q28.546875 304.78748 27.5 304.33435Q26.453125 303.8656 25.84375 302.95935Q25.25 302.0531 25.21875 300.89685ZM39.625 303.31873L39.828125 304.56873Q39.234375 304.69373 38.765625 304.69373Q38.0 304.69373 37.578125 304.45935Q37.15625 304.20935 36.984375 303.81873Q36.8125 303.41248 36.8125 302.14685L36.8125 297.38123L35.78125 297.38123L35.78125 296.28748L36.8125 296.28748L36.8125 294.22498L38.21875 293.38123L38.21875 296.28748L39.625 296.28748L39.625 297.38123L38.21875 297.38123L38.21875 302.22498Q38.21875 302.83435 38.28125 303.00623Q38.359375 303.1781 38.53125 303.28748Q38.703125 303.38123 39.015625 303.38123Q39.25 303.38123 39.625 303.31873ZM45.9375 304.58435L45.9375 303.53748Q45.15625 304.77185 43.625 304.77185Q42.625 304.77185 41.796875 304.22498Q40.96875 303.6781 40.5 302.69373Q40.046875 301.70935 40.046875 300.44373Q40.046875 299.19373 40.453125 298.19373Q40.875 297.1781 41.703125 296.64685Q42.53125 296.09998 43.5625 296.09998Q44.3125 296.09998 44.890625 296.41248Q45.484375 296.72498 45.84375 297.2406L45.84375 293.13123L47.25 293.13123L47.25 304.58435L45.9375 304.58435ZM41.5 300.44373Q41.5 302.03748 42.171875 302.83435Q42.84375 303.6156 43.75 303.6156Q44.671875 303.6156 45.3125 302.8656Q45.96875 302.09998 45.96875 300.5531Q45.96875 298.84998 45.3125 298.0531Q44.65625 297.25623 43.6875 297.25623Q42.75 297.25623 42.125 298.02185Q41.5 298.78748 41.5 300.44373ZM49.78125 304.58435L49.78125 293.13123L51.296875 293.13123L51.296875 297.83435L57.25 297.83435L57.25 293.13123L58.765625 293.13123L58.765625 304.58435L57.25 304.58435L57.25 299.1781L51.296875 299.1781L51.296875 304.58435L49.78125 304.58435ZM65.96875 303.5531Q65.1875 304.22498 64.46875 304.50623Q63.75 304.77185 62.921875 304.77185Q61.546875 304.77185 60.8125 304.09998Q60.078125 303.4281 60.078125 302.39685Q60.078125 301.78748 60.359375 301.28748Q60.640625 300.77185 61.078125 300.47498Q61.53125 300.16248 62.09375 300.00623Q62.515625 299.89685 63.34375 299.8031Q65.046875 299.59998 65.859375 299.31873Q65.859375 299.02185 65.859375 298.94373Q65.859375 298.08435 65.46875 297.7406Q64.921875 297.25623 63.859375 297.25623Q62.875 297.25623 62.390625 297.6156Q61.921875 297.95935 61.703125 298.83435L60.328125 298.64685Q60.515625 297.77185 60.9375 297.22498Q61.375 296.6781 62.1875 296.39685Q63.0 296.09998 64.0625 296.09998Q65.125 296.09998 65.78125 296.34998Q66.453125 296.59998 66.765625 296.97498Q67.078125 297.34998 67.203125 297.9281Q67.28125 298.28748 67.28125 299.22498L67.28125 301.09998Q67.28125 303.06873 67.359375 303.58435Q67.453125 304.09998 67.71875 304.58435L66.25 304.58435Q66.03125 304.14685 65.96875 303.5531ZM65.859375 300.41248Q65.09375 300.72498 63.5625 300.94373Q62.6875 301.06873 62.328125 301.22498Q61.96875 301.38123 61.765625 301.69373Q61.578125 301.9906 61.578125 302.34998Q61.578125 302.91248 62.0 303.28748Q62.4375 303.66248 63.25 303.66248Q64.0625 303.66248 64.6875 303.31873Q65.328125 302.95935 65.625 302.33435Q65.859375 301.8656 65.859375 300.9281L65.859375 300.41248ZM69.0 302.09998L70.390625 301.88123Q70.5 302.72498 71.03125 303.1781Q71.578125 303.6156 72.53125 303.6156Q73.5 303.6156 73.96875 303.22498Q74.4375 302.81873 74.4375 302.28748Q74.4375 301.81873 74.03125 301.53748Q73.734375 301.34998 72.59375 301.06873Q71.046875 300.6781 70.4375 300.39685Q69.84375 300.09998 69.53125 299.59998Q69.234375 299.09998 69.234375 298.4906Q69.234375 297.9281 69.484375 297.45935Q69.734375 296.9906 70.171875 296.6781Q70.5 296.4281 71.0625 296.27185Q71.640625 296.09998 72.28125 296.09998Q73.265625 296.09998 74.0 296.38123Q74.734375 296.66248 75.078125 297.14685Q75.4375 297.6156 75.578125 298.4281L74.203125 298.6156Q74.109375 297.97498 73.65625 297.6156Q73.203125 297.25623 72.390625 297.25623Q71.421875 297.25623 71.0 297.58435Q70.59375 297.89685 70.59375 298.31873Q70.59375 298.59998 70.765625 298.81873Q70.9375 299.03748 71.296875 299.19373Q71.515625 299.27185 72.546875 299.5531Q74.03125 299.94373 74.625 300.20935Q75.21875 300.45935 75.546875 300.94373Q75.890625 301.4281 75.890625 302.14685Q75.890625 302.84998 75.46875 303.47498Q75.0625 304.08435 74.28125 304.4281Q73.515625 304.77185 72.546875 304.77185Q70.921875 304.77185 70.078125 304.09998Q69.234375 303.4281 69.0 302.09998ZM77.5625 304.58435L77.5625 293.13123L78.96875 293.13123L78.96875 297.2406Q79.953125 296.09998 81.453125 296.09998Q82.375 296.09998 83.046875 296.45935Q83.734375 296.81873 84.015625 297.45935Q84.3125 298.09998 84.3125 299.31873L84.3125 304.58435L82.90625 304.58435L82.90625 299.31873Q82.90625 298.27185 82.453125 297.78748Q82.0 297.3031 81.15625 297.3031Q80.53125 297.3031 79.984375 297.63123Q79.4375 297.95935 79.203125 298.52185Q78.96875 299.06873 78.96875 300.03748L78.96875 304.58435L77.5625 304.58435ZM85.734375 304.58435L85.734375 293.13123L89.6875 293.13123Q91.015625 293.13123 91.71875 293.28748Q92.703125 293.52185 93.40625 294.1156Q94.3125 294.88123 94.75 296.06873Q95.203125 297.25623 95.203125 298.78748Q95.203125 300.09998 94.890625 301.1156Q94.59375 302.1156 94.109375 302.77185Q93.640625 303.4281 93.078125 303.81873Q92.515625 304.19373 91.703125 304.39685Q90.90625 304.58435 89.875 304.58435L85.734375 304.58435ZM87.25 303.22498L89.703125 303.22498Q90.828125 303.22498 91.46875 303.02185Q92.125 302.8031 92.5 302.4281Q93.046875 301.88123 93.34375 300.97498Q93.640625 300.06873 93.640625 298.77185Q93.640625 296.97498 93.046875 296.00623Q92.46875 295.03748 91.625 294.70935Q91.015625 294.47498 89.65625 294.47498L87.25 294.47498L87.25 303.22498ZM97.671875 304.58435L97.671875 293.13123L101.96875 293.13123Q103.28125 293.13123 104.078125 293.47498Q104.875 293.81873 105.3125 294.5531Q105.765625 295.27185 105.765625 296.0531Q105.765625 296.78748 105.359375 297.44373Q104.96875 298.08435 104.171875 298.4906Q105.203125 298.78748 105.765625 299.52185Q106.328125 300.25623 106.328125 301.25623Q106.328125 302.06873 105.984375 302.75623Q105.640625 303.44373 105.140625 303.81873Q104.640625 304.19373 103.890625 304.39685Q103.140625 304.58435 102.046875 304.58435L97.671875 304.58435ZM99.1875 297.94373L101.671875 297.94373Q102.671875 297.94373 103.109375 297.8031Q103.6875 297.63123 103.984375 297.2406Q104.28125 296.83435 104.28125 296.2406Q104.28125 295.66248 104.0 295.2406Q103.734375 294.8031 103.21875 294.64685Q102.71875 294.47498 101.484375 294.47498L99.1875 294.47498L99.1875 297.94373ZM99.1875 303.22498L102.046875 303.22498Q102.78125 303.22498 103.078125 303.1781Q103.59375 303.08435 103.9375 302.8656Q104.296875 302.64685 104.515625 302.22498Q104.75 301.8031 104.75 301.25623Q104.75 300.6156 104.421875 300.14685Q104.09375 299.6781 103.515625 299.4906Q102.9375 299.28748 101.84375 299.28748L99.1875 299.28748L99.1875 303.22498ZM108.6875 304.58435L108.6875 293.13123L110.96875 293.13123L113.6875 301.2406Q114.0625 302.3656 114.234375 302.9281Q114.421875 302.3031 114.84375 301.09998L117.578125 293.13123L119.625 293.13123L119.625 304.58435L118.15625 304.58435L118.15625 294.9906L114.828125 304.58435L113.46875 304.58435L110.15625 294.83435L110.15625 304.58435L108.6875 304.58435Z" fill-rule="nonzero"/><path fill="#000000" d="M29.21875 341.73346L30.65625 341.60846Q30.75 342.46783 31.125 343.03033Q31.5 343.5772 32.28125 343.92096Q33.0625 344.24908 34.03125 344.24908Q34.90625 344.24908 35.5625 343.99908Q36.234375 343.73346 36.546875 343.29596Q36.875 342.84283 36.875 342.31158Q36.875 341.7647 36.5625 341.37408Q36.25 340.96783 35.53125 340.68658Q35.078125 340.5147 33.5 340.1397Q31.921875 339.74908 31.28125 339.42096Q30.46875 338.98346 30.0625 338.35846Q29.65625 337.71783 29.65625 336.92096Q29.65625 336.06158 30.140625 335.31158Q30.640625 334.54596 31.578125 334.15533Q32.53125 333.7647 33.6875 333.7647Q34.96875 333.7647 35.9375 334.18658Q36.90625 334.59283 37.421875 335.3897Q37.953125 336.18658 38.0 337.18658L36.546875 337.29596Q36.421875 336.21783 35.75 335.67096Q35.078125 335.10846 33.75 335.10846Q32.375 335.10846 31.75 335.60846Q31.125 336.10846 31.125 336.8272Q31.125 337.43658 31.5625 337.84283Q32.0 338.23346 33.84375 338.65533Q35.703125 339.0772 36.390625 339.3897Q37.390625 339.84283 37.859375 340.56158Q38.34375 341.2647 38.34375 342.18658Q38.34375 343.09283 37.8125 343.90533Q37.296875 344.71783 36.3125 345.17096Q35.328125 345.62408 34.109375 345.62408Q32.546875 345.62408 31.5 345.17096Q30.453125 344.7022 29.84375 343.79596Q29.25 342.8897 29.21875 341.73346ZM43.625 344.15533L43.828125 345.40533Q43.234375 345.53033 42.765625 345.53033Q42.0 345.53033 41.578125 345.29596Q41.15625 345.04596 40.984375 344.65533Q40.8125 344.24908 40.8125 342.98346L40.8125 338.21783L39.78125 338.21783L39.78125 337.12408L40.8125 337.12408L40.8125 335.06158L42.21875 334.21783L42.21875 337.12408L43.625 337.12408L43.625 338.21783L42.21875 338.21783L42.21875 343.06158Q42.21875 343.67096 42.28125 343.84283Q42.359375 344.0147 42.53125 344.12408Q42.703125 344.21783 43.015625 344.21783Q43.25 344.21783 43.625 344.15533ZM49.9375 345.42096L49.9375 344.37408Q49.15625 345.60846 47.625 345.60846Q46.625 345.60846 45.796875 345.06158Q44.96875 344.5147 44.5 343.53033Q44.046875 342.54596 44.046875 341.28033Q44.046875 340.03033 44.453125 339.03033Q44.875 338.0147 45.703125 337.48346Q46.53125 336.93658 47.5625 336.93658Q48.3125 336.93658 48.890625 337.24908Q49.484375 337.56158 49.84375 338.0772L49.84375 333.96783L51.25 333.96783L51.25 345.42096L49.9375 345.42096ZM45.5 341.28033Q45.5 342.87408 46.171875 343.67096Q46.84375 344.4522 47.75 344.4522Q48.671875 344.4522 49.3125 343.7022Q49.96875 342.93658 49.96875 341.3897Q49.96875 339.68658 49.3125 338.8897Q48.65625 338.09283 47.6875 338.09283Q46.75 338.09283 46.125 338.85846Q45.5 339.62408 45.5 341.28033ZM56.65625 345.42096L56.65625 335.31158L52.875 335.31158L52.875 333.96783L61.953125 333.96783L61.953125 335.31158L58.171875 335.31158L58.171875 345.42096L56.65625 345.42096ZM62.546875 345.42096L62.546875 337.12408L63.8125 337.12408L63.8125 338.37408Q64.296875 337.49908 64.703125 337.21783Q65.109375 336.93658 65.609375 336.93658Q66.3125 336.93658 67.046875 337.3897L66.5625 338.68658Q66.046875 338.3897 65.53125 338.3897Q65.078125 338.3897 64.703125 338.67096Q64.34375 338.93658 64.1875 339.43658Q63.953125 340.18658 63.953125 341.0772L63.953125 345.42096L62.546875 345.42096ZM73.234375 342.74908L74.6875 342.92096Q74.34375 344.2022 73.40625 344.90533Q72.484375 345.60846 71.046875 345.60846Q69.21875 345.60846 68.15625 344.48346Q67.09375 343.35846 67.09375 341.34283Q67.09375 339.24908 68.171875 338.09283Q69.25 336.93658 70.96875 336.93658Q72.625 336.93658 73.671875 338.0772Q74.734375 339.2022 74.734375 341.24908Q74.734375 341.37408 74.734375 341.62408L68.546875 341.62408Q68.625 342.99908 69.3125 343.73346Q70.015625 344.4522 71.046875 344.4522Q71.828125 344.4522 72.375 344.04596Q72.921875 343.6397 73.234375 342.74908ZM68.625 340.46783L73.25 340.46783Q73.15625 339.42096 72.71875 338.90533Q72.046875 338.09283 70.984375 338.09283Q70.015625 338.09283 69.34375 338.74908Q68.6875 339.3897 68.625 340.46783ZM82.234375 342.74908L83.6875 342.92096Q83.34375 344.2022 82.40625 344.90533Q81.484375 345.60846 80.046875 345.60846Q78.21875 345.60846 77.15625 344.48346Q76.09375 343.35846 76.09375 341.34283Q76.09375 339.24908 77.171875 338.09283Q78.25 336.93658 79.96875 336.93658Q81.625 336.93658 82.671875 338.0772Q83.734375 339.2022 83.734375 341.24908Q83.734375 341.37408 83.734375 341.62408L77.546875 341.62408Q77.625 342.99908 78.3125 343.73346Q79.015625 344.4522 80.046875 344.4522Q80.828125 344.4522 81.375 344.04596Q81.921875 343.6397 82.234375 342.74908ZM77.625 340.46783L82.25 340.46783Q82.15625 339.42096 81.71875 338.90533Q81.046875 338.09283 79.984375 338.09283Q79.015625 338.09283 78.34375 338.74908Q77.6875 339.3897 77.625 340.46783ZM85.734375 345.42096L85.734375 333.96783L89.6875 333.96783Q91.015625 333.96783 91.71875 334.12408Q92.703125 334.35846 93.40625 334.9522Q94.3125 335.71783 94.75 336.90533Q95.203125 338.09283 95.203125 339.62408Q95.203125 340.93658 94.890625 341.9522Q94.59375 342.9522 94.109375 343.60846Q93.640625 344.2647 93.078125 344.65533Q92.515625 345.03033 91.703125 345.23346Q90.90625 345.42096 89.875 345.42096L85.734375 345.42096ZM87.25 344.06158L89.703125 344.06158Q90.828125 344.06158 91.46875 343.85846Q92.125 343.6397 92.5 343.2647Q93.046875 342.71783 93.34375 341.81158Q93.640625 340.90533 93.640625 339.60846Q93.640625 337.81158 93.046875 336.84283Q92.46875 335.87408 91.625 335.54596Q91.015625 335.31158 89.65625 335.31158L87.25 335.31158L87.25 344.06158ZM97.671875 345.42096L97.671875 333.96783L101.96875 333.96783Q103.28125 333.96783 104.078125 334.31158Q104.875 334.65533 105.3125 335.3897Q105.765625 336.10846 105.765625 336.8897Q105.765625 337.62408 105.359375 338.28033Q104.96875 338.92096 104.171875 339.3272Q105.203125 339.62408 105.765625 340.35846Q106.328125 341.09283 106.328125 342.09283Q106.328125 342.90533 105.984375 343.59283Q105.640625 344.28033 105.140625 344.65533Q104.640625 345.03033 103.890625 345.23346Q103.140625 345.42096 102.046875 345.42096L97.671875 345.42096ZM99.1875 338.78033L101.671875 338.78033Q102.671875 338.78033 103.109375 338.6397Q103.6875 338.46783 103.984375 338.0772Q104.28125 337.67096 104.28125 337.0772Q104.28125 336.49908 104.0 336.0772Q103.734375 335.6397 103.21875 335.48346Q102.71875 335.31158 101.484375 335.31158L99.1875 335.31158L99.1875 338.78033ZM99.1875 344.06158L102.046875 344.06158Q102.78125 344.06158 103.078125 344.0147Q103.59375 343.92096 103.9375 343.7022Q104.296875 343.48346 104.515625 343.06158Q104.75 342.6397 104.75 342.09283Q104.75 341.4522 104.421875 340.98346Q104.09375 340.5147 103.515625 340.3272Q102.9375 340.12408 101.84375 340.12408L99.1875 340.12408L99.1875 344.06158ZM108.6875 345.42096L108.6875 333.96783L110.96875 333.96783L113.6875 342.0772Q114.0625 343.2022 114.234375 343.7647Q114.421875 343.1397 114.84375 341.93658L117.578125 333.96783L119.625 333.96783L119.625 345.42096L118.15625 345.42096L118.15625 335.8272L114.828125 345.42096L113.46875 345.42096L110.15625 335.67096L110.15625 345.42096L108.6875 345.42096Z" fill-rule="nonzero"/><path fill="#000000" d="M124.671875 384.8294Q124.671875 382.79816 125.078125 381.56378Q125.5 380.3294 126.328125 379.65753Q127.15625 378.98566 128.40625 378.98566Q129.32812 378.98566 130.01562 379.36066Q130.71875 379.72003 131.17188 380.42316Q131.625 381.12628 131.875 382.12628Q132.14062 383.12628 132.14062 384.8294Q132.14062 386.84503 131.71875 388.09503Q131.3125 389.3294 130.48438 390.0169Q129.65625 390.68878 128.40625 390.68878Q126.75 390.68878 125.796875 389.48566Q124.671875 388.06378 124.671875 384.8294ZM126.109375 384.8294Q126.109375 387.65753 126.765625 388.59503Q127.4375 389.5169 128.40625 389.5169Q129.375 389.5169 130.03125 388.5794Q130.6875 387.6419 130.6875 384.8294Q130.6875 382.00128 130.03125 381.0794Q129.375 380.1419 128.39062 380.1419Q127.421875 380.1419 126.84375 380.97003Q126.109375 382.0169 126.109375 384.8294Z" fill-rule="nonzero"/><path fill="#000000" d="M288.67188 387.48566L290.14062 387.36066Q290.3125 388.43878 290.90625 388.98566Q291.5 389.5169 292.34375 389.5169Q293.35938 389.5169 294.0625 388.75128Q294.76562 387.98566 294.76562 386.72003Q294.76562 385.5169 294.09375 384.8294Q293.42188 384.12628 292.32812 384.12628Q291.64062 384.12628 291.09375 384.43878Q290.54688 384.75128 290.23438 385.23566L288.92188 385.06378L290.03125 379.18878L295.71875 379.18878L295.71875 380.53253L291.15625 380.53253L290.53125 383.61066Q291.5625 382.8919 292.70312 382.8919Q294.20312 382.8919 295.23438 383.93878Q296.26562 384.97003 296.26562 386.59503Q296.26562 388.15753 295.35938 389.28253Q294.25 390.68878 292.34375 390.68878Q290.78125 390.68878 289.79688 389.81378Q288.8125 388.92316 288.67188 387.48566ZM298.42188 390.48566L298.42188 388.87628L300.03125 388.87628L300.03125 390.48566Q300.03125 391.37628 299.71875 391.90753Q299.40625 392.4544 298.71875 392.75128L298.32812 392.15753Q298.78125 391.9544 298.98438 391.5794Q299.20312 391.2044 299.21875 390.48566L298.42188 390.48566ZM301.67188 384.8294Q301.67188 382.79816 302.07812 381.56378Q302.5 380.3294 303.32812 379.65753Q304.15625 378.98566 305.40625 378.98566Q306.32812 378.98566 307.01562 379.36066Q307.71875 379.72003 308.17188 380.42316Q308.625 381.12628 308.875 382.12628Q309.14062 383.12628 309.14062 384.8294Q309.14062 386.84503 308.71875 388.09503Q308.3125 389.3294 307.48438 390.0169Q306.65625 390.68878 305.40625 390.68878Q303.75 390.68878 302.79688 389.48566Q301.67188 388.06378 301.67188 384.8294ZM303.10938 384.8294Q303.10938 387.65753 303.76562 388.59503Q304.4375 389.5169 305.40625 389.5169Q306.375 389.5169 307.03125 388.5794Q307.6875 387.6419 307.6875 384.8294Q307.6875 382.00128 307.03125 381.0794Q306.375 380.1419 305.39062 380.1419Q304.42188 380.1419 303.84375 380.97003Q303.10938 382.0169 303.10938 384.8294ZM310.67188 384.8294Q310.67188 382.79816 311.07812 381.56378Q311.5 380.3294 312.32812 379.65753Q313.15625 378.98566 314.40625 378.98566Q315.32812 378.98566 316.01562 379.36066Q316.71875 379.72003 317.17188 380.42316Q317.625 381.12628 317.875 382.12628Q318.14062 383.12628 318.14062 384.8294Q318.14062 386.84503 317.71875 388.09503Q317.3125 389.3294 316.48438 390.0169Q315.65625 390.68878 314.40625 390.68878Q312.75 390.68878 311.79688 389.48566Q310.67188 388.06378 310.67188 384.8294ZM312.10938 384.8294Q312.10938 387.65753 312.76562 388.59503Q313.4375 389.5169 314.40625 389.5169Q315.375 389.5169 316.03125 388.5794Q316.6875 387.6419 316.6875 384.8294Q316.6875 382.00128 316.03125 381.0794Q315.375 380.1419 314.39062 380.1419Q313.42188 380.1419 312.84375 380.97003Q312.10938 382.0169 312.10938 384.8294ZM319.67188 384.8294Q319.67188 382.79816 320.07812 381.56378Q320.5 380.3294 321.32812 379.65753Q322.15625 378.98566 323.40625 378.98566Q324.32812 378.98566 325.01562 379.36066Q325.71875 379.72003 326.17188 380.42316Q326.625 381.12628 326.875 382.12628Q327.14062 383.12628 327.14062 384.8294Q327.14062 386.84503 326.71875 388.09503Q326.3125 389.3294 325.48438 390.0169Q324.65625 390.68878 323.40625 390.68878Q321.75 390.68878 320.79688 389.48566Q319.67188 388.06378 319.67188 384.8294ZM321.10938 384.8294Q321.10938 387.65753 321.76562 388.59503Q322.4375 389.5169 323.40625 389.5169Q324.375 389.5169 325.03125 388.5794Q325.6875 387.6419 325.6875 384.8294Q325.6875 382.00128 325.03125 381.0794Q324.375 380.1419 323.39062 380.1419Q322.42188 380.1419 321.84375 380.97003Q321.10938 382.0169 321.10938 384.8294ZM329.42188 390.48566L329.42188 388.87628L331.03125 388.87628L331.03125 390.48566Q331.03125 391.37628 330.71875 391.90753Q330.40625 392.4544 329.71875 392.75128L329.32812 392.15753Q329.78125 391.9544 329.98438 391.5794Q330.20312 391.2044 330.21875 390.48566L329.42188 390.48566ZM332.67188 384.8294Q332.67188 382.79816 333.07812 381.56378Q333.5 380.3294 334.32812 379.65753Q335.15625 378.98566 336.40625 378.98566Q337.32812 378.98566 338.01562 379.36066Q338.71875 379.72003 339.17188 380.42316Q339.625 381.12628 339.875 382.12628Q340.14062 383.12628 340.14062 384.8294Q340.14062 386.84503 339.71875 388.09503Q339.3125 389.3294 338.48438 390.0169Q337.65625 390.68878 336.40625 390.68878Q334.75 390.68878 333.79688 389.48566Q332.67188 388.06378 332.67188 384.8294ZM334.10938 384.8294Q334.10938 387.65753 334.76562 388.59503Q335.4375 389.5169 336.40625 389.5169Q337.375 389.5169 338.03125 388.5794Q338.6875 387.6419 338.6875 384.8294Q338.6875 382.00128 338.03125 381.0794Q337.375 380.1419 336.39062 380.1419Q335.42188 380.1419 334.84375 380.97003Q334.10938 382.0169 334.10938 384.8294ZM341.67188 384.8294Q341.67188 382.79816 342.07812 381.56378Q342.5 380.3294 343.32812 379.65753Q344.15625 378.98566 345.40625 378.98566Q346.32812 378.98566 347.01562 379.36066Q347.71875 379.72003 348.17188 380.42316Q348.625 381.12628 348.875 382.12628Q349.14062 383.12628 349.14062 384.8294Q349.14062 386.84503 348.71875 388.09503Q348.3125 389.3294 347.48438 390.0169Q346.65625 390.68878 345.40625 390.68878Q343.75 390.68878 342.79688 389.48566Q341.67188 388.06378 341.67188 384.8294ZM343.10938 384.8294Q343.10938 387.65753 343.76562 388.59503Q344.4375 389.5169 345.40625 389.5169Q346.375 389.5169 347.03125 388.5794Q347.6875 387.6419 347.6875 384.8294Q347.6875 382.00128 347.03125 381.0794Q346.375 380.1419 345.39062 380.1419Q344.42188 380.1419 343.84375 380.97003Q343.10938 382.0169 343.10938 384.8294ZM350.67188 384.8294Q350.67188 382.79816 351.07812 381.56378Q351.5 380.3294 352.32812 379.65753Q353.15625 378.98566 354.40625 378.98566Q355.32812 378.98566 356.01562 379.36066Q356.71875 379.72003 357.17188 380.42316Q357.625 381.12628 357.875 382.12628Q358.14062 383.12628 358.14062 384.8294Q358.14062 386.84503 357.71875 388.09503Q357.3125 389.3294 356.48438 390.0169Q355.65625 390.68878 354.40625 390.68878Q352.75 390.68878 351.79688 389.48566Q350.67188 388.06378 350.67188 384.8294ZM352.10938 384.8294Q352.10938 387.65753 352.76562 388.59503Q353.4375 389.5169 354.40625 389.5169Q355.375 389.5169 356.03125 388.5794Q356.6875 387.6419 356.6875 384.8294Q356.6875 382.00128 356.03125 381.0794Q355.375 380.1419 354.39062 380.1419Q353.42188 380.1419 352.84375 380.97003Q352.10938 382.0169 352.10938 384.8294Z" fill-rule="nonzero"/><path fill="#000000" d="M484.46875 390.48566L483.0625 390.48566L483.0625 381.5169Q482.54688 382.00128 481.71875 382.48566Q480.90625 382.97003 480.25 383.22003L480.25 381.86066Q481.42188 381.29816 482.29688 380.5169Q483.1875 379.72003 483.5625 378.98566L484.46875 378.98566L484.46875 390.48566ZM488.17188 384.8294Q488.17188 382.79816 488.57812 381.56378Q489.0 380.3294 489.82812 379.65753Q490.65625 378.98566 491.90625 378.98566Q492.82812 378.98566 493.51562 379.36066Q494.21875 379.72003 494.67188 380.42316Q495.125 381.12628 495.375 382.12628Q495.64062 383.12628 495.64062 384.8294Q495.64062 386.84503 495.21875 388.09503Q494.8125 389.3294 493.98438 390.0169Q493.15625 390.68878 491.90625 390.68878Q490.25 390.68878 489.29688 389.48566Q488.17188 388.06378 488.17188 384.8294ZM489.60938 384.8294Q489.60938 387.65753 490.26562 388.59503Q490.9375 389.5169 491.90625 389.5169Q492.875 389.5169 493.53125 388.5794Q494.1875 387.6419 494.1875 384.8294Q494.1875 382.00128 493.53125 381.0794Q492.875 380.1419 491.89062 380.1419Q490.92188 380.1419 490.34375 380.97003Q489.60938 382.0169 489.60938 384.8294ZM497.92188 390.48566L497.92188 388.87628L499.53125 388.87628L499.53125 390.48566Q499.53125 391.37628 499.21875 391.90753Q498.90625 392.4544 498.21875 392.75128L497.82812 392.15753Q498.28125 391.9544 498.48438 391.5794Q498.70312 391.2044 498.71875 390.48566L497.92188 390.48566ZM501.17188 384.8294Q501.17188 382.79816 501.57812 381.56378Q502.0 380.3294 502.82812 379.65753Q503.65625 378.98566 504.90625 378.98566Q505.82812 378.98566 506.51562 379.36066Q507.21875 379.72003 507.67188 380.42316Q508.125 381.12628 508.375 382.12628Q508.64062 383.12628 508.64062 384.8294Q508.64062 386.84503 508.21875 388.09503Q507.8125 389.3294 506.98438 390.0169Q506.15625 390.68878 504.90625 390.68878Q503.25 390.68878 502.29688 389.48566Q501.17188 388.06378 501.17188 384.8294ZM502.60938 384.8294Q502.60938 387.65753 503.26562 388.59503Q503.9375 389.5169 504.90625 389.5169Q505.875 389.5169 506.53125 388.5794Q507.1875 387.6419 507.1875 384.8294Q507.1875 382.00128 506.53125 381.0794Q505.875 380.1419 504.89062 380.1419Q503.92188 380.1419 503.34375 380.97003Q502.60938 382.0169 502.60938 384.8294ZM510.17188 384.8294Q510.17188 382.79816 510.57812 381.56378Q511.0 380.3294 511.82812 379.65753Q512.65625 378.98566 513.90625 378.98566Q514.8281 378.98566 515.5156 379.36066Q516.21875 379.72003 516.6719 380.42316Q517.125 381.12628 517.375 382.12628Q517.6406 383.12628 517.6406 384.8294Q517.6406 386.84503 517.21875 388.09503Q516.8125 389.3294 515.9844 390.0169Q515.15625 390.68878 513.90625 390.68878Q512.25 390.68878 511.29688 389.48566Q510.17188 388.06378 510.17188 384.8294ZM511.60938 384.8294Q511.60938 387.65753 512.2656 388.59503Q512.9375 389.5169 513.90625 389.5169Q514.875 389.5169 515.53125 388.5794Q516.1875 387.6419 516.1875 384.8294Q516.1875 382.00128 515.53125 381.0794Q514.875 380.1419 513.8906 380.1419Q512.9219 380.1419 512.34375 380.97003Q511.60938 382.0169 511.60938 384.8294ZM519.1719 384.8294Q519.1719 382.79816 519.5781 381.56378Q520.0 380.3294 520.8281 379.65753Q521.65625 378.98566 522.90625 378.98566Q523.8281 378.98566 524.5156 379.36066Q525.21875 379.72003 525.6719 380.42316Q526.125 381.12628 526.375 382.12628Q526.6406 383.12628 526.6406 384.8294Q526.6406 386.84503 526.21875 388.09503Q525.8125 389.3294 524.9844 390.0169Q524.15625 390.68878 522.90625 390.68878Q521.25 390.68878 520.2969 389.48566Q519.1719 388.06378 519.1719 384.8294ZM520.6094 384.8294Q520.6094 387.65753 521.2656 388.59503Q521.9375 389.5169 522.90625 389.5169Q523.875 389.5169 524.53125 388.5794Q525.1875 387.6419 525.1875 384.8294Q525.1875 382.00128 524.53125 381.0794Q523.875 380.1419 522.8906 380.1419Q521.9219 380.1419 521.34375 380.97003Q520.6094 382.0169 520.6094 384.8294ZM528.9219 390.48566L528.9219 388.87628L530.53125 388.87628L530.53125 390.48566Q530.53125 391.37628 530.21875 391.90753Q529.90625 392.4544 529.21875 392.75128L528.8281 392.15753Q529.28125 391.9544 529.4844 391.5794Q529.7031 391.2044 529.71875 390.48566L528.9219 390.48566ZM532.1719 384.8294Q532.1719 382.79816 532.5781 381.56378Q533.0 380.3294 533.8281 379.65753Q534.65625 378.98566 535.90625 378.98566Q536.8281 378.98566 537.5156 379.36066Q538.21875 379.72003 538.6719 380.42316Q539.125 381.12628 539.375 382.12628Q539.6406 383.12628 539.6406 384.8294Q539.6406 386.84503 539.21875 388.09503Q538.8125 389.3294 537.9844 390.0169Q537.15625 390.68878 535.90625 390.68878Q534.25 390.68878 533.2969 389.48566Q532.1719 388.06378 532.1719 384.8294ZM533.6094 384.8294Q533.6094 387.65753 534.2656 388.59503Q534.9375 389.5169 535.90625 389.5169Q536.875 389.5169 537.53125 388.5794Q538.1875 387.6419 538.1875 384.8294Q538.1875 382.00128 537.53125 381.0794Q536.875 380.1419 535.8906 380.1419Q534.9219 380.1419 534.34375 380.97003Q533.6094 382.0169 533.6094 384.8294ZM541.1719 384.8294Q541.1719 382.79816 541.5781 381.56378Q542.0 380.3294 542.8281 379.65753Q543.65625 378.98566 544.90625 378.98566Q545.8281 378.98566 546.5156 379.36066Q547.21875 379.72003 547.6719 380.42316Q548.125 381.12628 548.375 382.12628Q548.6406 383.12628 548.6406 384.8294Q548.6406 386.84503 548.21875 388.09503Q547.8125 389.3294 546.9844 390.0169Q546.15625 390.68878 544.90625 390.68878Q543.25 390.68878 542.2969 389.48566Q541.1719 388.06378 541.1719 384.8294ZM542.6094 384.8294Q542.6094 387.65753 543.2656 388.59503Q543.9375 389.5169 544.90625 389.5169Q545.875 389.5169 546.53125 388.5794Q547.1875 387.6419 547.1875 384.8294Q547.1875 382.00128 546.53125 381.0794Q545.875 380.1419 544.8906 380.1419Q543.9219 380.1419 543.34375 380.97003Q542.6094 382.0169 542.6094 384.8294ZM550.1719 384.8294Q550.1719 382.79816 550.5781 381.56378Q551.0 380.3294 551.8281 379.65753Q552.65625 378.98566 553.90625 378.98566Q554.8281 378.98566 555.5156 379.36066Q556.21875 379.72003 556.6719 380.42316Q557.125 381.12628 557.375 382.12628Q557.6406 383.12628 557.6406 384.8294Q557.6406 386.84503 557.21875 388.09503Q556.8125 389.3294 555.9844 390.0169Q555.15625 390.68878 553.90625 390.68878Q552.25 390.68878 551.2969 389.48566Q550.1719 388.06378 550.1719 384.8294ZM551.6094 384.8294Q551.6094 387.65753 552.2656 388.59503Q552.9375 389.5169 553.90625 389.5169Q554.875 389.5169 555.53125 388.5794Q556.1875 387.6419 556.1875 384.8294Q556.1875 382.00128 555.53125 381.0794Q554.875 380.1419 553.8906 380.1419Q552.9219 380.1419 552.34375 380.97003Q551.6094 382.0169 551.6094 384.8294Z" fill-rule="nonzero"/><path fill="#000000" d="M679.46875 390.48566L678.0625 390.48566L678.0625 381.5169Q677.5469 382.00128 676.71875 382.48566Q675.90625 382.97003 675.25 383.22003L675.25 381.86066Q676.4219 381.29816 677.2969 380.5169Q678.1875 379.72003 678.5625 378.98566L679.46875 378.98566L679.46875 390.48566ZM683.1719 387.48566L684.6406 387.36066Q684.8125 388.43878 685.40625 388.98566Q686.0 389.5169 686.84375 389.5169Q687.8594 389.5169 688.5625 388.75128Q689.2656 387.98566 689.2656 386.72003Q689.2656 385.5169 688.59375 384.8294Q687.9219 384.12628 686.8281 384.12628Q686.1406 384.12628 685.59375 384.43878Q685.0469 384.75128 684.7344 385.23566L683.4219 385.06378L684.53125 379.18878L690.21875 379.18878L690.21875 380.53253L685.65625 380.53253L685.03125 383.61066Q686.0625 382.8919 687.2031 382.8919Q688.7031 382.8919 689.7344 383.93878Q690.7656 384.97003 690.7656 386.59503Q690.7656 388.15753 689.8594 389.28253Q688.75 390.68878 686.84375 390.68878Q685.28125 390.68878 684.2969 389.81378Q683.3125 388.92316 683.1719 387.48566ZM692.9219 390.48566L692.9219 388.87628L694.53125 388.87628L694.53125 390.48566Q694.53125 391.37628 694.21875 391.90753Q693.90625 392.4544 693.21875 392.75128L692.8281 392.15753Q693.28125 391.9544 693.4844 391.5794Q693.7031 391.2044 693.71875 390.48566L692.9219 390.48566ZM696.1719 384.8294Q696.1719 382.79816 696.5781 381.56378Q697.0 380.3294 697.8281 379.65753Q698.65625 378.98566 699.90625 378.98566Q700.8281 378.98566 701.5156 379.36066Q702.21875 379.72003 702.6719 380.42316Q703.125 381.12628 703.375 382.12628Q703.6406 383.12628 703.6406 384.8294Q703.6406 386.84503 703.21875 388.09503Q702.8125 389.3294 701.9844 390.0169Q701.15625 390.68878 699.90625 390.68878Q698.25 390.68878 697.2969 389.48566Q696.1719 388.06378 696.1719 384.8294ZM697.6094 384.8294Q697.6094 387.65753 698.2656 388.59503Q698.9375 389.5169 699.90625 389.5169Q700.875 389.5169 701.53125 388.5794Q702.1875 387.6419 702.1875 384.8294Q702.1875 382.00128 701.53125 381.0794Q700.875 380.1419 699.8906 380.1419Q698.9219 380.1419 698.34375 380.97003Q697.6094 382.0169 697.6094 384.8294ZM705.1719 384.8294Q705.1719 382.79816 705.5781 381.56378Q706.0 380.3294 706.8281 379.65753Q707.65625 378.98566 708.90625 378.98566Q709.8281 378.98566 710.5156 379.36066Q711.21875 379.72003 711.6719 380.42316Q712.125 381.12628 712.375 382.12628Q712.6406 383.12628 712.6406 384.8294Q712.6406 386.84503 712.21875 388.09503Q711.8125 389.3294 710.9844 390.0169Q710.15625 390.68878 708.90625 390.68878Q707.25 390.68878 706.2969 389.48566Q705.1719 388.06378 705.1719 384.8294ZM706.6094 384.8294Q706.6094 387.65753 707.2656 388.59503Q707.9375 389.5169 708.90625 389.5169Q709.875 389.5169 710.53125 388.5794Q711.1875 387.6419 711.1875 384.8294Q711.1875 382.00128 710.53125 381.0794Q709.875 380.1419 708.8906 380.1419Q707.9219 380.1419 707.34375 380.97003Q706.6094 382.0169 706.6094 384.8294ZM714.1719 384.8294Q714.1719 382.79816 714.5781 381.56378Q715.0 380.3294 715.8281 379.65753Q716.65625 378.98566 717.90625 378.98566Q718.8281 378.98566 719.5156 379.36066Q720.21875 379.72003 720.6719 380.42316Q721.125 381.12628 721.375 382.12628Q721.6406 383.12628 721.6406 384.8294Q721.6406 386.84503 721.21875 388.09503Q720.8125 389.3294 719.9844 390.0169Q719.15625 390.68878 717.90625 390.68878Q716.25 390.68878 715.2969 389.48566Q714.1719 388.06378 714.1719 384.8294ZM715.6094 384.8294Q715.6094 387.65753 716.2656 388.59503Q716.9375 389.5169 717.90625 389.5169Q718.875 389.5169 719.53125 388.5794Q720.1875 387.6419 720.1875 384.8294Q720.1875 382.00128 719.53125 381.0794Q718.875 380.1419 717.8906 380.1419Q716.9219 380.1419 716.34375 380.97003Q715.6094 382.0169 715.6094 384.8294ZM723.9219 390.48566L723.9219 388.87628L725.53125 388.87628L725.53125 390.48566Q725.53125 391.37628 725.21875 391.90753Q724.90625 392.4544 724.21875 392.75128L723.8281 392.15753Q724.28125 391.9544 724.4844 391.5794Q724.7031 391.2044 724.71875 390.48566L723.9219 390.48566ZM727.1719 384.8294Q727.1719 382.79816 727.5781 381.56378Q728.0 380.3294 728.8281 379.65753Q729.65625 378.98566 730.90625 378.98566Q731.8281 378.98566 732.5156 379.36066Q733.21875 379.72003 733.6719 380.42316Q734.125 381.12628 734.375 382.12628Q734.6406 383.12628 734.6406 384.8294Q734.6406 386.84503 734.21875 388.09503Q733.8125 389.3294 732.9844 390.0169Q732.15625 390.68878 730.90625 390.68878Q729.25 390.68878 728.2969 389.48566Q727.1719 388.06378 727.1719 384.8294ZM728.6094 384.8294Q728.6094 387.65753 729.2656 388.59503Q729.9375 389.5169 730.90625 389.5169Q731.875 389.5169 732.53125 388.5794Q733.1875 387.6419 733.1875 384.8294Q733.1875 382.00128 732.53125 381.0794Q731.875 380.1419 730.8906 380.1419Q729.9219 380.1419 729.34375 380.97003Q728.6094 382.0169 728.6094 384.8294ZM736.1719 384.8294Q736.1719 382.79816 736.5781 381.56378Q737.0 380.3294 737.8281 379.65753Q738.65625 378.98566 739.90625 378.98566Q740.8281 378.98566 741.5156 379.36066Q742.21875 379.72003 742.6719 380.42316Q743.125 381.12628 743.375 382.12628Q743.6406 383.12628 743.6406 384.8294Q743.6406 386.84503 743.21875 388.09503Q742.8125 389.3294 741.9844 390.0169Q741.15625 390.68878 739.90625 390.68878Q738.25 390.68878 737.2969 389.48566Q736.1719 388.06378 736.1719 384.8294ZM737.6094 384.8294Q737.6094 387.65753 738.2656 388.59503Q738.9375 389.5169 739.90625 389.5169Q740.875 389.5169 741.53125 388.5794Q742.1875 387.6419 742.1875 384.8294Q742.1875 382.00128 741.53125 381.0794Q740.875 380.1419 739.8906 380.1419Q738.9219 380.1419 738.34375 380.97003Q737.6094 382.0169 737.6094 384.8294ZM745.1719 384.8294Q745.1719 382.79816 745.5781 381.56378Q746.0 380.3294 746.8281 379.65753Q747.65625 378.98566 748.90625 378.98566Q749.8281 378.98566 750.5156 379.36066Q751.21875 379.72003 751.6719 380.42316Q752.125 381.12628 752.375 382.12628Q752.6406 383.12628 752.6406 384.8294Q752.6406 386.84503 752.21875 388.09503Q751.8125 389.3294 750.9844 390.0169Q750.15625 390.68878 748.90625 390.68878Q747.25 390.68878 746.2969 389.48566Q745.1719 388.06378 745.1719 384.8294ZM746.6094 384.8294Q746.6094 387.65753 747.2656 388.59503Q747.9375 389.5169 748.90625 389.5169Q749.875 389.5169 750.53125 388.5794Q751.1875 387.6419 751.1875 384.8294Q751.1875 382.00128 750.53125 381.0794Q749.875 380.1419 748.8906 380.1419Q747.9219 380.1419 747.34375 380.97003Q746.6094 382.0169 746.6094 384.8294Z" fill-rule="nonzero"/><path fill="#6d9eeb" d="M581.8086 32.85259C581.8086 32.300304 582.2563 31.85259 582.8086 31.85259L592.8086 31.85259C593.3609 31.85259 593.8086 32.300304 593.8086 32.85259L593.8086 42.85259C593.8086 43.404873 593.3609 43.85259 592.8086 43.85259L582.8086 43.85259C582.2563 43.85259 581.8086 43.404873 581.8086 42.85259Z" fill-rule="nonzero"/><path fill="#1a1a1a" d="M602.52734 39.66509L603.96484 39.54009Q604.0586 40.399464 604.4336 40.961964Q604.8086 41.50884 605.58984 41.85259Q606.3711 42.180714 607.33984 42.180714Q608.21484 42.180714 608.8711 41.930714Q609.54297 41.66509 609.85547 41.22759Q610.1836 40.774464 610.1836 40.243214Q610.1836 39.69634 609.8711 39.305714Q609.5586 38.899464 608.83984 38.618214Q608.3867 38.44634 606.8086 38.07134Q605.23047 37.680714 604.58984 37.35259Q603.77734 36.91509 603.3711 36.29009Q602.96484 35.649464 602.96484 34.85259Q602.96484 33.993214 603.4492 33.243214Q603.9492 32.47759 604.8867 32.086964Q605.83984 31.696339 606.9961 31.696339Q608.27734 31.696339 609.2461 32.118214Q610.21484 32.524464 610.73047 33.32134Q611.2617 34.118214 611.3086 35.118214L609.85547 35.22759Q609.73047 34.149464 609.0586 33.60259Q608.3867 33.04009 607.0586 33.04009Q605.6836 33.04009 605.0586 33.54009Q604.4336 34.04009 604.4336 34.75884Q604.4336 35.368214 604.8711 35.774464Q605.3086 36.16509 607.15234 36.586964Q609.0117 37.00884 609.6992 37.32134Q610.6992 37.774464 611.16797 38.493214Q611.65234 39.19634 611.65234 40.118214Q611.65234 41.024464 611.1211 41.836964Q610.60547 42.649464 609.6211 43.10259Q608.6367 43.555714 607.41797 43.555714Q605.85547 43.555714 604.8086 43.10259Q603.7617 42.63384 603.15234 41.72759Q602.5586 40.82134 602.52734 39.66509ZM619.54297 40.680714L620.9961 40.85259Q620.65234 42.13384 619.71484 42.836964Q618.79297 43.54009 617.35547 43.54009Q615.52734 43.54009 614.46484 42.41509Q613.40234 41.29009 613.40234 39.274464Q613.40234 37.180714 614.48047 36.024464Q615.5586 34.868214 617.27734 34.868214Q618.9336 34.868214 619.98047 36.00884Q621.04297 37.13384 621.04297 39.180714Q621.04297 39.305714 621.04297 39.555714L614.85547 39.555714Q614.9336 40.930714 615.6211 41.66509Q616.3242 42.38384 617.35547 42.38384Q618.1367 42.38384 618.6836 41.97759Q619.23047 41.57134 619.54297 40.680714ZM614.9336 38.399464L619.5586 38.399464Q619.46484 37.35259 619.02734 36.836964Q618.35547 36.024464 617.29297 36.024464Q616.3242 36.024464 615.65234 36.680714Q614.9961 37.32134 614.9336 38.399464ZM625.9336 42.086964L626.1367 43.336964Q625.54297 43.461964 625.0742 43.461964Q624.3086 43.461964 623.8867 43.22759Q623.46484 42.97759 623.29297 42.586964Q623.1211 42.180714 623.1211 40.91509L623.1211 36.149464L622.08984 36.149464L622.08984 35.055714L623.1211 35.055714L623.1211 32.993214L624.52734 32.149464L624.52734 35.055714L625.9336 35.055714L625.9336 36.149464L624.52734 36.149464L624.52734 40.993214Q624.52734 41.60259 624.58984 41.774464Q624.66797 41.94634 624.83984 42.055714Q625.0117 42.149464 625.3242 42.149464Q625.5586 42.149464 625.9336 42.086964Z" fill-rule="nonzero"/><path fill="#e06666" d="M641.8086 32.85259C641.8086 32.300304 642.2563 31.85259 642.8086 31.85259L652.8086 31.85259C653.3609 31.85259 653.8086 32.300304 653.8086 32.85259L653.8086 42.85259C653.8086 43.404873 653.3609 43.85259 652.8086 43.85259L642.8086 43.85259C642.2563 43.85259 641.8086 43.404873 641.8086 42.85259Z" fill-rule="nonzero"/><path fill="#1a1a1a" d="M668.40234 38.85259L668.40234 37.50884L673.2617 37.50884L673.2617 41.75884Q672.1367 42.649464 670.9492 43.10259Q669.7617 43.555714 668.5117 43.555714Q666.8242 43.555714 665.4492 42.836964Q664.0742 42.10259 663.3711 40.743214Q662.66797 39.368214 662.66797 37.680714Q662.66797 36.00884 663.35547 34.555714Q664.0586 33.10259 665.3711 32.399464Q666.6836 31.696339 668.40234 31.696339Q669.6367 31.696339 670.6367 32.10259Q671.65234 32.50884 672.21484 33.22759Q672.79297 33.94634 673.08984 35.10259L671.71484 35.47759Q671.46484 34.60259 671.0742 34.10259Q670.6992 33.60259 669.98047 33.305714Q669.27734 32.993214 668.40234 32.993214Q667.3711 32.993214 666.60547 33.32134Q665.85547 33.63384 665.3867 34.149464Q664.91797 34.66509 664.66797 35.274464Q664.23047 36.336964 664.23047 37.586964Q664.23047 39.118214 664.7461 40.149464Q665.27734 41.180714 666.27734 41.680714Q667.29297 42.180714 668.4336 42.180714Q669.41797 42.180714 670.35547 41.805714Q671.29297 41.41509 671.77734 40.993214L671.77734 38.85259L668.40234 38.85259ZM680.54297 40.680714L681.9961 40.85259Q681.65234 42.13384 680.71484 42.836964Q679.79297 43.54009 678.35547 43.54009Q676.52734 43.54009 675.46484 42.41509Q674.40234 41.29009 674.40234 39.274464Q674.40234 37.180714 675.48047 36.024464Q676.5586 34.868214 678.27734 34.868214Q679.9336 34.868214 680.98047 36.00884Q682.04297 37.13384 682.04297 39.180714Q682.04297 39.305714 682.04297 39.555714L675.85547 39.555714Q675.9336 40.930714 676.6211 41.66509Q677.3242 42.38384 678.35547 42.38384Q679.1367 42.38384 679.6836 41.97759Q680.23047 41.57134 680.54297 40.680714ZM675.9336 38.399464L680.5586 38.399464Q680.46484 37.35259 680.02734 36.836964Q679.35547 36.024464 678.29297 36.024464Q677.3242 36.024464 676.65234 36.680714Q675.9961 37.32134 675.9336 38.399464ZM686.9336 42.086964L687.1367 43.336964Q686.54297 43.461964 686.0742 43.461964Q685.3086 43.461964 684.8867 43.22759Q684.46484 42.97759 684.29297 42.586964Q684.1211 42.180714 684.1211 40.91509L684.1211 36.149464L683.08984 36.149464L683.08984 35.055714L684.1211 35.055714L684.1211 32.993214L685.52734 32.149464L685.52734 35.055714L686.9336 35.055714L686.9336 36.149464L685.52734 36.149464L685.52734 40.993214Q685.52734 41.60259 685.58984 41.774464Q685.66797 41.94634 685.83984 42.055714Q686.0117 42.149464 686.3242 42.149464Q686.5586 42.149464 686.9336 42.086964Z" fill-rule="nonzero"/><path fill="#ffd966" d="M702.8086 32.85259C702.8086 32.300304 703.2563 31.85259 703.8086 31.85259L713.8086 31.85259C714.3609 31.85259 714.8086 32.300304 714.8086 32.85259L714.8086 42.85259C714.8086 43.404873 714.3609 43.85259 713.8086 43.85259L703.8086 43.85259C703.2563 43.85259 702.8086 43.404873 702.8086 42.85259Z" fill-rule="nonzero"/><path fill="#1a1a1a" d="M724.0742 43.35259L724.0742 31.899464L729.15234 31.899464Q730.6836 31.899464 731.48047 32.211964Q732.27734 32.50884 732.7461 33.29009Q733.23047 34.07134 733.23047 35.024464Q733.23047 36.243214 732.4336 37.086964Q731.65234 37.91509 729.9961 38.13384Q730.60547 38.430714 730.91797 38.711964Q731.5742 39.32134 732.16797 40.22759L734.16797 43.35259L732.2617 43.35259L730.7461 40.961964Q730.0742 39.930714 729.6367 39.38384Q729.21484 38.836964 728.8711 38.618214Q728.54297 38.399464 728.1836 38.32134Q727.9336 38.25884 727.33984 38.25884L725.58984 38.25884L725.58984 43.35259L724.0742 43.35259ZM725.58984 36.94634L728.83984 36.94634Q729.8867 36.94634 730.46484 36.743214Q731.0586 36.524464 731.35547 36.055714Q731.66797 35.57134 731.66797 35.024464Q731.66797 34.211964 731.0742 33.69634Q730.48047 33.16509 729.21484 33.16509L725.58984 33.16509L725.58984 36.94634ZM740.54297 40.680714L741.9961 40.85259Q741.65234 42.13384 740.71484 42.836964Q739.79297 43.54009 738.35547 43.54009Q736.52734 43.54009 735.46484 42.41509Q734.40234 41.29009 734.40234 39.274464Q734.40234 37.180714 735.48047 36.024464Q736.5586 34.868214 738.27734 34.868214Q739.9336 34.868214 740.98047 36.00884Q742.04297 37.13384 742.04297 39.180714Q742.04297 39.305714 742.04297 39.555714L735.85547 39.555714Q735.9336 40.930714 736.6211 41.66509Q737.3242 42.38384 738.35547 42.38384Q739.1367 42.38384 739.6836 41.97759Q740.23047 41.57134 740.54297 40.680714ZM735.9336 38.399464L740.5586 38.399464Q740.46484 37.35259 740.02734 36.836964Q739.35547 36.024464 738.29297 36.024464Q737.3242 36.024464 736.65234 36.680714Q735.9961 37.32134 735.9336 38.399464ZM743.8711 43.35259L743.8711 35.055714L745.1211 35.055714L745.1211 36.211964Q745.5117 35.60259 746.15234 35.243214Q746.8086 34.868214 747.6367 34.868214Q748.5586 34.868214 749.15234 35.25884Q749.7461 35.63384 749.98047 36.32134Q750.96484 34.868214 752.54297 34.868214Q753.77734 34.868214 754.4336 35.555714Q755.10547 36.22759 755.10547 37.649464L755.10547 43.35259L753.71484 43.35259L753.71484 38.118214Q753.71484 37.274464 753.5742 36.91509Q753.4336 36.54009 753.0742 36.32134Q752.71484 36.086964 752.23047 36.086964Q751.35547 36.086964 750.77734 36.66509Q750.1992 37.243214 750.1992 38.524464L750.1992 43.35259L748.79297 43.35259L748.79297 37.961964Q748.79297 37.024464 748.4492 36.555714Q748.10547 36.086964 747.3242 36.086964Q746.73047 36.086964 746.23047 36.399464Q745.73047 36.711964 745.4961 37.32134Q745.27734 37.91509 745.27734 39.04009L745.27734 43.35259L743.8711 43.35259ZM756.33984 39.19634Q756.33984 36.899464 757.6211 35.79009Q758.6992 34.868214 760.23047 34.868214Q761.9492 34.868214 763.02734 35.993214Q764.1211 37.10259 764.1211 39.086964Q764.1211 40.680714 763.6367 41.60259Q763.15234 42.524464 762.23047 43.04009Q761.3242 43.54009 760.23047 43.54009Q758.4961 43.54009 757.41797 42.430714Q756.33984 41.305714 756.33984 39.19634ZM757.79297 39.19634Q757.79297 40.79009 758.48047 41.586964Q759.1836 42.38384 760.23047 42.38384Q761.27734 42.38384 761.96484 41.586964Q762.66797 40.79009 762.66797 39.149464Q762.66797 37.618214 761.96484 36.82134Q761.27734 36.024464 760.23047 36.024464Q759.1836 36.024464 758.48047 36.82134Q757.79297 37.60259 757.79297 39.19634ZM768.16797 43.35259L765.0117 35.055714L766.4961 35.055714L768.27734 40.024464Q768.5742 40.82134 768.8086 41.69634Q768.9961 41.04009 769.33984 40.118214L771.1836 35.055714L772.6211 35.055714L769.48047 43.35259L768.16797 43.35259ZM778.54297 40.680714L779.9961 40.85259Q779.65234 42.13384 778.71484 42.836964Q777.79297 43.54009 776.35547 43.54009Q774.52734 43.54009 773.46484 42.41509Q772.40234 41.29009 772.40234 39.274464Q772.40234 37.180714 773.48047 36.024464Q774.5586 34.868214 776.27734 34.868214Q777.9336 34.868214 778.98047 36.00884Q780.04297 37.13384 780.04297 39.180714Q780.04297 39.305714 780.04297 39.555714L773.85547 39.555714Q773.9336 40.930714 774.6211 41.66509Q775.3242 42.38384 776.35547 42.38384Q777.1367 42.38384 777.6836 41.97759Q778.23047 41.57134 778.54297 40.680714ZM773.9336 38.399464L778.5586 38.399464Q778.46484 37.35259 778.02734 36.836964Q777.35547 36.024464 776.29297 36.024464Q775.3242 36.024464 774.65234 36.680714Q773.9961 37.32134 773.9336 38.399464Z" fill-rule="nonzero"/></svg>