<svg version="1.1" viewBox="0.0 0.0 811.0 402.0" fill="none" stroke="none" stroke-linecap="square" stroke-miterlimit="10" width="811" height="402" xmlns:xlink="http://www.w3.org/1999/xlink" xmlns="http://www.w3.org/2000/svg"><path fill="#ffffff" d="M0 0L811.0 0L811.0 402.0L0 402.0L0 0Z" fill-rule="nonzero"/><path stroke="#333333" stroke-width="1.0" stroke-linecap="butt" d="M127.5 25.5L127.5 362.5" fill-rule="nonzero"/><path stroke="#999999" stroke-width="1.0" stroke-linecap="butt" d="M323.5 25.5L323.5 362.5" fill-rule="nonzero"/><path stroke="#999999" stroke-width="1.0" stroke-linecap="butt" d="M518.5 25.5L518.5 362.5" fill-rule="nonzero"/><path stroke="#999999" stroke-width="1.0" stroke-linecap="butt" d="M714.5 25.5L714.5 362.5" fill-rule="nonzero"/><path stroke="#cccccc" stroke-width="1.0" stroke-linecap="butt" d="M166.5 25.5L166.5 362.5" fill-rule="nonzero"/><path stroke="#cccccc" stroke-width="1.0" stroke-linecap="butt" d="M205.5 25.5L205.5 362.5" fill-rule="nonzero"/><path stroke="#cccccc" stroke-width="1.0" stroke-linecap="butt" d="M244.5 25.5L244.5 362.5" fill-rule="nonzero"/><path stroke="#cccccc" stroke-width="1.0" stroke-linecap="butt" d="M283.5 25.5L283.5 362.5" fill-rule="nonzero"/><path stroke="#cccccc" stroke-width="1.0" stroke-linecap="butt" d="M362.5 25.5L362.5 362.5" fill-rule="nonzero"/><path stroke="#cccccc" stroke-width="1.0" stroke-linecap="butt" d="M401.5 25.5L401.5 362.5" fill-rule="nonzero"/><path stroke="#cccccc" stroke-width="1.0" stroke-linecap="butt" d="M440.5 25.5L440.5 362.5" fill-rule="nonzero"/><path stroke="#cccccc" stroke-width="1.0" stroke-linecap="butt" d="M479.5 25.5L479.5 362.5" fill-rule="nonzero"/><path stroke="#cccccc" stroke-width="1.0" stroke-linecap="butt" d="M557.5 25.5L557.5 362.5" fill-rule="nonzero"/><path stroke="#cccccc" stroke-width="1.0" stroke-linecap="butt" d="M596.5 25.5L596.5 362.5" fill-rule="nonzero"/><path stroke="#cccccc" stroke-width="1.0" stroke-linecap="butt" d="M635.5 25.5L635.5 362.5" fill-rule="nonzero"/><path stroke="#cccccc" stroke-width="1.0" stroke-linecap="butt" d="M675.5 25.5L675.5 362.5" fill-rule="nonzero"/><path stroke="#cccccc" stroke-width="1.0" stroke-linecap="butt" d="M753.5 25.5L753.5 362.5" fill-rule="nonzero"/><clipPath id="id_0"><path d="M127.5 25.5L792.45 25.5L792.45 362.39597L127.5 362.39597L127.5 25.5Z" clip-rule="nonzero"/></clipPath><path stroke="#000000" stroke-width="2.0" stroke-linecap="butt" stroke-opacity="0.0" clip-path="url(#id_0)" d="M127.0 48.0L127.0 41.0L213.0 41.0C214.10457 41.0 215.0 41.89543 215.0 43.0L215.0 46.0C215.0 47.10457 214.10457 48.0 213.0 48.0Z" fill-rule="nonzero"/><path fill="#6d9eeb" clip-path="url(#id_0)" d="M127.0 48.0L127.0 41.0L213.0 41.0C214.10457 41.0 215.0 41.89543 215.0 43.0L215.0 46.0C215.0 47.10457 214.10457 48.0 213.0 48.0Z" fill-rule="nonzero"/><path stroke="#000000" stroke-width="2.0" stroke-linecap="butt" stroke-opacity="0.0" clip-path="url(#id_0)" d="M127.0 88.0L127.0 81.0L196.0 81.0C197.10457 81.0 198.0 81.89543 198.0 83.0L198.0 86.0C198.0 87.10457 197.10457 88.0 196.0 88.0Z" fill-rule="nonzero"/><path fill="#6d9eeb" clip-path="url(#id_0)" d="M127.0 88.0L127.0 81.0L196.0 81.0C197.10457 81.0 198.0 81.89543 198.0 83.0L198.0 86.0C198.0 87.10457 197.10457 88.0 196.0 88.0Z" fill-rule="nonzero"/><path stroke="#000000" stroke-width="2.0" stroke-linecap="butt" stroke-opacity="0.0" clip-path="url(#id_0)" d="M127.0 128.0L127.0 121.0L161.0 121.0C162.10457 121.0 163.0 121.89543 163.0 123.0L163.0 126.0C163.0 127.10457 162.10457 128.0 161.0 128.0Z" fill-rule="nonzero"/><path fill="#6d9eeb" clip-path="url(#id_0)" d="M127.0 128.0L127.0 121.0L161.0 121.0C162.10457 121.0 163.0 121.89543 163.0 123.0L163.0 126.0C163.0 127.10457 162.10457 128.0 161.0 128.0Z" fill-rule="nonzero"/><path stroke="#000000" stroke-width="2.0" stroke-linecap="butt" stroke-opacity="0.0" clip-path="url(#id_0)" d="M127.0 169.0L127.0 162.0L386.0 162.0C387.10458 162.0 388.0 162.89543 388.0 164.0L388.0 167.0C388.0 168.10457 387.10458 169.0 386.0 169.0Z" fill-rule="nonzero"/><path fill="#6d9eeb" clip-path="url(#id_0)" d="M127.0 169.0L127.0 162.0L386.0 162.0C387.10458 162.0 388.0 162.89543 388.0 164.0L388.0 167.0C388.0 168.10457 387.10458 169.0 386.0 169.0Z" fill-rule="nonzero"/><path stroke="#000000" stroke-width="2.0" stroke-linecap="butt" stroke-opacity="0.0" clip-path="url(#id_0)" d="M127.0 209.0L127.0 202.0L250.0 202.0C251.10457 202.0 252.0 202.89543 252.0 204.0L252.0 207.0C252.0 208.10457 251.10457 209.0 250.0 209.0Z" fill-rule="nonzero"/><path fill="#6d9eeb" clip-path="url(#id_0)" d="M127.0 209.0L127.0 202.0L250.0 202.0C251.10457 202.0 252.0 202.89543 252.0 204.0L252.0 207.0C252.0 208.10457 251.10457 209.0 250.0 209.0Z" fill-rule="nonzero"/><path stroke="#000000" stroke-width="2.0" stroke-linecap="butt" stroke-opacity="0.0" clip-path="url(#id_0)" d="M127.0 249.0L127.0 242.0L457.0 242.0C458.10458 242.0 459.0 242.89543 459.0 244.0L459.0 247.0C459.0 248.10457 458.10458 249.0 457.0 249.0Z" fill-rule="nonzero"/><path fill="#6d9eeb" clip-path="url(#id_0)" d="M127.0 249.0L127.0 242.0L457.0 242.0C458.10458 242.0 459.0 242.89543 459.0 244.0L459.0 247.0C459.0 248.10457 458.10458 249.0 457.0 249.0Z" fill-rule="nonzero"/><path stroke="#000000" stroke-width="2.0" stroke-linecap="butt" stroke-opacity="0.0" clip-path="url(#id_0)" d="M127.0 290.0L127.0 283.0L171.0 283.0C172.10457 283.0 173.0 283.89542 173.0 285.0L173.0 288.0C173.0 289.10458 172.10457 290.0 171.0 290.0Z" fill-rule="nonzero"/><path fill="#6d9eeb" clip-path="url(#id_0)" d="M127.0 290.0L127.0 283.0L171.0 283.0C172.10457 283.0 173.0 283.89542 173.0 285.0L173.0 288.0C173.0 289.10458 172.10457 290.0 171.0 290.0Z" fill-rule="nonzero"/><path stroke="#000000" stroke-width="2.0" stroke-linecap="butt" stroke-opacity="0.0" clip-path="url(#id_0)" d="M127.0 330.0L127.0 323.0L169.0 323.0C170.10457 323.0 171.0 323.89542 171.0 325.0L171.0 328.0C171.0 329.10458 170.10457 330.0 169.0 330.0Z" fill-rule="nonzero"/><path fill="#6d9eeb" clip-path="url(#id_0)" d="M127.0 330.0L127.0 323.0L169.0 323.0C170.10457 323.0 171.0 323.89542 171.0 325.0L171.0 328.0C171.0 329.10458 170.10457 330.0 169.0 330.0Z" fill-rule="nonzero"/><path stroke="#000000" stroke-width="2.0" stroke-linecap="butt" stroke-opacity="0.0" clip-path="url(#id_0)" d="M127.0 57.0L127.0 50.0L313.0 50.0C314.10458 50.0 315.0 50.89543 315.0 52.0L315.0 55.0C315.0 56.10457 314.10458 57.0 313.0 57.0Z" fill-rule="nonzero"/><path fill="#e06666" clip-path="url(#id_0)" d="M127.0 57.0L127.0 50.0L313.0 50.0C314.10458 50.0 315.0 50.89543 315.0 52.0L315.0 55.0C315.0 56.10457 314.10458 57.0 313.0 57.0Z" fill-rule="nonzero"/><path stroke="#000000" stroke-width="2.0" stroke-linecap="butt" stroke-opacity="0.0" clip-path="url(#id_0)" d="M127.0 97.0L127.0 90.0L285.0 90.0C286.10458 90.0 287.0 90.89543 287.0 92.0L287.0 95.0C287.0 96.10457 286.10458 97.0 285.0 97.0Z" fill-rule="nonzero"/><path fill="#e06666" clip-path="url(#id_0)" d="M127.0 97.0L127.0 90.0L285.0 90.0C286.10458 90.0 287.0 90.89543 287.0 92.0L287.0 95.0C287.0 96.10457 286.10458 97.0 285.0 97.0Z" fill-rule="nonzero"/><path stroke="#000000" stroke-width="2.0" stroke-linecap="butt" stroke-opacity="0.0" clip-path="url(#id_0)" d="M127.0 137.0L127.0 130.0L200.0 130.0C201.10457 130.0 202.0 130.89543 202.0 132.0L202.0 135.0C202.0 136.10457 201.10457 137.0 200.0 137.0Z" fill-rule="nonzero"/><path fill="#e06666" clip-path="url(#id_0)" d="M127.0 137.0L127.0 130.0L200.0 130.0C201.10457 130.0 202.0 130.89543 202.0 132.0L202.0 135.0C202.0 136.10457 201.10457 137.0 200.0 137.0Z" fill-rule="nonzero"/><path stroke="#000000" stroke-width="2.0" stroke-linecap="butt" stroke-opacity="0.0" clip-path="url(#id_0)" d="M127.0 178.0L127.0 171.0L528.0 171.0C529.10455 171.0 530.0 171.89543 530.0 173.0L530.0 176.0C530.0 177.10457 529.10455 178.0 528.0 178.0Z" fill-rule="nonzero"/><path fill="#e06666" clip-path="url(#id_0)" d="M127.0 178.0L127.0 171.0L528.0 171.0C529.10455 171.0 530.0 171.89543 530.0 173.0L530.0 176.0C530.0 177.10457 529.10455 178.0 528.0 178.0Z" fill-rule="nonzero"/><path stroke="#000000" stroke-width="2.0" stroke-linecap="butt" stroke-opacity="0.0" clip-path="url(#id_0)" d="M127.0 218.0L127.0 211.0L581.0 211.0C582.10455 211.0 583.0 211.89543 583.0 213.0L583.0 216.0C583.0 217.10457 582.10455 218.0 581.0 218.0Z" fill-rule="nonzero"/><path fill="#e06666" clip-path="url(#id_0)" d="M127.0 218.0L127.0 211.0L581.0 211.0C582.10455 211.0 583.0 211.89543 583.0 213.0L583.0 216.0C583.0 217.10457 582.10455 218.0 581.0 218.0Z" fill-rule="nonzero"/><path stroke="#000000" stroke-width="2.0" stroke-linecap="butt" stroke-opacity="0.0" clip-path="url(#id_0)" d="M127.0 258.0L127.0 251.0L598.0 251.0C599.10455 251.0 600.0 251.89543 600.0 253.0L600.0 256.0C600.0 257.10458 599.10455 258.0 598.0 258.0Z" fill-rule="nonzero"/><path fill="#e06666" clip-path="url(#id_0)" d="M127.0 258.0L127.0 251.0L598.0 251.0C599.10455 251.0 600.0 251.89543 600.0 253.0L600.0 256.0C600.0 257.10458 599.10455 258.0 598.0 258.0Z" fill-rule="nonzero"/><path stroke="#000000" stroke-width="2.0" stroke-linecap="butt" stroke-opacity="0.0" clip-path="url(#id_0)" d="M127.0 299.0L127.0 292.0L743.0 292.0C744.10455 292.0 745.0 292.89542 745.0 294.0L745.0 297.0C745.0 298.10458 744.10455 299.0 743.0 299.0Z" fill-rule="nonzero"/><path fill="#e06666" clip-path="url(#id_0)" d="M127.0 299.0L127.0 292.0L743.0 292.0C744.10455 292.0 745.0 292.89542 745.0 294.0L745.0 297.0C745.0 298.10458 744.10455 299.0 743.0 299.0Z" fill-rule="nonzero"/><path stroke="#000000" stroke-width="2.0" stroke-linecap="butt" stroke-opacity="0.0" clip-path="url(#id_0)" d="M127.0 339.0L127.0 332.0L752.0 332.0C753.10455 332.0 754.0 332.89542 754.0 334.0L754.0 337.0C754.0 338.10458 753.10455 339.0 752.0 339.0Z" fill-rule="nonzero"/><path fill="#e06666" clip-path="url(#id_0)" d="M127.0 339.0L127.0 332.0L752.0 332.0C753.10455 332.0 754.0 332.89542 754.0 334.0L754.0 337.0C754.0 338.10458 753.10455 339.0 752.0 339.0Z" fill-rule="nonzero"/><path stroke="#000000" stroke-width="2.0" stroke-linecap="butt" stroke-opacity="0.0" clip-path="url(#id_0)" d="M127.0 66.0L127.0 59.0L231.0 59.0C232.10457 59.0 233.0 59.89543 233.0 61.0L233.0 64.0C233.0 65.10457 232.10457 66.0 231.0 66.0Z" fill-rule="nonzero"/><path fill="#ffd966" clip-path="url(#id_0)" d="M127.0 66.0L127.0 59.0L231.0 59.0C232.10457 59.0 233.0 59.89543 233.0 61.0L233.0 64.0C233.0 65.10457 232.10457 66.0 231.0 66.0Z" fill-rule="nonzero"/><path stroke="#000000" stroke-width="2.0" stroke-linecap="butt" stroke-opacity="0.0" clip-path="url(#id_0)" d="M127.0 106.0L127.0 99.0L196.0 99.0C197.10457 99.0 198.0 99.89543 198.0 101.0L198.0 104.0C198.0 105.10457 197.10457 106.0 196.0 106.0Z" fill-rule="nonzero"/><path fill="#ffd966" clip-path="url(#id_0)" d="M127.0 106.0L127.0 99.0L196.0 99.0C197.10457 99.0 198.0 99.89543 198.0 101.0L198.0 104.0C198.0 105.10457 197.10457 106.0 196.0 106.0Z" fill-rule="nonzero"/><path stroke="#000000" stroke-width="2.0" stroke-linecap="butt" stroke-opacity="0.0" clip-path="url(#id_0)" d="M127.0 146.0L127.0 139.0L165.0 139.0C166.10457 139.0 167.0 139.89543 167.0 141.0L167.0 144.0C167.0 145.10457 166.10457 146.0 165.0 146.0Z" fill-rule="nonzero"/><path fill="#ffd966" clip-path="url(#id_0)" d="M127.0 146.0L127.0 139.0L165.0 139.0C166.10457 139.0 167.0 139.89543 167.0 141.0L167.0 144.0C167.0 145.10457 166.10457 146.0 165.0 146.0Z" fill-rule="nonzero"/><path stroke="#000000" stroke-width="2.0" stroke-linecap="butt" stroke-opacity="0.0" clip-path="url(#id_0)" d="M127.0 187.0L127.0 180.0L477.0 180.0C478.10458 180.0 479.0 180.89543 479.0 182.0L479.0 185.0C479.0 186.10457 478.10458 187.0 477.0 187.0Z" fill-rule="nonzero"/><path fill="#ffd966" clip-path="url(#id_0)" d="M127.0 187.0L127.0 180.0L477.0 180.0C478.10458 180.0 479.0 180.89543 479.0 182.0L479.0 185.0C479.0 186.10457 478.10458 187.0 477.0 187.0Z" fill-rule="nonzero"/><path stroke="#000000" stroke-width="2.0" stroke-linecap="butt" stroke-opacity="0.0" clip-path="url(#id_0)" d="M127.0 227.0L127.0 220.0L260.0 220.0C261.10458 220.0 262.0 220.89543 262.0 222.0L262.0 225.0C262.0 226.10457 261.10458 227.0 260.0 227.0Z" fill-rule="nonzero"/><path fill="#ffd966" clip-path="url(#id_0)" d="M127.0 227.0L127.0 220.0L260.0 220.0C261.10458 220.0 262.0 220.89543 262.0 222.0L262.0 225.0C262.0 226.10457 261.10458 227.0 260.0 227.0Z" fill-rule="nonzero"/><path stroke="#000000" stroke-width="2.0" stroke-linecap="butt" stroke-opacity="0.0" clip-path="url(#id_0)" d="M127.0 267.0L127.0 260.0L593.0 260.0C594.10455 260.0 595.0 260.89542 595.0 262.0L595.0 265.0C595.0 266.10458 594.10455 267.0 593.0 267.0Z" fill-rule="nonzero"/><path fill="#ffd966" clip-path="url(#id_0)" d="M127.0 267.0L127.0 260.0L593.0 260.0C594.10455 260.0 595.0 260.89542 595.0 262.0L595.0 265.0C595.0 266.10458 594.10455 267.0 593.0 267.0Z" fill-rule="nonzero"/><path stroke="#000000" stroke-width="2.0" stroke-linecap="butt" stroke-opacity="0.0" clip-path="url(#id_0)" d="M127.0 308.0L127.0 301.0L195.0 301.0C196.10457 301.0 197.0 301.89542 197.0 303.0L197.0 306.0C197.0 307.10458 196.10457 308.0 195.0 308.0Z" fill-rule="nonzero"/><path fill="#ffd966" clip-path="url(#id_0)" d="M127.0 308.0L127.0 301.0L195.0 301.0C196.10457 301.0 197.0 301.89542 197.0 303.0L197.0 306.0C197.0 307.10458 196.10457 308.0 195.0 308.0Z" fill-rule="nonzero"/><path stroke="#000000" stroke-width="2.0" stroke-linecap="butt" stroke-opacity="0.0" clip-path="url(#id_0)" d="M127.0 348.0L127.0 341.0L209.0 341.0C210.10457 341.0 211.0 341.89542 211.0 343.0L211.0 346.0C211.0 347.10458 210.10457 348.0 209.0 348.0Z" fill-rule="nonzero"/><path fill="#ffd966" clip-path="url(#id_0)" d="M127.0 348.0L127.0 341.0L209.0 341.0C210.10457 341.0 211.0 341.89542 211.0 343.0L211.0 346.0C211.0 347.10458 210.10457 348.0 209.0 348.0Z" fill-rule="nonzero"/><path fill="#000000" d="M48.78125 58.234104L48.78125 46.78098L50.296875 46.78098L50.296875 51.484104L56.25 51.484104L56.25 46.78098L57.765625 46.78098L57.765625 58.234104L56.25 58.234104L56.25 52.827854L50.296875 52.827854L50.296875 58.234104L48.78125 58.234104ZM64.96875 57.202854Q64.1875 57.87473 63.46875 58.15598Q62.75 58.421604 61.921875 58.421604Q60.546875 58.421604 59.8125 57.74973Q59.078125 57.077854 59.078125 56.046604Q59.078125 55.43723 59.359375 54.93723Q59.640625 54.421604 60.078125 54.12473Q60.53125 53.81223 61.09375 53.65598Q61.515625 53.546604 62.34375 53.452854Q64.046875 53.24973 64.859375 52.96848Q64.859375 52.671604 64.859375 52.59348Q64.859375 51.734104 64.46875 51.390354Q63.921875 50.90598 62.859375 50.90598Q61.875 50.90598 61.390625 51.265354Q60.921875 51.609104 60.703125 52.484104L59.328125 52.296604Q59.515625 51.421604 59.9375 50.87473Q60.375 50.327854 61.1875 50.046604Q62.0 49.74973 63.0625 49.74973Q64.125 49.74973 64.78125 49.99973Q65.453125 50.24973 65.765625 50.62473Q66.078125 50.99973 66.203125 51.577854Q66.28125 51.93723 66.28125 52.87473L66.28125 54.74973Q66.28125 56.71848 66.359375 57.234104Q66.453125 57.74973 66.71875 58.234104L65.25 58.234104Q65.03125 57.796604 64.96875 57.202854ZM64.859375 54.06223Q64.09375 54.37473 62.5625 54.59348Q61.6875 54.71848 61.328125 54.87473Q60.96875 55.03098 60.765625 55.34348Q60.578125 55.640354 60.578125 55.99973Q60.578125 56.56223 61.0 56.93723Q61.4375 57.31223 62.25 57.31223Q63.0625 57.31223 63.6875 56.96848Q64.328125 56.609104 64.625 55.984104Q64.859375 55.515354 64.859375 54.577854L64.859375 54.06223ZM68.0 55.74973L69.390625 55.53098Q69.5 56.37473 70.03125 56.827854Q70.578125 57.265354 71.53125 57.265354Q72.5 57.265354 72.96875 56.87473Q73.4375 56.46848 73.4375 55.93723Q73.4375 55.46848 73.03125 55.18723Q72.734375 54.99973 71.59375 54.71848Q70.046875 54.327854 69.4375 54.046604Q68.84375 53.74973 68.53125 53.24973Q68.234375 52.74973 68.234375 52.140354Q68.234375 51.577854 68.484375 51.109104Q68.734375 50.640354 69.171875 50.327854Q69.5 50.077854 70.0625 49.921604Q70.640625 49.74973 71.28125 49.74973Q72.265625 49.74973 73.0 50.03098Q73.734375 50.31223 74.078125 50.796604Q74.4375 51.265354 74.578125 52.077854L73.203125 52.265354Q73.109375 51.62473 72.65625 51.265354Q72.203125 50.90598 71.390625 50.90598Q70.421875 50.90598 70.0 51.234104Q69.59375 51.546604 69.59375 51.96848Q69.59375 52.24973 69.765625 52.46848Q69.9375 52.68723 70.296875 52.84348Q70.515625 52.921604 71.546875 53.202854Q73.03125 53.59348 73.625 53.859104Q74.21875 54.109104 74.546875 54.59348Q74.890625 55.077854 74.890625 55.796604Q74.890625 56.49973 74.46875 57.12473Q74.0625 57.734104 73.28125 58.077854Q72.515625 58.421604 71.546875 58.421604Q69.921875 58.421604 69.078125 57.74973Q68.234375 57.077854 68.0 55.74973ZM76.5625 58.234104L76.5625 46.78098L77.96875 46.78098L77.96875 50.890354Q78.953125 49.74973 80.453125 49.74973Q81.375 49.74973 82.046875 50.109104Q82.734375 50.46848 83.015625 51.109104Q83.3125 51.74973 83.3125 52.96848L83.3125 58.234104L81.90625 58.234104L81.90625 52.96848Q81.90625 51.921604 81.453125 51.43723Q81.0 50.952854 80.15625 50.952854Q79.53125 50.952854 78.984375 51.28098Q78.4375 51.609104 78.203125 52.171604Q77.96875 52.71848 77.96875 53.68723L77.96875 58.234104L76.5625 58.234104ZM84.734375 58.234104L84.734375 46.78098L88.6875 46.78098Q90.015625 46.78098 90.71875 46.93723Q91.703125 47.171604 92.40625 47.765354Q93.3125 48.53098 93.75 49.71848Q94.203125 50.90598 94.203125 52.43723Q94.203125 53.74973 93.890625 54.765354Q93.59375 55.765354 93.109375 56.421604Q92.640625 57.077854 92.078125 57.46848Q91.515625 57.84348 90.703125 58.046604Q89.90625 58.234104 88.875 58.234104L84.734375 58.234104ZM86.25 56.87473L88.703125 56.87473Q89.828125 56.87473 90.46875 56.671604Q91.125 56.452854 91.5 56.077854Q92.046875 55.53098 92.34375 54.62473Q92.640625 53.71848 92.640625 52.421604Q92.640625 50.62473 92.046875 49.65598Q91.46875 48.68723 90.625 48.359104Q90.015625 48.12473 88.65625 48.12473L86.25 48.12473L86.25 56.87473ZM96.671875 58.234104L96.671875 46.78098L100.96875 46.78098Q102.28125 46.78098 103.078125 47.12473Q103.875 47.46848 104.3125 48.202854Q104.765625 48.921604 104.765625 49.702854Q104.765625 50.43723 104.359375 51.09348Q103.96875 51.734104 103.171875 52.140354Q104.203125 52.43723 104.765625 53.171604Q105.328125 53.90598 105.328125 54.90598Q105.328125 55.71848 104.984375 56.40598Q104.640625 57.09348 104.140625 57.46848Q103.640625 57.84348 102.890625 58.046604Q102.140625 58.234104 101.046875 58.234104L96.671875 58.234104ZM98.1875 51.59348L100.671875 51.59348Q101.671875 51.59348 102.109375 51.452854Q102.6875 51.28098 102.984375 50.890354Q103.28125 50.484104 103.28125 49.890354Q103.28125 49.31223 103.0 48.890354Q102.734375 48.452854 102.21875 48.296604Q101.71875 48.12473 100.484375 48.12473L98.1875 48.12473L98.1875 51.59348ZM98.1875 56.87473L101.046875 56.87473Q101.78125 56.87473 102.078125 56.827854Q102.59375 56.734104 102.9375 56.515354Q103.296875 56.296604 103.515625 55.87473Q103.75 55.452854 103.75 54.90598Q103.75 54.265354 103.421875 53.796604Q103.09375 53.327854 102.515625 53.140354Q101.9375 52.93723 100.84375 52.93723L98.1875 52.93723L98.1875 56.87473ZM107.6875 58.234104L107.6875 46.78098L109.96875 46.78098L112.6875 54.890354Q113.0625 56.015354 113.234375 56.577854Q113.421875 55.952854 113.84375 54.74973L116.578125 46.78098L118.625 46.78098L118.625 58.234104L117.15625 58.234104L117.15625 48.640354L113.828125 58.234104L112.46875 58.234104L109.15625 48.484104L109.15625 58.234104L107.6875 58.234104Z" fill-rule="nonzero"/><path fill="#000000" d="M55.65625 98.580925L55.65625 88.47155L51.875 88.47155L51.875 87.1278L60.953125 87.1278L60.953125 88.47155L57.171875 88.47155L57.171875 98.580925L55.65625 98.580925ZM61.546875 98.580925L61.546875 90.28405L62.8125 90.28405L62.8125 91.53405Q63.296875 90.65905 63.703125 90.3778Q64.109375 90.09655 64.609375 90.09655Q65.3125 90.09655 66.046875 90.549675L65.5625 91.84655Q65.046875 91.549675 64.53125 91.549675Q64.078125 91.549675 63.703125 91.830925Q63.34375 92.09655 63.1875 92.59655Q62.953125 93.34655 62.953125 94.237175L62.953125 98.580925L61.546875 98.580925ZM72.234375 95.90905L73.6875 96.080925Q73.34375 97.362175 72.40625 98.0653Q71.484375 98.768425 70.046875 98.768425Q68.21875 98.768425 67.15625 97.643425Q66.09375 96.518425 66.09375 94.5028Q66.09375 92.40905 67.171875 91.2528Q68.25 90.09655 69.96875 90.09655Q71.625 90.09655 72.671875 91.237175Q73.734375 92.362175 73.734375 94.40905Q73.734375 94.53405 73.734375 94.78405L67.546875 94.78405Q67.625 96.15905 68.3125 96.893425Q69.015625 97.612175 70.046875 97.612175Q70.828125 97.612175 71.375 97.205925Q71.921875 96.799675 72.234375 95.90905ZM67.625 93.6278L72.25 93.6278Q72.15625 92.580925 71.71875 92.0653Q71.046875 91.2528 69.984375 91.2528Q69.015625 91.2528 68.34375 91.90905Q67.6875 92.549675 67.625 93.6278ZM81.234375 95.90905L82.6875 96.080925Q82.34375 97.362175 81.40625 98.0653Q80.484375 98.768425 79.046875 98.768425Q77.21875 98.768425 76.15625 97.643425Q75.09375 96.518425 75.09375 94.5028Q75.09375 92.40905 76.171875 91.2528Q77.25 90.09655 78.96875 90.09655Q80.625 90.09655 81.671875 91.237175Q82.734375 92.362175 82.734375 94.40905Q82.734375 94.53405 82.734375 94.78405L76.546875 94.78405Q76.625 96.15905 77.3125 96.893425Q78.015625 97.612175 79.046875 97.612175Q79.828125 97.612175 80.375 97.205925Q80.921875 96.799675 81.234375 95.90905ZM76.625 93.6278L81.25 93.6278Q81.15625 92.580925 80.71875 92.0653Q80.046875 91.2528 78.984375 91.2528Q78.015625 91.2528 77.34375 91.90905Q76.6875 92.549675 76.625 93.6278ZM84.734375 98.580925L84.734375 87.1278L88.6875 87.1278Q90.015625 87.1278 90.71875 87.28405Q91.703125 87.518425 92.40625 88.112175Q93.3125 88.8778 93.75 90.0653Q94.203125 91.2528 94.203125 92.78405Q94.203125 94.09655 93.890625 95.112175Q93.59375 96.112175 93.109375 96.768425Q92.640625 97.424675 92.078125 97.8153Q91.515625 98.1903 90.703125 98.393425Q89.90625 98.580925 88.875 98.580925L84.734375 98.580925ZM86.25 97.22155L88.703125 97.22155Q89.828125 97.22155 90.46875 97.018425Q91.125 96.799675 91.5 96.424675Q92.046875 95.8778 92.34375 94.97155Q92.640625 94.0653 92.640625 92.768425Q92.640625 90.97155 92.046875 90.0028Q91.46875 89.03405 90.625 88.705925Q90.015625 88.47155 88.65625 88.47155L86.25 88.47155L86.25 97.22155ZM96.671875 98.580925L96.671875 87.1278L100.96875 87.1278Q102.28125 87.1278 103.078125 87.47155Q103.875 87.8153 104.3125 88.549675Q104.765625 89.268425 104.765625 90.049675Q104.765625 90.78405 104.359375 91.4403Q103.96875 92.080925 103.171875 92.487175Q104.203125 92.78405 104.765625 93.518425Q105.328125 94.2528 105.328125 95.2528Q105.328125 96.0653 104.984375 96.7528Q104.640625 97.4403 104.140625 97.8153Q103.640625 98.1903 102.890625 98.393425Q102.140625 98.580925 101.046875 98.580925L96.671875 98.580925ZM98.1875 91.9403L100.671875 91.9403Q101.671875 91.9403 102.109375 91.799675Q102.6875 91.6278 102.984375 91.237175Q103.28125 90.830925 103.28125 90.237175Q103.28125 89.65905 103.0 89.237175Q102.734375 88.799675 102.21875 88.643425Q101.71875 88.47155 100.484375 88.47155L98.1875 88.47155L98.1875 91.9403ZM98.1875 97.22155L101.046875 97.22155Q101.78125 97.22155 102.078125 97.174675Q102.59375 97.080925 102.9375 96.862175Q103.296875 96.643425 103.515625 96.22155Q103.75 95.799675 103.75 95.2528Q103.75 94.612175 103.421875 94.143425Q103.09375 93.674675 102.515625 93.487175Q101.9375 93.28405 100.84375 93.28405L98.1875 93.28405L98.1875 97.22155ZM107.6875 98.580925L107.6875 87.1278L109.96875 87.1278L112.6875 95.237175Q113.0625 96.362175 113.234375 96.924675Q113.421875 96.299675 113.84375 95.09655L116.578125 87.1278L118.625 87.1278L118.625 98.580925L117.15625 98.580925L117.15625 88.987175L113.828125 98.580925L112.46875 98.580925L109.15625 88.830925L109.15625 98.580925L107.6875 98.580925Z" fill-rule="nonzero"/><path fill="#000000" d="M52.21875 135.24025L53.65625 135.11525Q53.75 135.97462 54.125 136.53712Q54.5 137.084 55.28125 137.42775Q56.0625 137.75587 57.03125 137.75587Q57.90625 137.75587 58.5625 137.50587Q59.234375 137.24025 59.546875 136.80275Q59.875 136.34962 59.875 135.81837Q59.875 135.2715 59.5625 134.88087Q59.25 134.47462 58.53125 134.19337Q58.078125 134.0215 56.5 133.6465Q54.921875 133.25587 54.28125 132.92775Q53.46875 132.49025 53.0625 131.86525Q52.65625 131.22462 52.65625 130.42775Q52.65625 129.56837 53.140625 128.81837Q53.640625 128.05275 54.578125 127.662125Q55.53125 127.2715 56.6875 127.2715Q57.96875 127.2715 58.9375 127.693375Q59.90625 128.09962 60.421875 128.8965Q60.953125 129.69337 61.0 130.69337L59.546875 130.80275Q59.421875 129.72462 58.75 129.17775Q58.078125 128.61525 56.75 128.61525Q55.375 128.61525 54.75 129.11525Q54.125 129.61525 54.125 130.334Q54.125 130.94337 54.5625 131.34962Q55.0 131.74025 56.84375 132.16212Q58.703125 132.584 59.390625 132.8965Q60.390625 133.34962 60.859375 134.06837Q61.34375 134.7715 61.34375 135.69337Q61.34375 136.59962 60.8125 137.41212Q60.296875 138.22462 59.3125 138.67775Q58.328125 139.13087 57.109375 139.13087Q55.546875 139.13087 54.5 138.67775Q53.453125 138.209 52.84375 137.30275Q52.25 136.3965 52.21875 135.24025ZM63.5625 138.92775L63.5625 127.474625L64.96875 127.474625L64.96875 134.00587L68.296875 130.63087L70.125 130.63087L66.953125 133.709L70.4375 138.92775L68.703125 138.92775L65.96875 134.67775L64.96875 135.63087L64.96875 138.92775L63.5625 138.92775ZM71.5625 129.084L71.5625 127.474625L72.96875 127.474625L72.96875 129.084L71.5625 129.084ZM71.5625 138.92775L71.5625 130.63087L72.96875 130.63087L72.96875 138.92775L71.5625 138.92775ZM75.5625 142.11525L75.5625 130.63087L76.84375 130.63087L76.84375 131.709Q77.296875 131.06837 77.859375 130.75587Q78.4375 130.44337 79.25 130.44337Q80.3125 130.44337 81.125 130.99025Q81.9375 131.53712 82.34375 132.53712Q82.765625 133.5215 82.765625 134.709Q82.765625 135.99025 82.296875 137.00587Q81.84375 138.0215 80.96875 138.56837Q80.109375 139.11525 79.140625 139.11525Q78.4375 139.11525 77.875 138.81837Q77.328125 138.5215 76.96875 138.06837L76.96875 142.11525L75.5625 142.11525ZM76.828125 134.81837Q76.828125 136.42775 77.46875 137.19337Q78.125 137.959 79.046875 137.959Q79.984375 137.959 80.65625 137.16212Q81.328125 136.36525 81.328125 134.709Q81.328125 133.11525 80.671875 132.334Q80.015625 131.53712 79.109375 131.53712Q78.21875 131.53712 77.515625 132.38087Q76.828125 133.22462 76.828125 134.81837ZM84.734375 138.92775L84.734375 127.474625L88.6875 127.474625Q90.015625 127.474625 90.71875 127.630875Q91.703125 127.86525 92.40625 128.459Q93.3125 129.22462 93.75 130.41212Q94.203125 131.59962 94.203125 133.13087Q94.203125 134.44337 93.890625 135.459Q93.59375 136.459 93.109375 137.11525Q92.640625 137.7715 92.078125 138.16212Q91.515625 138.53712 90.703125 138.74025Q89.90625 138.92775 88.875 138.92775L84.734375 138.92775ZM86.25 137.56837L88.703125 137.56837Q89.828125 137.56837 90.46875 137.36525Q91.125 137.1465 91.5 136.7715Q92.046875 136.22462 92.34375 135.31837Q92.640625 134.41212 92.640625 133.11525Q92.640625 131.31837 92.046875 130.34962Q91.46875 129.38087 90.625 129.05275Q90.015625 128.81837 88.65625 128.81837L86.25 128.81837L86.25 137.56837ZM96.671875 138.92775L96.671875 127.474625L100.96875 127.474625Q102.28125 127.474625 103.078125 127.818375Q103.875 128.16212 104.3125 128.8965Q104.765625 129.61525 104.765625 130.3965Q104.765625 131.13087 104.359375 131.78712Q103.96875 132.42775 103.171875 132.834Q104.203125 133.13087 104.765625 133.86525Q105.328125 134.59962 105.328125 135.59962Q105.328125 136.41212 104.984375 137.09962Q104.640625 137.78712 104.140625 138.16212Q103.640625 138.53712 102.890625 138.74025Q102.140625 138.92775 101.046875 138.92775L96.671875 138.92775ZM98.1875 132.28712L100.671875 132.28712Q101.671875 132.28712 102.109375 132.1465Q102.6875 131.97462 102.984375 131.584Q103.28125 131.17775 103.28125 130.584Q103.28125 130.00587 103.0 129.584Q102.734375 129.1465 102.21875 128.99025Q101.71875 128.81837 100.484375 128.81837L98.1875 128.81837L98.1875 132.28712ZM98.1875 137.56837L101.046875 137.56837Q101.78125 137.56837 102.078125 137.5215Q102.59375 137.42775 102.9375 137.209Q103.296875 136.99025 103.515625 136.56837Q103.75 136.1465 103.75 135.59962Q103.75 134.959 103.421875 134.49025Q103.09375 134.0215 102.515625 133.834Q101.9375 133.63087 100.84375 133.63087L98.1875 133.63087L98.1875 137.56837ZM107.6875 138.92775L107.6875 127.474625L109.96875 127.474625L112.6875 135.584Q113.0625 136.709 113.234375 137.2715Q113.421875 136.6465 113.84375 135.44337L116.578125 127.474625L118.625 127.474625L118.625 138.92775L117.15625 138.92775L117.15625 129.334L113.828125 138.92775L112.46875 138.92775L109.15625 129.17775L109.15625 138.92775L107.6875 138.92775Z" fill-rule="nonzero"/><path fill="#000000" d="M59.65625 179.27457L59.65625 169.16519L55.875 169.16519L55.875 167.82144L64.953125 167.82144L64.953125 169.16519L61.171875 169.16519L61.171875 179.27457L59.65625 179.27457ZM65.5625 169.43082L65.5625 167.82144L66.96875 167.82144L66.96875 169.43082L65.5625 169.43082ZM65.5625 179.27457L65.5625 170.97769L66.96875 170.97769L66.96875 179.27457L65.5625 179.27457ZM69.5625 179.27457L69.5625 170.97769L70.828125 170.97769L70.828125 172.14957Q71.734375 170.79019 73.46875 170.79019Q74.21875 170.79019 74.84375 171.05582Q75.46875 171.32144 75.78125 171.75894Q76.09375 172.19644 76.21875 172.80582Q76.296875 173.19644 76.296875 174.16519L76.296875 179.27457L74.890625 179.27457L74.890625 174.22769Q74.890625 173.36832 74.71875 172.94644Q74.5625 172.50894 74.140625 172.25894Q73.734375 172.00894 73.171875 172.00894Q72.265625 172.00894 71.609375 172.58707Q70.96875 173.14957 70.96875 174.74332L70.96875 179.27457L69.5625 179.27457ZM77.5 182.47769L77.34375 181.14957Q77.796875 181.27457 78.140625 181.27457Q78.609375 181.27457 78.890625 181.11832Q79.171875 180.96207 79.359375 180.68082Q79.484375 180.47769 79.78125 179.63394Q79.828125 179.52457 79.90625 179.29019L76.765625 170.97769L78.28125 170.97769L80.0 175.77457Q80.34375 176.69644 80.609375 177.69644Q80.84375 176.72769 81.1875 175.80582L82.953125 170.97769L84.359375 170.97769L81.203125 179.41519Q80.703125 180.79019 80.421875 181.30582Q80.046875 181.99332 79.5625 182.32144Q79.078125 182.64957 78.40625 182.64957Q78.0 182.64957 77.5 182.47769ZM84.734375 179.27457L84.734375 167.82144L88.6875 167.82144Q90.015625 167.82144 90.71875 167.97769Q91.703125 168.21207 92.40625 168.80582Q93.3125 169.57144 93.75 170.75894Q94.203125 171.94644 94.203125 173.47769Q94.203125 174.79019 93.890625 175.80582Q93.59375 176.80582 93.109375 177.46207Q92.640625 178.11832 92.078125 178.50894Q91.515625 178.88394 90.703125 179.08707Q89.90625 179.27457 88.875 179.27457L84.734375 179.27457ZM86.25 177.91519L88.703125 177.91519Q89.828125 177.91519 90.46875 177.71207Q91.125 177.49332 91.5 177.11832Q92.046875 176.57144 92.34375 175.66519Q92.640625 174.75894 92.640625 173.46207Q92.640625 171.66519 92.046875 170.69644Q91.46875 169.72769 90.625 169.39957Q90.015625 169.16519 88.65625 169.16519L86.25 169.16519L86.25 177.91519ZM96.671875 179.27457L96.671875 167.82144L100.96875 167.82144Q102.28125 167.82144 103.078125 168.16519Q103.875 168.50894 104.3125 169.24332Q104.765625 169.96207 104.765625 170.74332Q104.765625 171.47769 104.359375 172.13394Q103.96875 172.77457 103.171875 173.18082Q104.203125 173.47769 104.765625 174.21207Q105.328125 174.94644 105.328125 175.94644Q105.328125 176.75894 104.984375 177.44644Q104.640625 178.13394 104.140625 178.50894Q103.640625 178.88394 102.890625 179.08707Q102.140625 179.27457 101.046875 179.27457L96.671875 179.27457ZM98.1875 172.63394L100.671875 172.63394Q101.671875 172.63394 102.109375 172.49332Q102.6875 172.32144 102.984375 171.93082Q103.28125 171.52457 103.28125 170.93082Q103.28125 170.35269 103.0 169.93082Q102.734375 169.49332 102.21875 169.33707Q101.71875 169.16519 100.484375 169.16519L98.1875 169.16519L98.1875 172.63394ZM98.1875 177.91519L101.046875 177.91519Q101.78125 177.91519 102.078125 177.86832Q102.59375 177.77457 102.9375 177.55582Q103.296875 177.33707 103.515625 176.91519Q103.75 176.49332 103.75 175.94644Q103.75 175.30582 103.421875 174.83707Q103.09375 174.36832 102.515625 174.18082Q101.9375 173.97769 100.84375 173.97769L98.1875 173.97769L98.1875 177.91519ZM107.6875 179.27457L107.6875 167.82144L109.96875 167.82144L112.6875 175.93082Q113.0625 177.05582 113.234375 177.61832Q113.421875 176.99332 113.84375 175.79019L116.578125 167.82144L118.625 167.82144L118.625 179.27457L117.15625 179.27457L117.15625 169.68082L113.828125 179.27457L112.46875 179.27457L109.15625 169.52457L109.15625 179.27457L107.6875 179.27457Z" fill-rule="nonzero"/><path fill="#000000" d="M48.671875 219.62138L48.671875 208.16826L52.96875 208.16826Q54.28125 208.16826 55.078125 208.51201Q55.875 208.85576 56.3125 209.59013Q56.765625 210.30888 56.765625 211.09013Q56.765625 211.82451 56.359375 212.48076Q55.96875 213.12138 55.171875 213.52763Q56.203125 213.82451 56.765625 214.55888Q57.328125 215.29326 57.328125 216.29326Q57.328125 217.10576 56.984375 217.79326Q56.640625 218.48076 56.140625 218.85576Q55.640625 219.23076 54.890625 219.43388Q54.140625 219.62138 53.046875 219.62138L48.671875 219.62138ZM50.1875 212.98076L52.671875 212.98076Q53.671875 212.98076 54.109375 212.84013Q54.6875 212.66826 54.984375 212.27763Q55.28125 211.87138 55.28125 211.27763Q55.28125 210.69951 55.0 210.27763Q54.734375 209.84013 54.21875 209.68388Q53.71875 209.51201 52.484375 209.51201L50.1875 209.51201L50.1875 212.98076ZM50.1875 218.26201L53.046875 218.26201Q53.78125 218.26201 54.078125 218.21513Q54.59375 218.12138 54.9375 217.90263Q55.296875 217.68388 55.515625 217.26201Q55.75 216.84013 55.75 216.29326Q55.75 215.65263 55.421875 215.18388Q55.09375 214.71513 54.515625 214.52763Q53.9375 214.32451 52.84375 214.32451L50.1875 214.32451L50.1875 218.26201ZM64.96875 218.59013Q64.1875 219.26201 63.46875 219.54326Q62.75 219.80888 61.921875 219.80888Q60.546875 219.80888 59.8125 219.13701Q59.078125 218.46513 59.078125 217.43388Q59.078125 216.82451 59.359375 216.32451Q59.640625 215.80888 60.078125 215.51201Q60.53125 215.19951 61.09375 215.04326Q61.515625 214.93388 62.34375 214.84013Q64.046875 214.63701 64.859375 214.35576Q64.859375 214.05888 64.859375 213.98076Q64.859375 213.12138 64.46875 212.77763Q63.921875 212.29326 62.859375 212.29326Q61.875 212.29326 61.390625 212.65263Q60.921875 212.99638 60.703125 213.87138L59.328125 213.68388Q59.515625 212.80888 59.9375 212.26201Q60.375 211.71513 61.1875 211.43388Q62.0 211.13701 63.0625 211.13701Q64.125 211.13701 64.78125 211.38701Q65.453125 211.63701 65.765625 212.01201Q66.078125 212.38701 66.203125 212.96513Q66.28125 213.32451 66.28125 214.26201L66.28125 216.13701Q66.28125 218.10576 66.359375 218.62138Q66.453125 219.13701 66.71875 219.62138L65.25 219.62138Q65.03125 219.18388 64.96875 218.59013ZM64.859375 215.44951Q64.09375 215.76201 62.5625 215.98076Q61.6875 216.10576 61.328125 216.26201Q60.96875 216.41826 60.765625 216.73076Q60.578125 217.02763 60.578125 217.38701Q60.578125 217.94951 61.0 218.32451Q61.4375 218.69951 62.25 218.69951Q63.0625 218.69951 63.6875 218.35576Q64.328125 217.99638 64.625 217.37138Q64.859375 216.90263 64.859375 215.96513L64.859375 215.44951ZM69.859375 219.62138L68.546875 219.62138L68.546875 208.16826L69.953125 208.16826L69.953125 212.24638Q70.84375 211.13701 72.234375 211.13701Q73.0 211.13701 73.671875 211.44951Q74.359375 211.74638 74.796875 212.30888Q75.25 212.87138 75.5 213.66826Q75.75 214.44951 75.75 215.34013Q75.75 217.48076 74.6875 218.65263Q73.640625 219.80888 72.15625 219.80888Q70.6875 219.80888 69.859375 218.57451L69.859375 219.62138ZM69.84375 215.40263Q69.84375 216.90263 70.25 217.55888Q70.90625 218.65263 72.046875 218.65263Q72.96875 218.65263 73.640625 217.85576Q74.3125 217.04326 74.3125 215.46513Q74.3125 213.84013 73.65625 213.07451Q73.015625 212.29326 72.109375 212.29326Q71.1875 212.29326 70.515625 213.09013Q69.84375 213.88701 69.84375 215.40263ZM77.5 222.82451L77.34375 221.49638Q77.796875 221.62138 78.140625 221.62138Q78.609375 221.62138 78.890625 221.46513Q79.171875 221.30888 79.359375 221.02763Q79.484375 220.82451 79.78125 219.98076Q79.828125 219.87138 79.90625 219.63701L76.765625 211.32451L78.28125 211.32451L80.0 216.12138Q80.34375 217.04326 80.609375 218.04326Q80.84375 217.07451 81.1875 216.15263L82.953125 211.32451L84.359375 211.32451L81.203125 219.76201Q80.703125 221.13701 80.421875 221.65263Q80.046875 222.34013 79.5625 222.66826Q79.078125 222.99638 78.40625 222.99638Q78.0 222.99638 77.5 222.82451ZM84.734375 219.62138L84.734375 208.16826L88.6875 208.16826Q90.015625 208.16826 90.71875 208.32451Q91.703125 208.55888 92.40625 209.15263Q93.3125 209.91826 93.75 211.10576Q94.203125 212.29326 94.203125 213.82451Q94.203125 215.13701 93.890625 216.15263Q93.59375 217.15263 93.109375 217.80888Q92.640625 218.46513 92.078125 218.85576Q91.515625 219.23076 90.703125 219.43388Q89.90625 219.62138 88.875 219.62138L84.734375 219.62138ZM86.25 218.26201L88.703125 218.26201Q89.828125 218.26201 90.46875 218.05888Q91.125 217.84013 91.5 217.46513Q92.046875 216.91826 92.34375 216.01201Q92.640625 215.10576 92.640625 213.80888Q92.640625 212.01201 92.046875 211.04326Q91.46875 210.07451 90.625 209.74638Q90.015625 209.51201 88.65625 209.51201L86.25 209.51201L86.25 218.26201ZM96.671875 219.62138L96.671875 208.16826L100.96875 208.16826Q102.28125 208.16826 103.078125 208.51201Q103.875 208.85576 104.3125 209.59013Q104.765625 210.30888 104.765625 211.09013Q104.765625 211.82451 104.359375 212.48076Q103.96875 213.12138 103.171875 213.52763Q104.203125 213.82451 104.765625 214.55888Q105.328125 215.29326 105.328125 216.29326Q105.328125 217.10576 104.984375 217.79326Q104.640625 218.48076 104.140625 218.85576Q103.640625 219.23076 102.890625 219.43388Q102.140625 219.62138 101.046875 219.62138L96.671875 219.62138ZM98.1875 212.98076L100.671875 212.98076Q101.671875 212.98076 102.109375 212.84013Q102.6875 212.66826 102.984375 212.27763Q103.28125 211.87138 103.28125 211.27763Q103.28125 210.69951 103.0 210.27763Q102.734375 209.84013 102.21875 209.68388Q101.71875 209.51201 100.484375 209.51201L98.1875 209.51201L98.1875 212.98076ZM98.1875 218.26201L101.046875 218.26201Q101.78125 218.26201 102.078125 218.21513Q102.59375 218.12138 102.9375 217.90263Q103.296875 217.68388 103.515625 217.26201Q103.75 216.84013 103.75 216.29326Q103.75 215.65263 103.421875 215.18388Q103.09375 214.71513 102.515625 214.52763Q101.9375 214.32451 100.84375 214.32451L98.1875 214.32451L98.1875 218.26201ZM107.6875 219.62138L107.6875 208.16826L109.96875 208.16826L112.6875 216.27763Q113.0625 217.40263 113.234375 217.96513Q113.421875 217.34013 113.84375 216.13701L116.578125 208.16826L118.625 208.16826L118.625 219.62138L117.15625 219.62138L117.15625 210.02763L113.828125 219.62138L112.46875 219.62138L109.15625 209.87138L109.15625 219.62138L107.6875 219.62138Z" fill-rule="nonzero"/><path fill="#000000" d="M46.90625 255.95258L48.421875 256.32758Q47.953125 258.20258 46.703125 259.18695Q45.46875 260.17133 43.6875 260.17133Q41.828125 260.17133 40.671875 259.42133Q39.515625 258.6557 38.90625 257.23383Q38.296875 255.79633 38.296875 254.1557Q38.296875 252.35883 38.984375 251.0307Q39.671875 249.70258 40.921875 249.01508Q42.1875 248.31195 43.703125 248.31195Q45.421875 248.31195 46.59375 249.18695Q47.765625 250.06195 48.234375 251.6557L46.734375 251.99945Q46.34375 250.74945 45.578125 250.18695Q44.828125 249.60883 43.671875 249.60883Q42.359375 249.60883 41.46875 250.24945Q40.578125 250.87445 40.21875 251.95258Q39.859375 253.01508 39.859375 254.14008Q39.859375 255.60883 40.28125 256.70258Q40.71875 257.7807 41.609375 258.32758Q42.515625 258.85883 43.5625 258.85883Q44.828125 258.85883 45.703125 258.12445Q46.59375 257.39008 46.90625 255.95258ZM55.96875 258.93695Q55.1875 259.60883 54.46875 259.89008Q53.75 260.1557 52.921875 260.1557Q51.546875 260.1557 50.8125 259.48383Q50.078125 258.81195 50.078125 257.7807Q50.078125 257.17133 50.359375 256.67133Q50.640625 256.1557 51.078125 255.85883Q51.53125 255.54633 52.09375 255.39008Q52.515625 255.2807 53.34375 255.18695Q55.046875 254.98383 55.859375 254.70258Q55.859375 254.4057 55.859375 254.32758Q55.859375 253.4682 55.46875 253.12445Q54.921875 252.64008 53.859375 252.64008Q52.875 252.64008 52.390625 252.99945Q51.921875 253.3432 51.703125 254.2182L50.328125 254.0307Q50.515625 253.1557 50.9375 252.60883Q51.375 252.06195 52.1875 251.7807Q53.0 251.48383 54.0625 251.48383Q55.125 251.48383 55.78125 251.73383Q56.453125 251.98383 56.765625 252.35883Q57.078125 252.73383 57.203125 253.31195Q57.28125 253.67133 57.28125 254.60883L57.28125 256.48383Q57.28125 258.45258 57.359375 258.9682Q57.453125 259.48383 57.71875 259.9682L56.25 259.9682Q56.03125 259.5307 55.96875 258.93695ZM55.859375 255.79633Q55.09375 256.10883 53.5625 256.32758Q52.6875 256.45258 52.328125 256.60883Q51.96875 256.76508 51.765625 257.07758Q51.578125 257.37445 51.578125 257.73383Q51.578125 258.29633 52.0 258.67133Q52.4375 259.04633 53.25 259.04633Q54.0625 259.04633 54.6875 258.70258Q55.328125 258.3432 55.625 257.7182Q55.859375 257.24945 55.859375 256.31195L55.859375 255.79633ZM64.96875 256.92133L66.359375 257.10883Q66.125 258.5307 65.1875 259.3432Q64.265625 260.1557 62.90625 260.1557Q61.203125 260.1557 60.15625 259.04633Q59.125 257.92133 59.125 255.8432Q59.125 254.49945 59.5625 253.49945Q60.015625 252.48383 60.921875 251.98383Q61.84375 251.48383 62.90625 251.48383Q64.265625 251.48383 65.125 252.17133Q65.984375 252.8432 66.21875 254.10883L64.859375 254.31195Q64.65625 253.48383 64.15625 253.06195Q63.671875 252.64008 62.96875 252.64008Q61.90625 252.64008 61.234375 253.4057Q60.578125 254.1557 60.578125 255.81195Q60.578125 257.48383 61.21875 258.24945Q61.859375 258.99945 62.890625 258.99945Q63.71875 258.99945 64.265625 258.49945Q64.828125 257.98383 64.96875 256.92133ZM67.5625 259.9682L67.5625 248.51508L68.96875 248.51508L68.96875 252.62445Q69.953125 251.48383 71.453125 251.48383Q72.375 251.48383 73.046875 251.8432Q73.734375 252.20258 74.015625 252.8432Q74.3125 253.48383 74.3125 254.70258L74.3125 259.9682L72.90625 259.9682L72.90625 254.70258Q72.90625 253.6557 72.453125 253.17133Q72.0 252.68695 71.15625 252.68695Q70.53125 252.68695 69.984375 253.01508Q69.4375 253.3432 69.203125 253.9057Q68.96875 254.45258 68.96875 255.42133L68.96875 259.9682L67.5625 259.9682ZM81.234375 257.29633L82.6875 257.4682Q82.34375 258.74945 81.40625 259.45258Q80.484375 260.1557 79.046875 260.1557Q77.21875 260.1557 76.15625 259.0307Q75.09375 257.9057 75.09375 255.89008Q75.09375 253.79633 76.171875 252.64008Q77.25 251.48383 78.96875 251.48383Q80.625 251.48383 81.671875 252.62445Q82.734375 253.74945 82.734375 255.79633Q82.734375 255.92133 82.734375 256.17133L76.546875 256.17133Q76.625 257.54633 77.3125 258.2807Q78.015625 258.99945 79.046875 258.99945Q79.828125 258.99945 80.375 258.5932Q80.921875 258.18695 81.234375 257.29633ZM76.625 255.01508L81.25 255.01508Q81.15625 253.9682 80.71875 253.45258Q80.046875 252.64008 78.984375 252.64008Q78.015625 252.64008 77.34375 253.29633Q76.6875 253.93695 76.625 255.01508ZM84.734375 259.9682L84.734375 248.51508L88.6875 248.51508Q90.015625 248.51508 90.71875 248.67133Q91.703125 248.9057 92.40625 249.49945Q93.3125 250.26508 93.75 251.45258Q94.203125 252.64008 94.203125 254.17133Q94.203125 255.48383 93.890625 256.49945Q93.59375 257.49945 93.109375 258.1557Q92.640625 258.81195 92.078125 259.20258Q91.515625 259.57758 90.703125 259.7807Q89.90625 259.9682 88.875 259.9682L84.734375 259.9682ZM86.25 258.60883L88.703125 258.60883Q89.828125 258.60883 90.46875 258.4057Q91.125 258.18695 91.5 257.81195Q92.046875 257.26508 92.34375 256.35883Q92.640625 255.45258 92.640625 254.1557Q92.640625 252.35883 92.046875 251.39008Q91.46875 250.42133 90.625 250.0932Q90.015625 249.85883 88.65625 249.85883L86.25 249.85883L86.25 258.60883ZM96.671875 259.9682L96.671875 248.51508L100.96875 248.51508Q102.28125 248.51508 103.078125 248.85883Q103.875 249.20258 104.3125 249.93695Q104.765625 250.6557 104.765625 251.43695Q104.765625 252.17133 104.359375 252.82758Q103.96875 253.4682 103.171875 253.87445Q104.203125 254.17133 104.765625 254.9057Q105.328125 255.64008 105.328125 256.64008Q105.328125 257.45258 104.984375 258.14008Q104.640625 258.82758 104.140625 259.20258Q103.640625 259.57758 102.890625 259.7807Q102.140625 259.9682 101.046875 259.9682L96.671875 259.9682ZM98.1875 253.32758L100.671875 253.32758Q101.671875 253.32758 102.109375 253.18695Q102.6875 253.01508 102.984375 252.62445Q103.28125 252.2182 103.28125 251.62445Q103.28125 251.04633 103.0 250.62445Q102.734375 250.18695 102.21875 250.0307Q101.71875 249.85883 100.484375 249.85883L98.1875 249.85883L98.1875 253.32758ZM98.1875 258.60883L101.046875 258.60883Q101.78125 258.60883 102.078125 258.56195Q102.59375 258.4682 102.9375 258.24945Q103.296875 258.0307 103.515625 257.60883Q103.75 257.18695 103.75 256.64008Q103.75 255.99945 103.421875 255.5307Q103.09375 255.06195 102.515625 254.87445Q101.9375 254.67133 100.84375 254.67133L98.1875 254.67133L98.1875 258.60883ZM107.6875 259.9682L107.6875 248.51508L109.96875 248.51508L112.6875 256.62445Q113.0625 257.74945 113.234375 258.31195Q113.421875 257.68695 113.84375 256.48383L116.578125 248.51508L118.625 248.51508L118.625 259.9682L117.15625 259.9682L117.15625 250.37445L113.828125 259.9682L112.46875 259.9682L109.15625 250.2182L109.15625 259.9682L107.6875 259.9682Z" fill-rule="nonzero"/><path fill="#000000" d="M24.21875 296.62753L25.65625 296.50253Q25.75 297.3619 26.125 297.9244Q26.5 298.47128 27.28125 298.81503Q28.0625 299.14316 29.03125 299.14316Q29.90625 299.14316 30.5625 298.89316Q31.234375 298.62753 31.546875 298.19003Q31.875 297.7369 31.875 297.20566Q31.875 296.65878 31.5625 296.26816Q31.25 295.8619 30.53125 295.58066Q30.078125 295.40878 28.5 295.03378Q26.921875 294.64316 26.28125 294.31503Q25.46875 293.87753 25.0625 293.25253Q24.65625 292.6119 24.65625 291.81503Q24.65625 290.95566 25.140625 290.20566Q25.640625 289.44003 26.578125 289.0494Q27.53125 288.65878 28.6875 288.65878Q29.96875 288.65878 30.9375 289.08066Q31.90625 289.4869 32.421875 290.28378Q32.953125 291.08066 33.0 292.08066L31.546875 292.19003Q31.421875 291.1119 30.75 290.56503Q30.078125 290.00253 28.75 290.00253Q27.375 290.00253 26.75 290.50253Q26.125 291.00253 26.125 291.72128Q26.125 292.33066 26.5625 292.7369Q27.0 293.12753 28.84375 293.5494Q30.703125 293.97128 31.390625 294.28378Q32.390625 294.7369 32.859375 295.45566Q33.34375 296.15878 33.34375 297.08066Q33.34375 297.9869 32.8125 298.7994Q32.296875 299.6119 31.3125 300.06503Q30.328125 300.51816 29.109375 300.51816Q27.546875 300.51816 26.5 300.06503Q25.453125 299.59628 24.84375 298.69003Q24.25 297.78378 24.21875 296.62753ZM38.625 299.0494L38.828125 300.2994Q38.234375 300.4244 37.765625 300.4244Q37.0 300.4244 36.578125 300.19003Q36.15625 299.94003 35.984375 299.5494Q35.8125 299.14316 35.8125 297.87753L35.8125 293.1119L34.78125 293.1119L34.78125 292.01816L35.8125 292.01816L35.8125 289.95566L37.21875 289.1119L37.21875 292.01816L38.625 292.01816L38.625 293.1119L37.21875 293.1119L37.21875 297.95566Q37.21875 298.56503 37.28125 298.7369Q37.359375 298.90878 37.53125 299.01816Q37.703125 299.1119 38.015625 299.1119Q38.25 299.1119 38.625 299.0494ZM44.9375 300.31503L44.9375 299.26816Q44.15625 300.50253 42.625 300.50253Q41.625 300.50253 40.796875 299.95566Q39.96875 299.40878 39.5 298.4244Q39.046875 297.44003 39.046875 296.1744Q39.046875 294.9244 39.453125 293.9244Q39.875 292.90878 40.703125 292.37753Q41.53125 291.83066 42.5625 291.83066Q43.3125 291.83066 43.890625 292.14316Q44.484375 292.45566 44.84375 292.97128L44.84375 288.8619L46.25 288.8619L46.25 300.31503L44.9375 300.31503ZM40.5 296.1744Q40.5 297.76816 41.171875 298.56503Q41.84375 299.34628 42.75 299.34628Q43.671875 299.34628 44.3125 298.59628Q44.96875 297.83066 44.96875 296.28378Q44.96875 294.58066 44.3125 293.78378Q43.65625 292.9869 42.6875 292.9869Q41.75 292.9869 41.125 293.75253Q40.5 294.51816 40.5 296.1744ZM48.78125 300.31503L48.78125 288.8619L50.296875 288.8619L50.296875 293.56503L56.25 293.56503L56.25 288.8619L57.765625 288.8619L57.765625 300.31503L56.25 300.31503L56.25 294.90878L50.296875 294.90878L50.296875 300.31503L48.78125 300.31503ZM64.96875 299.28378Q64.1875 299.95566 63.46875 300.2369Q62.75 300.50253 61.921875 300.50253Q60.546875 300.50253 59.8125 299.83066Q59.078125 299.15878 59.078125 298.12753Q59.078125 297.51816 59.359375 297.01816Q59.640625 296.50253 60.078125 296.20566Q60.53125 295.89316 61.09375 295.7369Q61.515625 295.62753 62.34375 295.53378Q64.046875 295.33066 64.859375 295.0494Q64.859375 294.75253 64.859375 294.6744Q64.859375 293.81503 64.46875 293.47128Q63.921875 292.9869 62.859375 292.9869Q61.875 292.9869 61.390625 293.34628Q60.921875 293.69003 60.703125 294.56503L59.328125 294.37753Q59.515625 293.50253 59.9375 292.95566Q60.375 292.40878 61.1875 292.12753Q62.0 291.83066 63.0625 291.83066Q64.125 291.83066 64.78125 292.08066Q65.453125 292.33066 65.765625 292.70566Q66.078125 293.08066 66.203125 293.65878Q66.28125 294.01816 66.28125 294.95566L66.28125 296.83066Q66.28125 298.7994 66.359375 299.31503Q66.453125 299.83066 66.71875 300.31503L65.25 300.31503Q65.03125 299.87753 64.96875 299.28378ZM64.859375 296.14316Q64.09375 296.45566 62.5625 296.6744Q61.6875 296.7994 61.328125 296.95566Q60.96875 297.1119 60.765625 297.4244Q60.578125 297.72128 60.578125 298.08066Q60.578125 298.64316 61.0 299.01816Q61.4375 299.39316 62.25 299.39316Q63.0625 299.39316 63.6875 299.0494Q64.328125 298.69003 64.625 298.06503Q64.859375 297.59628 64.859375 296.65878L64.859375 296.14316ZM68.0 297.83066L69.390625 297.6119Q69.5 298.45566 70.03125 298.90878Q70.578125 299.34628 71.53125 299.34628Q72.5 299.34628 72.96875 298.95566Q73.4375 298.5494 73.4375 298.01816Q73.4375 297.5494 73.03125 297.26816Q72.734375 297.08066 71.59375 296.7994Q70.046875 296.40878 69.4375 296.12753Q68.84375 295.83066 68.53125 295.33066Q68.234375 294.83066 68.234375 294.22128Q68.234375 293.65878 68.484375 293.19003Q68.734375 292.72128 69.171875 292.40878Q69.5 292.15878 70.0625 292.00253Q70.640625 291.83066 71.28125 291.83066Q72.265625 291.83066 73.0 292.1119Q73.734375 292.39316 74.078125 292.87753Q74.4375 293.34628 74.578125 294.15878L73.203125 294.34628Q73.109375 293.70566 72.65625 293.34628Q72.203125 292.9869 71.390625 292.9869Q70.421875 292.9869 70.0 293.31503Q69.59375 293.62753 69.59375 294.0494Q69.59375 294.33066 69.765625 294.5494Q69.9375 294.76816 70.296875 294.9244Q70.515625 295.00253 71.546875 295.28378Q73.03125 295.6744 73.625 295.94003Q74.21875 296.19003 74.546875 296.6744Q74.890625 297.15878 74.890625 297.87753Q74.890625 298.58066 74.46875 299.20566Q74.0625 299.81503 73.28125 300.15878Q72.515625 300.50253 71.546875 300.50253Q69.921875 300.50253 69.078125 299.83066Q68.234375 299.15878 68.0 297.83066ZM76.5625 300.31503L76.5625 288.8619L77.96875 288.8619L77.96875 292.97128Q78.953125 291.83066 80.453125 291.83066Q81.375 291.83066 82.046875 292.19003Q82.734375 292.5494 83.015625 293.19003Q83.3125 293.83066 83.3125 295.0494L83.3125 300.31503L81.90625 300.31503L81.90625 295.0494Q81.90625 294.00253 81.453125 293.51816Q81.0 293.03378 80.15625 293.03378Q79.53125 293.03378 78.984375 293.3619Q78.4375 293.69003 78.203125 294.25253Q77.96875 294.7994 77.96875 295.76816L77.96875 300.31503L76.5625 300.31503ZM84.734375 300.31503L84.734375 288.8619L88.6875 288.8619Q90.015625 288.8619 90.71875 289.01816Q91.703125 289.25253 92.40625 289.84628Q93.3125 290.6119 93.75 291.7994Q94.203125 292.9869 94.203125 294.51816Q94.203125 295.83066 93.890625 296.84628Q93.59375 297.84628 93.109375 298.50253Q92.640625 299.15878 92.078125 299.5494Q91.515625 299.9244 90.703125 300.12753Q89.90625 300.31503 88.875 300.31503L84.734375 300.31503ZM86.25 298.95566L88.703125 298.95566Q89.828125 298.95566 90.46875 298.75253Q91.125 298.53378 91.5 298.15878Q92.046875 297.6119 92.34375 296.70566Q92.640625 295.7994 92.640625 294.50253Q92.640625 292.70566 92.046875 291.7369Q91.46875 290.76816 90.625 290.44003Q90.015625 290.20566 88.65625 290.20566L86.25 290.20566L86.25 298.95566ZM96.671875 300.31503L96.671875 288.8619L100.96875 288.8619Q102.28125 288.8619 103.078125 289.20566Q103.875 289.5494 104.3125 290.28378Q104.765625 291.00253 104.765625 291.78378Q104.765625 292.51816 104.359375 293.1744Q103.96875 293.81503 103.171875 294.22128Q104.203125 294.51816 104.765625 295.25253Q105.328125 295.9869 105.328125 296.9869Q105.328125 297.7994 104.984375 298.4869Q104.640625 299.1744 104.140625 299.5494Q103.640625 299.9244 102.890625 300.12753Q102.140625 300.31503 101.046875 300.31503L96.671875 300.31503ZM98.1875 293.6744L100.671875 293.6744Q101.671875 293.6744 102.109375 293.53378Q102.6875 293.3619 102.984375 292.97128Q103.28125 292.56503 103.28125 291.97128Q103.28125 291.39316 103.0 290.97128Q102.734375 290.53378 102.21875 290.37753Q101.71875 290.20566 100.484375 290.20566L98.1875 290.20566L98.1875 293.6744ZM98.1875 298.95566L101.046875 298.95566Q101.78125 298.95566 102.078125 298.90878Q102.59375 298.81503 102.9375 298.59628Q103.296875 298.37753 103.515625 297.95566Q103.75 297.53378 103.75 296.9869Q103.75 296.34628 103.421875 295.87753Q103.09375 295.40878 102.515625 295.22128Q101.9375 295.01816 100.84375 295.01816L98.1875 295.01816L98.1875 298.95566ZM107.6875 300.31503L107.6875 288.8619L109.96875 288.8619L112.6875 296.97128Q113.0625 298.09628 113.234375 298.65878Q113.421875 298.03378 113.84375 296.83066L116.578125 288.8619L118.625 288.8619L118.625 300.31503L117.15625 300.31503L117.15625 290.72128L113.828125 300.31503L112.46875 300.31503L109.15625 290.56503L109.15625 300.31503L107.6875 300.31503Z" fill-rule="nonzero"/><path fill="#000000" d="M28.21875 336.97437L29.65625 336.84937Q29.75 337.70874 30.125 338.27124Q30.5 338.8181 31.28125 339.16187Q32.0625 339.49 33.03125 339.49Q33.90625 339.49 34.5625 339.24Q35.234375 338.97437 35.546875 338.53687Q35.875 338.08374 35.875 337.5525Q35.875 337.0056 35.5625 336.615Q35.25 336.20874 34.53125 335.9275Q34.078125 335.7556 32.5 335.3806Q30.921875 334.99 30.28125 334.66187Q29.46875 334.22437 29.0625 333.59937Q28.65625 332.95874 28.65625 332.16187Q28.65625 331.3025 29.140625 330.5525Q29.640625 329.78687 30.578125 329.39624Q31.53125 329.0056 32.6875 329.0056Q33.96875 329.0056 34.9375 329.4275Q35.90625 329.83374 36.421875 330.6306Q36.953125 331.4275 37.0 332.4275L35.546875 332.53687Q35.421875 331.45874 34.75 330.91187Q34.078125 330.34937 32.75 330.34937Q31.375 330.34937 30.75 330.84937Q30.125 331.34937 30.125 332.0681Q30.125 332.6775 30.5625 333.08374Q31.0 333.47437 32.84375 333.89624Q34.703125 334.3181 35.390625 334.6306Q36.390625 335.08374 36.859375 335.8025Q37.34375 336.5056 37.34375 337.4275Q37.34375 338.33374 36.8125 339.14624Q36.296875 339.95874 35.3125 340.41187Q34.328125 340.865 33.109375 340.865Q31.546875 340.865 30.5 340.41187Q29.453125 339.9431 28.84375 339.03687Q28.25 338.1306 28.21875 336.97437ZM42.625 339.39624L42.828125 340.64624Q42.234375 340.77124 41.765625 340.77124Q41.0 340.77124 40.578125 340.53687Q40.15625 340.28687 39.984375 339.89624Q39.8125 339.49 39.8125 338.22437L39.8125 333.45874L38.78125 333.45874L38.78125 332.365L39.8125 332.365L39.8125 330.3025L41.21875 329.45874L41.21875 332.365L42.625 332.365L42.625 333.45874L41.21875 333.45874L41.21875 338.3025Q41.21875 338.91187 41.28125 339.08374Q41.359375 339.2556 41.53125 339.365Q41.703125 339.45874 42.015625 339.45874Q42.25 339.45874 42.625 339.39624ZM48.9375 340.66187L48.9375 339.615Q48.15625 340.84937 46.625 340.84937Q45.625 340.84937 44.796875 340.3025Q43.96875 339.7556 43.5 338.77124Q43.046875 337.78687 43.046875 336.52124Q43.046875 335.27124 43.453125 334.27124Q43.875 333.2556 44.703125 332.72437Q45.53125 332.1775 46.5625 332.1775Q47.3125 332.1775 47.890625 332.49Q48.484375 332.8025 48.84375 333.3181L48.84375 329.20874L50.25 329.20874L50.25 340.66187L48.9375 340.66187ZM44.5 336.52124Q44.5 338.115 45.171875 338.91187Q45.84375 339.6931 46.75 339.6931Q47.671875 339.6931 48.3125 338.9431Q48.96875 338.1775 48.96875 336.6306Q48.96875 334.9275 48.3125 334.1306Q47.65625 333.33374 46.6875 333.33374Q45.75 333.33374 45.125 334.09937Q44.5 334.865 44.5 336.52124ZM55.65625 340.66187L55.65625 330.5525L51.875 330.5525L51.875 329.20874L60.953125 329.20874L60.953125 330.5525L57.171875 330.5525L57.171875 340.66187L55.65625 340.66187ZM61.546875 340.66187L61.546875 332.365L62.8125 332.365L62.8125 333.615Q63.296875 332.74 63.703125 332.45874Q64.109375 332.1775 64.609375 332.1775Q65.3125 332.1775 66.046875 332.6306L65.5625 333.9275Q65.046875 333.6306 64.53125 333.6306Q64.078125 333.6306 63.703125 333.91187Q63.34375 334.1775 63.1875 334.6775Q62.953125 335.4275 62.953125 336.3181L62.953125 340.66187L61.546875 340.66187ZM72.234375 337.99L73.6875 338.16187Q73.34375 339.4431 72.40625 340.14624Q71.484375 340.84937 70.046875 340.84937Q68.21875 340.84937 67.15625 339.72437Q66.09375 338.59937 66.09375 336.58374Q66.09375 334.49 67.171875 333.33374Q68.25 332.1775 69.96875 332.1775Q71.625 332.1775 72.671875 333.3181Q73.734375 334.4431 73.734375 336.49Q73.734375 336.615 73.734375 336.865L67.546875 336.865Q67.625 338.24 68.3125 338.97437Q69.015625 339.6931 70.046875 339.6931Q70.828125 339.6931 71.375 339.28687Q71.921875 338.8806 72.234375 337.99ZM67.625 335.70874L72.25 335.70874Q72.15625 334.66187 71.71875 334.14624Q71.046875 333.33374 69.984375 333.33374Q69.015625 333.33374 68.34375 333.99Q67.6875 334.6306 67.625 335.70874ZM81.234375 337.99L82.6875 338.16187Q82.34375 339.4431 81.40625 340.14624Q80.484375 340.84937 79.046875 340.84937Q77.21875 340.84937 76.15625 339.72437Q75.09375 338.59937 75.09375 336.58374Q75.09375 334.49 76.171875 333.33374Q77.25 332.1775 78.96875 332.1775Q80.625 332.1775 81.671875 333.3181Q82.734375 334.4431 82.734375 336.49Q82.734375 336.615 82.734375 336.865L76.546875 336.865Q76.625 338.24 77.3125 338.97437Q78.015625 339.6931 79.046875 339.6931Q79.828125 339.6931 80.375 339.28687Q80.921875 338.8806 81.234375 337.99ZM76.625 335.70874L81.25 335.70874Q81.15625 334.66187 80.71875 334.14624Q80.046875 333.33374 78.984375 333.33374Q78.015625 333.33374 77.34375 333.99Q76.6875 334.6306 76.625 335.70874ZM84.734375 340.66187L84.734375 329.20874L88.6875 329.20874Q90.015625 329.20874 90.71875 329.365Q91.703125 329.59937 92.40625 330.1931Q93.3125 330.95874 93.75 332.14624Q94.203125 333.33374 94.203125 334.865Q94.203125 336.1775 93.890625 337.1931Q93.59375 338.1931 93.109375 338.84937Q92.640625 339.5056 92.078125 339.89624Q91.515625 340.27124 90.703125 340.47437Q89.90625 340.66187 88.875 340.66187L84.734375 340.66187ZM86.25 339.3025L88.703125 339.3025Q89.828125 339.3025 90.46875 339.09937Q91.125 338.8806 91.5 338.5056Q92.046875 337.95874 92.34375 337.0525Q92.640625 336.14624 92.640625 334.84937Q92.640625 333.0525 92.046875 332.08374Q91.46875 331.115 90.625 330.78687Q90.015625 330.5525 88.65625 330.5525L86.25 330.5525L86.25 339.3025ZM96.671875 340.66187L96.671875 329.20874L100.96875 329.20874Q102.28125 329.20874 103.078125 329.5525Q103.875 329.89624 104.3125 330.6306Q104.765625 331.34937 104.765625 332.1306Q104.765625 332.865 104.359375 333.52124Q103.96875 334.16187 103.171875 334.5681Q104.203125 334.865 104.765625 335.59937Q105.328125 336.33374 105.328125 337.33374Q105.328125 338.14624 104.984375 338.83374Q104.640625 339.52124 104.140625 339.89624Q103.640625 340.27124 102.890625 340.47437Q102.140625 340.66187 101.046875 340.66187L96.671875 340.66187ZM98.1875 334.02124L100.671875 334.02124Q101.671875 334.02124 102.109375 333.8806Q102.6875 333.70874 102.984375 333.3181Q103.28125 332.91187 103.28125 332.3181Q103.28125 331.74 103.0 331.3181Q102.734375 330.8806 102.21875 330.72437Q101.71875 330.5525 100.484375 330.5525L98.1875 330.5525L98.1875 334.02124ZM98.1875 339.3025L101.046875 339.3025Q101.78125 339.3025 102.078125 339.2556Q102.59375 339.16187 102.9375 338.9431Q103.296875 338.72437 103.515625 338.3025Q103.75 337.8806 103.75 337.33374Q103.75 336.6931 103.421875 336.22437Q103.09375 335.7556 102.515625 335.5681Q101.9375 335.365 100.84375 335.365L98.1875 335.365L98.1875 339.3025ZM107.6875 340.66187L107.6875 329.20874L109.96875 329.20874L112.6875 337.3181Q113.0625 338.4431 113.234375 339.0056Q113.421875 338.3806 113.84375 337.1775L116.578125 329.20874L118.625 329.20874L118.625 340.66187L117.15625 340.66187L117.15625 331.0681L113.828125 340.66187L112.46875 340.66187L109.15625 330.91187L109.15625 340.66187L107.6875 340.66187Z" fill-rule="nonzero"/><path fill="#000000" d="M123.671875 379.73972Q123.671875 377.70847 124.078125 376.4741Q124.5 375.23972 125.328125 374.56784Q126.15625 373.89597 127.40625 373.89597Q128.32812 373.89597 129.01562 374.27097Q129.71875 374.63034 130.17188 375.33347Q130.625 376.0366 130.875 377.0366Q131.14062 378.0366 131.14062 379.73972Q131.14062 381.75534 130.71875 383.00534Q130.3125 384.23972 129.48438 384.92722Q128.65625 385.5991 127.40625 385.5991Q125.75 385.5991 124.796875 384.39597Q123.671875 382.9741 123.671875 379.73972ZM125.109375 379.73972Q125.109375 382.56784 125.765625 383.50534Q126.4375 384.42722 127.40625 384.42722Q128.375 384.42722 129.03125 383.48972Q129.6875 382.55222 129.6875 379.73972Q129.6875 376.9116 129.03125 375.98972Q128.375 375.05222 127.390625 375.05222Q126.421875 375.05222 125.84375 375.88034Q125.109375 376.92722 125.109375 379.73972Z" fill-rule="nonzero"/><path fill="#000000" d="M288.2454 382.39597L289.71414 382.27097Q289.88602 383.3491 290.47977 383.89597Q291.07352 384.42722 291.91727 384.42722Q292.9329 384.42722 293.63602 383.6616Q294.33914 382.89597 294.33914 381.63034Q294.33914 380.42722 293.66727 379.73972Q292.9954 379.0366 291.90164 379.0366Q291.21414 379.0366 290.66727 379.3491Q290.1204 379.6616 289.8079 380.14597L288.4954 379.9741L289.60477 374.0991L295.29227 374.0991L295.29227 375.44284L290.72977 375.44284L290.10477 378.52097Q291.13602 377.80222 292.27664 377.80222Q293.77664 377.80222 294.8079 378.8491Q295.83914 379.88034 295.83914 381.50534Q295.83914 383.06784 294.9329 384.19284Q293.82352 385.5991 291.91727 385.5991Q290.35477 385.5991 289.3704 384.7241Q288.38602 383.83347 288.2454 382.39597ZM297.9954 385.39597L297.9954 383.7866L299.60477 383.7866L299.60477 385.39597Q299.60477 386.2866 299.29227 386.81784Q298.97977 387.36472 298.29227 387.6616L297.90164 387.06784Q298.35477 386.86472 298.5579 386.48972Q298.77664 386.11472 298.79227 385.39597L297.9954 385.39597ZM301.2454 379.73972Q301.2454 377.70847 301.65164 376.4741Q302.07352 375.23972 302.90164 374.56784Q303.72977 373.89597 304.97977 373.89597Q305.90164 373.89597 306.58914 374.27097Q307.29227 374.63034 307.7454 375.33347Q308.19852 376.0366 308.44852 377.0366Q308.71414 378.0366 308.71414 379.73972Q308.71414 381.75534 308.29227 383.00534Q307.88602 384.23972 307.0579 384.92722Q306.22977 385.5991 304.97977 385.5991Q303.32352 385.5991 302.3704 384.39597Q301.2454 382.9741 301.2454 379.73972ZM302.6829 379.73972Q302.6829 382.56784 303.33914 383.50534Q304.01102 384.42722 304.97977 384.42722Q305.94852 384.42722 306.60477 383.48972Q307.26102 382.55222 307.26102 379.73972Q307.26102 376.9116 306.60477 375.98972Q305.94852 375.05222 304.96414 375.05222Q303.9954 375.05222 303.41727 375.88034Q302.6829 376.92722 302.6829 379.73972ZM310.2454 379.73972Q310.2454 377.70847 310.65164 376.4741Q311.07352 375.23972 311.90164 374.56784Q312.72977 373.89597 313.97977 373.89597Q314.90164 373.89597 315.58914 374.27097Q316.29227 374.63034 316.7454 375.33347Q317.19852 376.0366 317.44852 377.0366Q317.71414 378.0366 317.71414 379.73972Q317.71414 381.75534 317.29227 383.00534Q316.88602 384.23972 316.0579 384.92722Q315.22977 385.5991 313.97977 385.5991Q312.32352 385.5991 311.3704 384.39597Q310.2454 382.9741 310.2454 379.73972ZM311.6829 379.73972Q311.6829 382.56784 312.33914 383.50534Q313.01102 384.42722 313.97977 384.42722Q314.94852 384.42722 315.60477 383.48972Q316.26102 382.55222 316.26102 379.73972Q316.26102 376.9116 315.60477 375.98972Q314.94852 375.05222 313.96414 375.05222Q312.9954 375.05222 312.41727 375.88034Q311.6829 376.92722 311.6829 379.73972ZM319.2454 379.73972Q319.2454 377.70847 319.65164 376.4741Q320.07352 375.23972 320.90164 374.56784Q321.72977 373.89597 322.97977 373.89597Q323.90164 373.89597 324.58914 374.27097Q325.29227 374.63034 325.7454 375.33347Q326.19852 376.0366 326.44852 377.0366Q326.71414 378.0366 326.71414 379.73972Q326.71414 381.75534 326.29227 383.00534Q325.88602 384.23972 325.0579 384.92722Q324.22977 385.5991 322.97977 385.5991Q321.32352 385.5991 320.3704 384.39597Q319.2454 382.9741 319.2454 379.73972ZM320.6829 379.73972Q320.6829 382.56784 321.33914 383.50534Q322.01102 384.42722 322.97977 384.42722Q323.94852 384.42722 324.60477 383.48972Q325.26102 382.55222 325.26102 379.73972Q325.26102 376.9116 324.60477 375.98972Q323.94852 375.05222 322.96414 375.05222Q321.9954 375.05222 321.41727 375.88034Q320.6829 376.92722 320.6829 379.73972ZM328.9954 385.39597L328.9954 383.7866L330.60477 383.7866L330.60477 385.39597Q330.60477 386.2866 330.29227 386.81784Q329.97977 387.36472 329.29227 387.6616L328.90164 387.06784Q329.35477 386.86472 329.5579 386.48972Q329.77664 386.11472 329.79227 385.39597L328.9954 385.39597ZM332.2454 379.73972Q332.2454 377.70847 332.65164 376.4741Q333.07352 375.23972 333.90164 374.56784Q334.72977 373.89597 335.97977 373.89597Q336.90164 373.89597 337.58914 374.27097Q338.29227 374.63034 338.7454 375.33347Q339.19852 376.0366 339.44852 377.0366Q339.71414 378.0366 339.71414 379.73972Q339.71414 381.75534 339.29227 383.00534Q338.88602 384.23972 338.0579 384.92722Q337.22977 385.5991 335.97977 385.5991Q334.32352 385.5991 333.3704 384.39597Q332.2454 382.9741 332.2454 379.73972ZM333.6829 379.73972Q333.6829 382.56784 334.33914 383.50534Q335.01102 384.42722 335.97977 384.42722Q336.94852 384.42722 337.60477 383.48972Q338.26102 382.55222 338.26102 379.73972Q338.26102 376.9116 337.60477 375.98972Q336.94852 375.05222 335.96414 375.05222Q334.9954 375.05222 334.41727 375.88034Q333.6829 376.92722 333.6829 379.73972ZM341.2454 379.73972Q341.2454 377.70847 341.65164 376.4741Q342.07352 375.23972 342.90164 374.56784Q343.72977 373.89597 344.97977 373.89597Q345.90164 373.89597 346.58914 374.27097Q347.29227 374.63034 347.7454 375.33347Q348.19852 376.0366 348.44852 377.0366Q348.71414 378.0366 348.71414 379.73972Q348.71414 381.75534 348.29227 383.00534Q347.88602 384.23972 347.0579 384.92722Q346.22977 385.5991 344.97977 385.5991Q343.32352 385.5991 342.3704 384.39597Q341.2454 382.9741 341.2454 379.73972ZM342.6829 379.73972Q342.6829 382.56784 343.33914 383.50534Q344.01102 384.42722 344.97977 384.42722Q345.94852 384.42722 346.60477 383.48972Q347.26102 382.55222 347.26102 379.73972Q347.26102 376.9116 346.60477 375.98972Q345.94852 375.05222 344.96414 375.05222Q343.9954 375.05222 343.41727 375.88034Q342.6829 376.92722 342.6829 379.73972ZM350.2454 379.73972Q350.2454 377.70847 350.65164 376.4741Q351.07352 375.23972 351.90164 374.56784Q352.72977 373.89597 353.97977 373.89597Q354.90164 373.89597 355.58914 374.27097Q356.29227 374.63034 356.7454 375.33347Q357.19852 376.0366 357.44852 377.0366Q357.71414 378.0366 357.71414 379.73972Q357.71414 381.75534 357.29227 383.00534Q356.88602 384.23972 356.0579 384.92722Q355.22977 385.5991 353.97977 385.5991Q352.32352 385.5991 351.3704 384.39597Q350.2454 382.9741 350.2454 379.73972ZM351.6829 379.73972Q351.6829 382.56784 352.33914 383.50534Q353.01102 384.42722 353.97977 384.42722Q354.94852 384.42722 355.60477 383.48972Q356.26102 382.55222 356.26102 379.73972Q356.26102 376.9116 355.60477 375.98972Q354.94852 375.05222 353.96414 375.05222Q352.9954 375.05222 352.41727 375.88034Q351.6829 376.92722 351.6829 379.73972Z" fill-rule="nonzero"/><path fill="#000000" d="M484.6158 385.39597L483.20956 385.39597L483.20956 376.42722Q482.69394 376.9116 481.8658 377.39597Q481.0533 377.88034 480.39706 378.13034L480.39706 376.77097Q481.56894 376.20847 482.44394 375.42722Q483.33456 374.63034 483.70956 373.89597L484.6158 373.89597L484.6158 385.39597ZM488.31894 379.73972Q488.31894 377.70847 488.7252 376.4741Q489.14706 375.23972 489.9752 374.56784Q490.8033 373.89597 492.0533 373.89597Q492.9752 373.89597 493.6627 374.27097Q494.3658 374.63034 494.81894 375.33347Q495.27206 376.0366 495.52206 377.0366Q495.7877 378.0366 495.7877 379.73972Q495.7877 381.75534 495.3658 383.00534Q494.95956 384.23972 494.13144 384.92722Q493.3033 385.5991 492.0533 385.5991Q490.39706 385.5991 489.44394 384.39597Q488.31894 382.9741 488.31894 379.73972ZM489.75644 379.73972Q489.75644 382.56784 490.4127 383.50534Q491.08456 384.42722 492.0533 384.42722Q493.02206 384.42722 493.6783 383.48972Q494.33456 382.55222 494.33456 379.73972Q494.33456 376.9116 493.6783 375.98972Q493.02206 375.05222 492.0377 375.05222Q491.06894 375.05222 490.4908 375.88034Q489.75644 376.92722 489.75644 379.73972ZM498.06894 385.39597L498.06894 383.7866L499.6783 383.7866L499.6783 385.39597Q499.6783 386.2866 499.3658 386.81784Q499.0533 387.36472 498.3658 387.6616L497.9752 387.06784Q498.4283 386.86472 498.63144 386.48972Q498.8502 386.11472 498.8658 385.39597L498.06894 385.39597ZM501.31894 379.73972Q501.31894 377.70847 501.7252 376.4741Q502.14706 375.23972 502.9752 374.56784Q503.8033 373.89597 505.0533 373.89597Q505.9752 373.89597 506.6627 374.27097Q507.3658 374.63034 507.81894 375.33347Q508.27206 376.0366 508.52206 377.0366Q508.7877 378.0366 508.7877 379.73972Q508.7877 381.75534 508.3658 383.00534Q507.95956 384.23972 507.13144 384.92722Q506.3033 385.5991 505.0533 385.5991Q503.39706 385.5991 502.44394 384.39597Q501.31894 382.9741 501.31894 379.73972ZM502.75644 379.73972Q502.75644 382.56784 503.4127 383.50534Q504.08456 384.42722 505.0533 384.42722Q506.02206 384.42722 506.6783 383.48972Q507.33456 382.55222 507.33456 379.73972Q507.33456 376.9116 506.6783 375.98972Q506.02206 375.05222 505.0377 375.05222Q504.06894 375.05222 503.4908 375.88034Q502.75644 376.92722 502.75644 379.73972ZM510.31894 379.73972Q510.31894 377.70847 510.7252 376.4741Q511.14706 375.23972 511.9752 374.56784Q512.80334 373.89597 514.05334 373.89597Q514.9752 373.89597 515.6627 374.27097Q516.36584 374.63034 516.819 375.33347Q517.2721 376.0366 517.5221 377.0366Q517.7877 378.0366 517.7877 379.73972Q517.7877 381.75534 517.36584 383.00534Q516.9596 384.23972 516.1315 384.92722Q515.30334 385.5991 514.05334 385.5991Q512.3971 385.5991 511.44394 384.39597Q510.31894 382.9741 510.31894 379.73972ZM511.75644 379.73972Q511.75644 382.56784 512.4127 383.50534Q513.0846 384.42722 514.05334 384.42722Q515.0221 384.42722 515.67834 383.48972Q516.3346 382.55222 516.3346 379.73972Q516.3346 376.9116 515.67834 375.98972Q515.0221 375.05222 514.0377 375.05222Q513.069 375.05222 512.49084 375.88034Q511.75644 376.92722 511.75644 379.73972ZM519.319 379.73972Q519.319 377.70847 519.7252 376.4741Q520.1471 375.23972 520.9752 374.56784Q521.80334 373.89597 523.05334 373.89597Q523.9752 373.89597 524.6627 374.27097Q525.36584 374.63034 525.819 375.33347Q526.2721 376.0366 526.5221 377.0366Q526.7877 378.0366 526.7877 379.73972Q526.7877 381.75534 526.36584 383.00534Q525.9596 384.23972 525.1315 384.92722Q524.30334 385.5991 523.05334 385.5991Q521.3971 385.5991 520.444 384.39597Q519.319 382.9741 519.319 379.73972ZM520.7565 379.73972Q520.7565 382.56784 521.4127 383.50534Q522.0846 384.42722 523.05334 384.42722Q524.0221 384.42722 524.67834 383.48972Q525.3346 382.55222 525.3346 379.73972Q525.3346 376.9116 524.67834 375.98972Q524.0221 375.05222 523.0377 375.05222Q522.069 375.05222 521.49084 375.88034Q520.7565 376.92722 520.7565 379.73972ZM529.069 385.39597L529.069 383.7866L530.67834 383.7866L530.67834 385.39597Q530.67834 386.2866 530.36584 386.81784Q530.05334 387.36472 529.36584 387.6616L528.9752 387.06784Q529.42834 386.86472 529.6315 386.48972Q529.8502 386.11472 529.86584 385.39597L529.069 385.39597ZM532.319 379.73972Q532.319 377.70847 532.7252 376.4741Q533.1471 375.23972 533.9752 374.56784Q534.80334 373.89597 536.05334 373.89597Q536.9752 373.89597 537.6627 374.27097Q538.36584 374.63034 538.819 375.33347Q539.2721 376.0366 539.5221 377.0366Q539.7877 378.0366 539.7877 379.73972Q539.7877 381.75534 539.36584 383.00534Q538.9596 384.23972 538.1315 384.92722Q537.30334 385.5991 536.05334 385.5991Q534.3971 385.5991 533.444 384.39597Q532.319 382.9741 532.319 379.73972ZM533.7565 379.73972Q533.7565 382.56784 534.4127 383.50534Q535.0846 384.42722 536.05334 384.42722Q537.0221 384.42722 537.67834 383.48972Q538.3346 382.55222 538.3346 379.73972Q538.3346 376.9116 537.67834 375.98972Q537.0221 375.05222 536.0377 375.05222Q535.069 375.05222 534.49084 375.88034Q533.7565 376.92722 533.7565 379.73972ZM541.319 379.73972Q541.319 377.70847 541.7252 376.4741Q542.1471 375.23972 542.9752 374.56784Q543.80334 373.89597 545.05334 373.89597Q545.9752 373.89597 546.6627 374.27097Q547.36584 374.63034 547.819 375.33347Q548.2721 376.0366 548.5221 377.0366Q548.7877 378.0366 548.7877 379.73972Q548.7877 381.75534 548.36584 383.00534Q547.9596 384.23972 547.1315 384.92722Q546.30334 385.5991 545.05334 385.5991Q543.3971 385.5991 542.444 384.39597Q541.319 382.9741 541.319 379.73972ZM542.7565 379.73972Q542.7565 382.56784 543.4127 383.50534Q544.0846 384.42722 545.05334 384.42722Q546.0221 384.42722 546.67834 383.48972Q547.3346 382.55222 547.3346 379.73972Q547.3346 376.9116 546.67834 375.98972Q546.0221 375.05222 545.0377 375.05222Q544.069 375.05222 543.49084 375.88034Q542.7565 376.92722 542.7565 379.73972ZM550.319 379.73972Q550.319 377.70847 550.7252 376.4741Q551.1471 375.23972 551.9752 374.56784Q552.80334 373.89597 554.05334 373.89597Q554.9752 373.89597 555.6627 374.27097Q556.36584 374.63034 556.819 375.33347Q557.2721 376.0366 557.5221 377.0366Q557.7877 378.0366 557.7877 379.73972Q557.7877 381.75534 557.36584 383.00534Q556.9596 384.23972 556.1315 384.92722Q555.30334 385.5991 554.05334 385.5991Q552.3971 385.5991 551.444 384.39597Q550.319 382.9741 550.319 379.73972ZM551.7565 379.73972Q551.7565 382.56784 552.4127 383.50534Q553.0846 384.42722 554.05334 384.42722Q555.0221 384.42722 555.67834 383.48972Q556.3346 382.55222 556.3346 379.73972Q556.3346 376.9116 555.67834 375.98972Q555.0221 375.05222 554.0377 375.05222Q553.069 375.05222 552.49084 375.88034Q551.7565 376.92722 551.7565 379.73972Z" fill-rule="nonzero"/><path fill="#000000" d="M680.18933 385.39597L678.7831 385.39597L678.7831 376.42722Q678.26746 376.9116 677.43933 377.39597Q676.62683 377.88034 675.9706 378.13034L675.9706 376.77097Q677.14246 376.20847 678.01746 375.42722Q678.9081 374.63034 679.2831 373.89597L680.18933 373.89597L680.18933 385.39597ZM683.89246 382.39597L685.3612 382.27097Q685.5331 383.3491 686.12683 383.89597Q686.7206 384.42722 687.56433 384.42722Q688.57996 384.42722 689.2831 383.6616Q689.9862 382.89597 689.9862 381.63034Q689.9862 380.42722 689.31433 379.73972Q688.64246 379.0366 687.5487 379.0366Q686.8612 379.0366 686.31433 379.3491Q685.76746 379.6616 685.45496 380.14597L684.14246 379.9741L685.25183 374.0991L690.93933 374.0991L690.93933 375.44284L686.37683 375.44284L685.75183 378.52097Q686.7831 377.80222 687.9237 377.80222Q689.4237 377.80222 690.45496 378.8491Q691.4862 379.88034 691.4862 381.50534Q691.4862 383.06784 690.57996 384.19284Q689.4706 385.5991 687.56433 385.5991Q686.00183 385.5991 685.01746 384.7241Q684.0331 383.83347 683.89246 382.39597ZM693.64246 385.39597L693.64246 383.7866L695.25183 383.7866L695.25183 385.39597Q695.25183 386.2866 694.93933 386.81784Q694.62683 387.36472 693.93933 387.6616L693.5487 387.06784Q694.00183 386.86472 694.20496 386.48972Q694.4237 386.11472 694.43933 385.39597L693.64246 385.39597ZM696.89246 379.73972Q696.89246 377.70847 697.2987 376.4741Q697.7206 375.23972 698.5487 374.56784Q699.37683 373.89597 700.62683 373.89597Q701.5487 373.89597 702.2362 374.27097Q702.93933 374.63034 703.39246 375.33347Q703.8456 376.0366 704.0956 377.0366Q704.3612 378.0366 704.3612 379.73972Q704.3612 381.75534 703.93933 383.00534Q703.5331 384.23972 702.70496 384.92722Q701.87683 385.5991 700.62683 385.5991Q698.9706 385.5991 698.01746 384.39597Q696.89246 382.9741 696.89246 379.73972ZM698.32996 379.73972Q698.32996 382.56784 698.9862 383.50534Q699.6581 384.42722 700.62683 384.42722Q701.5956 384.42722 702.25183 383.48972Q702.9081 382.55222 702.9081 379.73972Q702.9081 376.9116 702.25183 375.98972Q701.5956 375.05222 700.6112 375.05222Q699.64246 375.05222 699.06433 375.88034Q698.32996 376.92722 698.32996 379.73972ZM705.89246 379.73972Q705.89246 377.70847 706.2987 376.4741Q706.7206 375.23972 707.5487 374.56784Q708.37683 373.89597 709.62683 373.89597Q710.5487 373.89597 711.2362 374.27097Q711.93933 374.63034 712.39246 375.33347Q712.8456 376.0366 713.0956 377.0366Q713.3612 378.0366 713.3612 379.73972Q713.3612 381.75534 712.93933 383.00534Q712.5331 384.23972 711.70496 384.92722Q710.87683 385.5991 709.62683 385.5991Q707.9706 385.5991 707.01746 384.39597Q705.89246 382.9741 705.89246 379.73972ZM707.32996 379.73972Q707.32996 382.56784 707.9862 383.50534Q708.6581 384.42722 709.62683 384.42722Q710.5956 384.42722 711.25183 383.48972Q711.9081 382.55222 711.9081 379.73972Q711.9081 376.9116 711.25183 375.98972Q710.5956 375.05222 709.6112 375.05222Q708.64246 375.05222 708.06433 375.88034Q707.32996 376.92722 707.32996 379.73972ZM714.89246 379.73972Q714.89246 377.70847 715.2987 376.4741Q715.7206 375.23972 716.5487 374.56784Q717.37683 373.89597 718.62683 373.89597Q719.5487 373.89597 720.2362 374.27097Q720.93933 374.63034 721.39246 375.33347Q721.8456 376.0366 722.0956 377.0366Q722.3612 378.0366 722.3612 379.73972Q722.3612 381.75534 721.93933 383.00534Q721.5331 384.23972 720.70496 384.92722Q719.87683 385.5991 718.62683 385.5991Q716.9706 385.5991 716.01746 384.39597Q714.89246 382.9741 714.89246 379.73972ZM716.32996 379.73972Q716.32996 382.56784 716.9862 383.50534Q717.6581 384.42722 718.62683 384.42722Q719.5956 384.42722 720.25183 383.48972Q720.9081 382.55222 720.9081 379.73972Q720.9081 376.9116 720.25183 375.98972Q719.5956 375.05222 718.6112 375.05222Q717.64246 375.05222 717.06433 375.88034Q716.32996 376.92722 716.32996 379.73972ZM724.64246 385.39597L724.64246 383.7866L726.25183 383.7866L726.25183 385.39597Q726.25183 386.2866 725.93933 386.81784Q725.62683 387.36472 724.93933 387.6616L724.5487 387.06784Q725.00183 386.86472 725.20496 386.48972Q725.4237 386.11472 725.43933 385.39597L724.64246 385.39597ZM727.89246 379.73972Q727.89246 377.70847 728.2987 376.4741Q728.7206 375.23972 729.5487 374.56784Q730.37683 373.89597 731.62683 373.89597Q732.5487 373.89597 733.2362 374.27097Q733.93933 374.63034 734.39246 375.33347Q734.8456 376.0366 735.0956 377.0366Q735.3612 378.0366 735.3612 379.73972Q735.3612 381.75534 734.93933 383.00534Q734.5331 384.23972 733.70496 384.92722Q732.87683 385.5991 731.62683 385.5991Q729.9706 385.5991 729.01746 384.39597Q727.89246 382.9741 727.89246 379.73972ZM729.32996 379.73972Q729.32996 382.56784 729.9862 383.50534Q730.6581 384.42722 731.62683 384.42722Q732.5956 384.42722 733.25183 383.48972Q733.9081 382.55222 733.9081 379.73972Q733.9081 376.9116 733.25183 375.98972Q732.5956 375.05222 731.6112 375.05222Q730.64246 375.05222 730.06433 375.88034Q729.32996 376.92722 729.32996 379.73972ZM736.89246 379.73972Q736.89246 377.70847 737.2987 376.4741Q737.7206 375.23972 738.5487 374.56784Q739.37683 373.89597 740.62683 373.89597Q741.5487 373.89597 742.2362 374.27097Q742.93933 374.63034 743.39246 375.33347Q743.8456 376.0366 744.0956 377.0366Q744.3612 378.0366 744.3612 379.73972Q744.3612 381.75534 743.93933 383.00534Q743.5331 384.23972 742.70496 384.92722Q741.87683 385.5991 740.62683 385.5991Q738.9706 385.5991 738.01746 384.39597Q736.89246 382.9741 736.89246 379.73972ZM738.32996 379.73972Q738.32996 382.56784 738.9862 383.50534Q739.6581 384.42722 740.62683 384.42722Q741.5956 384.42722 742.25183 383.48972Q742.9081 382.55222 742.9081 379.73972Q742.9081 376.9116 742.25183 375.98972Q741.5956 375.05222 740.6112 375.05222Q739.64246 375.05222 739.06433 375.88034Q738.32996 376.92722 738.32996 379.73972ZM745.89246 379.73972Q745.89246 377.70847 746.2987 376.4741Q746.7206 375.23972 747.5487 374.56784Q748.37683 373.89597 749.62683 373.89597Q750.5487 373.89597 751.2362 374.27097Q751.93933 374.63034 752.39246 375.33347Q752.8456 376.0366 753.0956 377.0366Q753.3612 378.0366 753.3612 379.73972Q753.3612 381.75534 752.93933 383.00534Q752.5331 384.23972 751.70496 384.92722Q750.87683 385.5991 749.62683 385.5991Q747.9706 385.5991 747.01746 384.39597Q745.89246 382.9741 745.89246 379.73972ZM747.32996 379.73972Q747.32996 382.56784 747.9862 383.50534Q748.6581 384.42722 749.62683 384.42722Q750.5956 384.42722 751.25183 383.48972Q751.9081 382.55222 751.9081 379.73972Q751.9081 376.9116 751.25183 375.98972Q750.5956 375.05222 749.6112 375.05222Q748.64246 375.05222 748.06433 375.88034Q747.32996 376.92722 747.32996 379.73972Z" fill-rule="nonzero"/><path fill="#6d9eeb" d="M584.4065 30.336927C584.4065 29.784643 584.8542 29.336927 585.4065 29.336927L595.4065 29.336927C595.95874 29.336927 596.4065 29.784643 596.4065 30.336927L596.4065 40.336926C596.4065 40.889214 595.95874 41.336926 595.4065 41.336926L585.4065 41.336926C584.8542 41.336926 584.4065 40.889214 584.4065 40.336926Z" fill-rule="nonzero"/><path fill="#1a1a1a" d="M605.12524 37.149426L606.56274 37.024426Q606.6565 37.8838 607.0315 38.4463Q607.4065 38.993176 608.18774 39.336926Q608.969 39.66505 609.93774 39.66505Q610.81274 39.66505 611.469 39.41505Q612.14087 39.149426 612.45337 38.711926Q612.7815 38.2588 612.7815 37.72755Q612.7815 37.180676 612.469 36.79005Q612.1565 36.3838 611.43774 36.10255Q610.9846 35.930676 609.4065 35.555676Q607.82837 35.16505 607.18774 34.836926Q606.37524 34.399426 605.969 33.774426Q605.56274 33.1338 605.56274 32.336926Q605.56274 31.47755 606.0471 30.72755Q606.5471 29.961926 607.4846 29.5713Q608.43774 29.180676 609.594 29.180676Q610.87524 29.180676 611.844 29.60255Q612.81274 30.0088 613.32837 30.805676Q613.8596 31.60255 613.9065 32.60255L612.45337 32.711926Q612.32837 31.6338 611.6565 31.086926Q610.9846 30.524426 609.6565 30.524426Q608.2815 30.524426 607.6565 31.024426Q607.0315 31.524426 607.0315 32.243176Q607.0315 32.85255 607.469 33.2588Q607.9065 33.649426 609.75024 34.0713Q611.6096 34.493176 612.2971 34.805676Q613.2971 35.2588 613.76587 35.97755Q614.25024 36.680676 614.25024 37.60255Q614.25024 38.5088 613.719 39.3213Q613.20337 40.1338 612.219 40.586926Q611.2346 41.04005 610.01587 41.04005Q608.45337 41.04005 607.4065 40.586926Q606.3596 40.118176 605.75024 39.211926Q605.1565 38.305676 605.12524 37.149426ZM622.14087 38.16505L623.594 38.336926Q623.25024 39.618176 622.31274 40.3213Q621.39087 41.024426 619.95337 41.024426Q618.12524 41.024426 617.06274 39.899426Q616.00024 38.774426 616.00024 36.7588Q616.00024 34.66505 617.07837 33.5088Q618.1565 32.35255 619.87524 32.35255Q621.5315 32.35255 622.57837 33.493176Q623.64087 34.618176 623.64087 36.66505Q623.64087 36.79005 623.64087 37.04005L617.45337 37.04005Q617.5315 38.41505 618.219 39.149426Q618.9221 39.868176 619.95337 39.868176Q620.7346 39.868176 621.2815 39.461926Q621.82837 39.055676 622.14087 38.16505ZM617.5315 35.8838L622.1565 35.8838Q622.06274 34.836926 621.62524 34.3213Q620.95337 33.5088 619.89087 33.5088Q618.9221 33.5088 618.25024 34.16505Q617.594 34.805676 617.5315 35.8838ZM628.5315 39.5713L628.7346 40.8213Q628.14087 40.9463 627.6721 40.9463Q626.9065 40.9463 626.4846 40.711926Q626.06274 40.461926 625.89087 40.0713Q625.719 39.66505 625.719 38.399426L625.719 33.6338L624.68774 33.6338L624.68774 32.54005L625.719 32.54005L625.719 30.47755L627.12524 29.6338L627.12524 32.54005L628.5315 32.54005L628.5315 33.6338L627.12524 33.6338L627.12524 38.47755Q627.12524 39.086926 627.18774 39.2588Q627.26587 39.430676 627.43774 39.54005Q627.6096 39.6338 627.9221 39.6338Q628.1565 39.6338 628.5315 39.5713Z" fill-rule="nonzero"/><path fill="#e06666" d="M644.4065 30.336927C644.4065 29.784643 644.8542 29.336927 645.4065 29.336927L655.4065 29.336927C655.95874 29.336927 656.4065 29.784643 656.4065 30.336927L656.4065 40.336926C656.4065 40.889214 655.95874 41.336926 655.4065 41.336926L645.4065 41.336926C644.8542 41.336926 644.4065 40.889214 644.4065 40.336926Z" fill-rule="nonzero"/><path fill="#1a1a1a" d="M671.00024 36.336926L671.00024 34.993176L675.8596 34.993176L675.8596 39.243176Q674.7346 40.1338 673.5471 40.586926Q672.3596 41.04005 671.1096 41.04005Q669.4221 41.04005 668.0471 40.3213Q666.6721 39.586926 665.969 38.22755Q665.26587 36.85255 665.26587 35.16505Q665.26587 33.493176 665.95337 32.04005Q666.6565 30.586926 667.969 29.8838Q669.2815 29.180676 671.00024 29.180676Q672.2346 29.180676 673.2346 29.586926Q674.25024 29.993176 674.81274 30.711926Q675.39087 31.430676 675.68774 32.586926L674.31274 32.961926Q674.06274 32.086926 673.6721 31.586926Q673.2971 31.086926 672.57837 30.79005Q671.87524 30.47755 671.00024 30.47755Q669.969 30.47755 669.20337 30.805676Q668.45337 31.118176 667.9846 31.6338Q667.51587 32.149426 667.26587 32.7588Q666.82837 33.8213 666.82837 35.0713Q666.82837 36.60255 667.344 37.6338Q667.87524 38.66505 668.87524 39.16505Q669.89087 39.66505 671.0315 39.66505Q672.01587 39.66505 672.95337 39.29005Q673.89087 38.899426 674.37524 38.47755L674.37524 36.336926L671.00024 36.336926ZM683.14087 38.16505L684.594 38.336926Q684.25024 39.618176 683.31274 40.3213Q682.39087 41.024426 680.95337 41.024426Q679.12524 41.024426 678.06274 39.899426Q677.00024 38.774426 677.00024 36.7588Q677.00024 34.66505 678.07837 33.5088Q679.1565 32.35255 680.87524 32.35255Q682.5315 32.35255 683.57837 33.493176Q684.64087 34.618176 684.64087 36.66505Q684.64087 36.79005 684.64087 37.04005L678.45337 37.04005Q678.5315 38.41505 679.219 39.149426Q679.9221 39.868176 680.95337 39.868176Q681.7346 39.868176 682.2815 39.461926Q682.82837 39.055676 683.14087 38.16505ZM678.5315 35.8838L683.1565 35.8838Q683.06274 34.836926 682.62524 34.3213Q681.95337 33.5088 680.89087 33.5088Q679.9221 33.5088 679.25024 34.16505Q678.594 34.805676 678.5315 35.8838ZM689.5315 39.5713L689.7346 40.8213Q689.14087 40.9463 688.6721 40.9463Q687.9065 40.9463 687.4846 40.711926Q687.06274 40.461926 686.89087 40.0713Q686.719 39.66505 686.719 38.399426L686.719 33.6338L685.68774 33.6338L685.68774 32.54005L686.719 32.54005L686.719 30.47755L688.12524 29.6338L688.12524 32.54005L689.5315 32.54005L689.5315 33.6338L688.12524 33.6338L688.12524 38.47755Q688.12524 39.086926 688.18774 39.2588Q688.26587 39.430676 688.43774 39.54005Q688.6096 39.6338 688.9221 39.6338Q689.1565 39.6338 689.5315 39.5713Z" fill-rule="nonzero"/><path fill="#ffd966" d="M705.4065 30.336927C705.4065 29.784643 705.8542 29.336927 706.4065 29.336927L716.4065 29.336927C716.95874 29.336927 717.4065 29.784643 717.4065 30.336927L717.4065 40.336926C717.4065 40.889214 716.95874 41.336926 716.4065 41.336926L706.4065 41.336926C705.8542 41.336926 705.4065 40.889214 705.4065 40.336926Z" fill-rule="nonzero"/><path fill="#1a1a1a" d="M726.6721 40.836926L726.6721 29.3838L731.75024 29.3838Q733.2815 29.3838 734.07837 29.6963Q734.87524 29.993176 735.344 30.774426Q735.82837 31.555676 735.82837 32.5088Q735.82837 33.72755 735.0315 34.5713Q734.25024 35.399426 732.594 35.618176Q733.20337 35.91505 733.51587 36.1963Q734.1721 36.805676 734.76587 37.711926L736.76587 40.836926L734.8596 40.836926L733.344 38.4463Q732.6721 37.41505 732.2346 36.868176Q731.81274 36.3213 731.469 36.10255Q731.14087 35.8838 730.7815 35.805676Q730.5315 35.743176 729.93774 35.743176L728.18774 35.743176L728.18774 40.836926L726.6721 40.836926ZM728.18774 34.430676L731.43774 34.430676Q732.4846 34.430676 733.06274 34.22755Q733.6565 34.0088 733.95337 33.54005Q734.26587 33.055676 734.26587 32.5088Q734.26587 31.6963 733.6721 31.180676Q733.07837 30.649426 731.81274 30.649426L728.18774 30.649426L728.18774 34.430676ZM743.14087 38.16505L744.594 38.336926Q744.25024 39.618176 743.31274 40.3213Q742.39087 41.024426 740.95337 41.024426Q739.12524 41.024426 738.06274 39.899426Q737.00024 38.774426 737.00024 36.7588Q737.00024 34.66505 738.07837 33.5088Q739.1565 32.35255 740.87524 32.35255Q742.5315 32.35255 743.57837 33.493176Q744.64087 34.618176 744.64087 36.66505Q744.64087 36.79005 744.64087 37.04005L738.45337 37.04005Q738.5315 38.41505 739.219 39.149426Q739.9221 39.868176 740.95337 39.868176Q741.7346 39.868176 742.2815 39.461926Q742.82837 39.055676 743.14087 38.16505ZM738.5315 35.8838L743.1565 35.8838Q743.06274 34.836926 742.62524 34.3213Q741.95337 33.5088 740.89087 33.5088Q739.9221 33.5088 739.25024 34.16505Q738.594 34.805676 738.5315 35.8838ZM746.469 40.836926L746.469 32.54005L747.719 32.54005L747.719 33.6963Q748.1096 33.086926 748.75024 32.72755Q749.4065 32.35255 750.2346 32.35255Q751.1565 32.35255 751.75024 32.743176Q752.344 33.118176 752.57837 33.805676Q753.56274 32.35255 755.14087 32.35255Q756.37524 32.35255 757.0315 33.04005Q757.70337 33.711926 757.70337 35.1338L757.70337 40.836926L756.31274 40.836926L756.31274 35.60255Q756.31274 34.7588 756.1721 34.399426Q756.0315 34.024426 755.6721 33.805676Q755.31274 33.5713 754.82837 33.5713Q753.95337 33.5713 753.37524 34.149426Q752.7971 34.72755 752.7971 36.0088L752.7971 40.836926L751.39087 40.836926L751.39087 35.4463Q751.39087 34.5088 751.0471 34.04005Q750.70337 33.5713 749.9221 33.5713Q749.32837 33.5713 748.82837 33.8838Q748.32837 34.1963 748.094 34.805676Q747.87524 35.399426 747.87524 36.524426L747.87524 40.836926L746.469 40.836926ZM758.93774 36.680676Q758.93774 34.3838 760.219 33.274426Q761.2971 32.35255 762.82837 32.35255Q764.5471 32.35255 765.62524 33.47755Q766.719 34.586926 766.719 36.5713Q766.719 38.16505 766.2346 39.086926Q765.75024 40.0088 764.82837 40.524426Q763.9221 41.024426 762.82837 41.024426Q761.094 41.024426 760.01587 39.91505Q758.93774 38.79005 758.93774 36.680676ZM760.39087 36.680676Q760.39087 38.274426 761.07837 39.0713Q761.7815 39.868176 762.82837 39.868176Q763.87524 39.868176 764.56274 39.0713Q765.26587 38.274426 765.26587 36.6338Q765.26587 35.10255 764.56274 34.305676Q763.87524 33.5088 762.82837 33.5088Q761.7815 33.5088 761.07837 34.305676Q760.39087 35.086926 760.39087 36.680676ZM770.76587 40.836926L767.6096 32.54005L769.094 32.54005L770.87524 37.5088Q771.1721 38.305676 771.4065 39.180676Q771.594 38.524426 771.93774 37.60255L773.7815 32.54005L775.219 32.54005L772.07837 40.836926L770.76587 40.836926ZM781.14087 38.16505L782.594 38.336926Q782.25024 39.618176 781.31274 40.3213Q780.39087 41.024426 778.95337 41.024426Q777.12524 41.024426 776.06274 39.899426Q775.00024 38.774426 775.00024 36.7588Q775.00024 34.66505 776.07837 33.5088Q777.1565 32.35255 778.87524 32.35255Q780.5315 32.35255 781.57837 33.493176Q782.64087 34.618176 782.64087 36.66505Q782.64087 36.79005 782.64087 37.04005L776.45337 37.04005Q776.5315 38.41505 777.219 39.149426Q777.9221 39.868176 778.95337 39.868176Q779.7346 39.868176 780.2815 39.461926Q780.82837 39.055676 781.14087 38.16505ZM776.5315 35.8838L781.1565 35.8838Q781.06274 34.836926 780.62524 34.3213Q779.95337 33.5088 778.89087 33.5088Q777.9221 33.5088 777.25024 34.16505Q776.594 34.805676 776.5315 35.8838Z" fill-rule="nonzero"/></svg>